SplineFontDB: 3.2
FontName: CommonSans-Thin
FullName: Common Sans Thin
FamilyName: Common Sans
Weight: Thin
Copyright: Copyright (c) 2015-2022 Common Sans Project Authors (https://github.com/StefanPeev/Common-Sans). All rights reserved.
Version: 1.16
ItalicAngle: 0
UnderlinePosition: -200
UnderlineWidth: 50
Ascent: 800
Descent: 200
InvalidEm: 1
UFOAscent: 700
UFODescent: -200
LayerCount: 2
Layer: 0 0 "public.background" 1 "glyphs.public.background"
Layer: 1 0 "public.default" 0 "glyphs"
StyleMap: 0x0040
FSType: 260
OS2Version: 0
OS2_WeightWidthSlopeOnly: 0
OS2_UseTypoMetrics: 0
CreationTime: 1678655545
ModificationTime: 1679314986
PfmFamily: 16
TTFWeight: 100
TTFWidth: 5
LineGap: 27
VLineGap: 0
Panose: 0 0 0 0 0 0 0 0 0 0
OS2TypoAscent: 700
OS2TypoAOffset: 0
OS2TypoDescent: -200
OS2TypoDOffset: 0
OS2TypoLinegap: 52
OS2WinAscent: 950
OS2WinAOffset: 0
OS2WinDescent: 250
OS2WinDOffset: 0
HheadAscent: 950
HheadAOffset: 0
HheadDescent: -250
HheadDOffset: 0
OS2SubXSize: 650
OS2SubYSize: 600
OS2SubXOff: 0
OS2SubYOff: 75
OS2SupXSize: 650
OS2SupYSize: 600
OS2SupXOff: 0
OS2SupYOff: 350
OS2StrikeYSize: 50
OS2StrikeYPos: 276
OS2CapHeight: 700
OS2XHeight: 460
OS2Vendor: 'CNTX'
OS2CodePages: 20000097.00000000
OS2UnicodeRanges: 8000027f.40000048.00000000.00000000
Lookup: 1 0 0 "'locl' Localized Forms in Cyrillic lookup 0" { "'locl' Localized Forms in Cyrillic lookup 0 subtable"  } ['locl' ('cyrl' <'BGR ' > ) ]
Lookup: 1 0 0 "'sinf' Scientific Inferiors lookup 1" { "'sinf' Scientific Inferiors lookup 1 subtable"  } ['sinf' ('latn' <'dflt' 'NLD ' 'AZE ' 'LTH ' 'TRK ' 'MOL ' 'ROM ' 'CAT ' > 'cyrl' <'dflt' 'SRB ' 'BGR ' 'UKR ' 'RUS ' > 'DFLT' <'dflt' > ) ]
Lookup: 1 0 0 "'sups' Superscript lookup 2" { "'sups' Superscript lookup 2 subtable" ("superior") } ['sups' ('latn' <'dflt' 'NLD ' 'AZE ' 'LTH ' 'TRK ' 'MOL ' 'ROM ' 'CAT ' > 'cyrl' <'dflt' 'SRB ' 'BGR ' 'UKR ' 'RUS ' > 'DFLT' <'dflt' > ) ]

StartChar: .notdef
Encoding: 256 -1 0
GlifName: _notdef
Width: 1000
VWidth: 0
Flags: W
LayerCount: 2
Fore
SplineSet
100 -50 m 257
 100 752 l 257
 900 752 l 257
 900 -50 l 257
 100 -50 l 257
526 684 m 257
 526 274 l 257
 804 274 l 257
 804 684 l 257
 526 684 l 257
469 684 m 257
 389 684 l 257
 389 443 l 257
 283 684 l 257
 191 684 l 257
 191 274 l 257
 271 274 l 257
 271 515 l 257
 377 274 l 257
 469 274 l 257
 469 684 l 257
191 205 m 257
 191 21 l 257
 315 21 l 257
 315 132 l 257
 254 132 l 257
 254 96 l 257
 279 96 l 257
 279 57 l 257
 227 57 l 257
 227 169 l 257
 315 169 l 257
 315 205 l 257
 191 205 l 257
343 205 m 257
 343 21 l 257
 454 21 l 257
 454 57 l 257
 382 57 l 257
 382 205 l 257
 343 205 l 257
410 205 m 257
 410 96 l 257
 486 96 l 257
 486 21 l 257
 522 21 l 257
 522 205 l 257
 486 205 l 257
 486 132 l 257
 446 132 l 257
 446 205 l 257
 410 205 l 257
550 205 m 257
 550 21 l 257
 587 21 l 257
 587 96 l 257
 664 96 l 257
 664 205 l 257
 550 205 l 257
692 205 m 257
 692 21 l 257
 728 21 l 257
 728 96 l 257
 768 96 l 257
 768 21 l 257
 804 21 l 257
 804 205 l 257
 768 205 l 257
 768 132 l 257
 728 132 l 257
 728 205 l 257
 692 205 l 257
606 604 m 257
 724 604 l 257
 724 354 l 257
 606 354 l 257
 606 604 l 257
587 169 m 257
 627 169 l 257
 627 132 l 257
 587 132 l 257
 587 169 l 257
EndSplineSet
EndChar

StartChar: A
Encoding: 65 65 1
GlifName: A_
Width: 480
VWidth: 0
Flags: W
AnchorPoint: "top" 240 740 basechar 0
LayerCount: 2
Fore
SplineSet
103 270 m 257
 373 270 l 257
 373 250 l 257
 103 250 l 257
 103 270 l 257
32 0 m 257
 10 0 l 257
 229 680 l 257
 251 680 l 257
 470 0 l 257
 448 0 l 257
 233 672 l 257
 247 672 l 257
 32 0 l 257
EndSplineSet
Guideline: "" "" 240 0 90 0 0
Guideline: "" "" 10 0 72.1484 0 0
Guideline: "" "" 247 672 252.258 0 0
Guideline: "" "" 448 0 107.742 0 0
Guideline: "" "" 251 680 287.852 0 0
Substitution2: "'c2sc' Capitals to Small Capitals lookup 35 subtable" a.sc
Substitution2: "Single Substitution lookup 31 subtable" ordfeminine
EndChar

StartChar: AE
Encoding: 257 198 2
GlifName: A_E_
Width: 830
VWidth: 0
Flags: W
LayerCount: 2
Fore
SplineSet
220 372 m 257
 390 372 l 257
 390 610 l 257
 290 610 l 257
 220 372 l 257
30 0 m 257
 240 700 l 257
 800 700 l 257
 800 620 l 257
 480 620 l 257
 480 397 l 257
 760 397 l 257
 760 317 l 257
 480 317 l 257
 480 80 l 257
 800 80 l 257
 800 0 l 257
 390 0 l 257
 390 282 l 257
 200 282 l 257
 120 0 l 257
 30 0 l 257
EndSplineSet
EndChar

StartChar: B
Encoding: 66 66 13
GlifName: B_
Width: 597
VWidth: 0
Flags: W
LayerCount: 2
Fore
SplineSet
112 380 m 257
 324 380 l 258
 405 380 460 421 460 507 c 256
 460 605 417 660 303 660 c 258
 112 660 l 257
 112 680 l 257
 303 680 l 258
 440 680 482 615 482 507 c 256
 482 451 464 395 380 373 c 257
 458 359 517 310 517 187 c 256
 517 58 446 0 290 0 c 258
 112 0 l 257
 112 20 l 257
 290 20 l 258
 444 20 495 80 495 187 c 256
 495 294 455 360 324 360 c 258
 112 360 l 257
 112 380 l 257
EndSplineSet
Refer: 44 73 N 1 0 0 1 0 0 2
Guideline: "" "" 0 20 0 0 0
Guideline: "" "" 0 660 0 0 0
Guideline: "" "" 0 380 0 0 0
Guideline: "" "" 0 360 0 0 0
Guideline: "" "" 0 127 0 0 0
Guideline: "" "" 0 536 0 0 0
Substitution2: "'c2sc' Capitals to Small Capitals lookup 35 subtable" b.sc
EndChar

StartChar: C
Encoding: 67 67 14
GlifName: C_
Width: 705
VWidth: 0
Flags: W
AnchorPoint: "top" 350 740 basechar 0
AnchorPoint: "bottom" 350 -60 basechar 0
LayerCount: 2
Fore
SplineSet
358 10 m 257
 475 10 565 75 590 184 c 257
 610 184 l 257
 584 70 491 -10 358 -10 c 257
 358 10 l 257
358 -10 m 257
 189 -10 80 127 80 340 c 256
 80 553 189 690 358 690 c 257
 358 670 l 257
 199 670 102 544 102 340 c 256
 102 136 199 10 358 10 c 257
 358 -10 l 257
358 690 m 257
 496 690 593 606 625 454 c 257
 605 454 l 257
 574 589 484 670 358 670 c 257
 358 690 l 257
EndSplineSet
Substitution2: "'c2sc' Capitals to Small Capitals lookup 35 subtable" c.sc
EndChar

StartChar: D
Encoding: 68 68 21
GlifName: D_
Width: 630
VWidth: 0
Flags: W
LayerCount: 2
Fore
SplineSet
110 0 m 257
 288 0 l 258
 478 0 550 146 550 340 c 256
 550 534 478 680 288 680 c 258
 110 680 l 257
 110 660 l 257
 288 660 l 258
 457 660 529 523 529 340 c 256
 529 157 455 20 288 20 c 258
 110 20 l 257
 110 0 l 257
EndSplineSet
Refer: 44 73 N 1 0 0 1 0 0 2
Substitution2: "'c2sc' Capitals to Small Capitals lookup 35 subtable" d.sc
EndChar

StartChar: Dcroat
Encoding: 275 272 23
GlifName: D_croat
Width: 705
VWidth: 0
Flags: W
LayerCount: 2
Fore
SplineSet
190 80 m 257
 378 80 l 258
 528 80 570 241 570 350 c 256
 570 498 527 620 378 620 c 258
 190 620 l 257
 190 400 l 257
 240 400 l 257
 240 320 l 257
 190 320 l 257
 190 80 l 257
20 320 m 257
 20 400 l 257
 100 400 l 257
 100 700 l 257
 378 700 l 258
 568 700 660 550 660 350 c 256
 660 147 569 0 378 0 c 258
 100 0 l 257
 100 320 l 257
 20 320 l 257
EndSplineSet
EndChar

StartChar: E
Encoding: 69 69 24
GlifName: E_
Width: 510
VWidth: 0
Flags: W
AnchorPoint: "top" 255 740 basechar 0
LayerCount: 2
Fore
SplineSet
110 20 m 257
 460 20 l 257
 460 0 l 257
 110 0 l 257
 110 20 l 257
110 680 m 257
 460 680 l 257
 460 660 l 257
 110 660 l 257
 110 680 l 257
110 360 m 257
 420 360 l 257
 420 340 l 257
 110 340 l 257
 110 360 l 257
EndSplineSet
Refer: 44 73 N 1 0 0 1 0 0 2
Substitution2: "'c2sc' Capitals to Small Capitals lookup 35 subtable" e.sc
EndChar

StartChar: Eogonek
Encoding: 284 280 33
GlifName: E_ogonek
Width: 510
VWidth: 0
Flags: W
LayerCount: 2
Fore
SplineSet
184 -120 m 256
 184 -66 222 -21 255 4 c 257
 313 4 l 257
 270 -28 245 -65 245 -104 c 256
 245 -135 267 -150 291 -150 c 256
 307 -150 320 -145 331 -137 c 257
 353 -178 l 257
 334 -193 299 -205 274 -205 c 256
 224 -205 184 -176 184 -120 c 256
50 0 m 257
 50 212 l 257
 50 700 l 257
 460 700 l 257
 460 620 l 257
 140 620 l 257
 140 397 l 257
 420 397 l 257
 420 317 l 257
 140 317 l 257
 140 80 l 257
 460 80 l 257
 460 0 l 257
 50 0 l 257
EndSplineSet
EndChar

StartChar: Eth
Encoding: 285 208 34
GlifName: E_th
Width: 660
VWidth: 0
Flags: W
LayerCount: 2
Fore
SplineSet
140 80 m 257
 328 80 l 258
 478 80 520 241 520 350 c 256
 520 498 477 620 328 620 c 258
 140 620 l 257
 140 400 l 257
 290 400 l 257
 290 320 l 257
 140 320 l 257
 140 80 l 257
10 320 m 257
 10 400 l 257
 50 400 l 257
 50 700 l 257
 328 700 l 258
 355 700 380 697 403 691 c 256
 542 656 610 521 610 350 c 256
 610 147 519 0 328 0 c 258
 50 0 l 257
 50 320 l 257
 10 320 l 257
EndSplineSet
EndChar

StartChar: F
Encoding: 70 70 35
GlifName: F_
Width: 510
VWidth: 0
Flags: W
LayerCount: 2
Fore
SplineSet
110 680 m 257
 460 680 l 257
 460 660 l 257
 110 660 l 257
 110 680 l 257
110 360 m 257
 420 360 l 257
 420 340 l 257
 110 340 l 257
 110 360 l 257
EndSplineSet
Refer: 44 73 N 1 0 0 1 0 0 2
Substitution2: "'c2sc' Capitals to Small Capitals lookup 35 subtable" f.sc
EndChar

StartChar: G
Encoding: 71 71 36
GlifName: G_
Width: 707
VWidth: 0
Flags: W
AnchorPoint: "top" 358 740 basechar 0
LayerCount: 2
Back
SplineSet
527 240 m 257
 356 240 l 257
 356 310 l 257
 617 310 l 257
 617 0 l 257
 527 0 l 257
 527 240 l 257
EndSplineSet
Fore
SplineSet
595 280 m 257
 595 0 l 257
 617 0 l 257
 617 300 l 257
 388 300 l 257
 388 280 l 257
 595 280 l 257
607 174 m 257
 566 85 462 10 358 10 c 257
 358 -10 l 257
 459 -10 569 55 607 134 c 257
 607 174 l 257
358 10 m 257
 199 10 102 136 102 340 c 256
 102 544 199 670 358 670 c 257
 358 690 l 257
 189 690 80 553 80 340 c 256
 80 127 189 -10 358 -10 c 257
 358 10 l 257
358 670 m 257
 484 670 574 589 605 454 c 257
 625 454 l 257
 593 606 496 690 358 690 c 257
 358 670 l 257
EndSplineSet
Substitution2: "'c2sc' Capitals to Small Capitals lookup 35 subtable" g.sc
EndChar

StartChar: Gcaron
Encoding: 287 486 38
GlifName: G_caron
Width: 647
VWidth: 0
Flags: W
LayerCount: 2
Fore
SplineSet
168 950 m 257
 232 950 l 257
 328 823 l 257
 424 950 l 257
 488 950 l 257
 368 770 l 257
 288 770 l 257
 168 950 l 257
50 350 m 256
 50 560 146 710 328 710 c 256
 477 710 566 615 597 474 c 257
 508 474 l 257
 502 497 495 518 485 537 c 256
 456 594 407 630 328 630 c 256
 189 630 140 502 140 350 c 256
 140 200 187 70 328 70 c 256
 415 70 468 120 498 184 c 257
 498 240 l 257
 327 240 l 257
 327 320 l 257
 587 320 l 257
 587 0 l 257
 498 0 l 257
 498 85 l 257
 456 24 401 -10 334 -10 c 256
 141 -10 50 138 50 350 c 256
EndSplineSet
EndChar

StartChar: H
Encoding: 72 72 42
GlifName: H_
Width: 602
VWidth: 0
Flags: W
LayerCount: 2
Fore
SplineSet
491 357 m 257
 109 357 l 257
 109 337 l 257
 491 337 l 257
 491 357 l 257
EndSplineSet
Refer: 44 73 N 1 0 0 1 0 0 2
Refer: 44 73 N 1 0 0 1 380 0 2
Substitution2: "'c2sc' Capitals to Small Capitals lookup 35 subtable" h.sc
EndChar

StartChar: I
Encoding: 73 73 44
GlifName: I_
Width: 222
VWidth: 0
Flags: W
AnchorPoint: "top" 111 740 basechar 0
LayerCount: 2
Fore
SplineSet
100 0 m 257
 100 680 l 257
 122 680 l 257
 122 0 l 257
 100 0 l 257
EndSplineSet
Guideline: "" "" 111 0 90 0 0
Substitution2: "'c2sc' Capitals to Small Capitals lookup 35 subtable" i.sc
EndChar

StartChar: J
Encoding: 74 74 55
GlifName: J_
Width: 270
VWidth: 0
Flags: W
AnchorPoint: "top" 157 740 basechar 0
LayerCount: 2
Fore
SplineSet
50 0 m 257
 50 20 l 257
 76 20 l 258
 116 20 148 86 148 150 c 258
 148 680 l 257
 170 680 l 257
 170 164 l 258
 170 60 128 0 74 0 c 258
 50 0 l 257
EndSplineSet
Substitution2: "'c2sc' Capitals to Small Capitals lookup 35 subtable" j.sc
EndChar

StartChar: K
Encoding: 75 75 57
GlifName: K_
Width: 496
VWidth: 0
Flags: W
LayerCount: 2
Fore
SplineSet
116 313 m 257
 230 334 l 257
 460 0 l 257
 486 0 l 257
 246 350 l 257
 446 680 l 257
 420 680 l 257
 225 354 l 257
 116 336 l 257
 116 313 l 257
EndSplineSet
Refer: 44 73 N 1 0 0 1 0 0 2
Guideline: "" "" 260 317 303.523 0 0
Guideline: "" "" 430 680 239.006 0 0
Guideline: "" "" 176 293 15.9454 0 0
Guideline: "" "" 260 397 195.945 0 0
Guideline: "" "" 0 350 0 0 0
Guideline: "" "" 176 293 15.9454 0 0
Substitution2: "'c2sc' Capitals to Small Capitals lookup 35 subtable" k.sc
EndChar

StartChar: L
Encoding: 76 76 59
GlifName: L_
Width: 560
VWidth: 0
Flags: W
AnchorPoint: "top" 145 740 basechar 0
LayerCount: 2
Fore
SplineSet
111 20 m 257
 451 20 l 257
 451 0 l 257
 111 0 l 257
 111 20 l 257
EndSplineSet
Refer: 44 73 N 1 0 0 1 0 0 2
Substitution2: "'c2sc' Capitals to Small Capitals lookup 35 subtable" l.sc
EndChar

StartChar: Lcaron
Encoding: 305 317 61
GlifName: L_caron
Width: 510
VWidth: 0
Flags: W
LayerCount: 2
Fore
SplineSet
270 490 m 257
 292 620 l 257
 270 620 l 257
 270 700 l 257
 350 700 l 257
 350 620 l 257
 304 490 l 257
 270 490 l 257
50 0 m 257
 50 700 l 257
 140 700 l 257
 140 80 l 257
 460 80 l 257
 460 0 l 257
 50 0 l 257
EndSplineSet
EndChar

StartChar: Lcommaaccent
Encoding: 306 315 62
GlifName: L_commaaccent
Width: 510
VWidth: 0
Flags: W
LayerCount: 2
Fore
SplineSet
215 -60 m 257
 295 -60 l 257
 295 -140 l 257
 249 -270 l 257
 215 -270 l 257
 237 -140 l 257
 215 -140 l 257
 215 -60 l 257
50 0 m 257
 50 700 l 257
 140 700 l 257
 140 80 l 257
 460 80 l 257
 460 0 l 257
 50 0 l 257
EndSplineSet
EndChar

StartChar: Ldot
Encoding: 307 319 63
GlifName: L_dot
Width: 510
VWidth: 0
Flags: W
LayerCount: 2
Fore
SplineSet
215 315 m 257
 215 342 215 368 215 395 c 257
 295 395 l 257
 295 315 l 257
 215 315 l 257
50 0 m 257
 50 700 l 257
 140 700 l 257
 140 80 l 257
 460 80 l 257
 460 0 l 257
 50 0 l 257
EndSplineSet
EndChar

StartChar: Lslash
Encoding: 308 321 64
GlifName: L_slash
Width: 610
VWidth: 0
Flags: W
LayerCount: 2
Fore
SplineSet
20 170 m 257
 170 425 l 257
 170 700 l 257
 260 700 l 257
 260 579 l 257
 319 679 l 257
 348 679 378 679 407 679 c 257
 260 426 l 257
 260 80 l 257
 580 80 l 257
 580 0 l 257
 170 0 l 257
 170 271 l 257
 111 170 l 257
 20 170 l 257
EndSplineSet
EndChar

StartChar: M
Encoding: 77 77 65
GlifName: M_
Width: 744
VWidth: 0
Flags: W
AnchorPoint: "top" 372 740 basechar 0
LayerCount: 2
Back
SplineSet
260 680 m 257
 458 0 l 257
 370 0 l 257
 166 680 l 257
 260 680 l 257
380 0 m 257
 590 680 l 257
 674 680 l 257
 470 0 l 257
 380 0 l 257
150 680 m 257
 150 0 l 257
 60 0 l 257
 60 680 l 257
 150 680 l 257
EndSplineSet
Guideline: "" "" 260 680 286.26 0 0
Guideline: "" "" 370 0 106.699 0 0
Guideline: "" "" 405 80 72.8637 0 0
Guideline: "" "" 650 600 253.301 0 0
Fore
SplineSet
102 680 m 257
 124 680 l 257
 356 80 l 258
 368 50 378 10 378 0 c 257
 361 0 l 257
 102 680 l 257
620 680 m 257
 642 680 l 257
 383 0 l 257
 366 0 l 257
 366 10 376 50 388 80 c 258
 620 680 l 257
100 0 m 257
 100 680 l 257
 122 680 l 257
 122 0 l 257
 100 0 l 257
622 0 m 257
 622 680 l 257
 644 680 l 257
 644 0 l 257
 622 0 l 257
EndSplineSet
Guideline: "" "" 372 0 90 0 0
Guideline: "" "" 372 0 90 0 0
Guideline: "" "" 0 335 0 0 0
Substitution2: "'c2sc' Capitals to Small Capitals lookup 35 subtable" m.sc
EndChar

StartChar: N
Encoding: 78 78 66
GlifName: N_
Width: 618
VWidth: 0
Flags: W
AnchorPoint: "top" 301 740 basechar 0
AnchorPoint: "bottom" 301 -60 basechar 0
LayerCount: 2
Fore
SplineSet
100 0 m 257
 100 680 l 257
 124 680 l 257
 508 20 l 257
 500 20 l 257
 496 51 496 79 496 100 c 258
 496 680 l 257
 518 680 l 257
 518 0 l 257
 494 0 l 257
 110 660 l 257
 118 660 l 257
 122 629 122 601 122 580 c 258
 122 0 l 257
 100 0 l 257
EndSplineSet
Guideline: "" "" 301 0 90 0 0
Guideline: "" "" 124 680 300.199 0 0
Guideline: "" "" 98 680 300.199 0 0
Substitution2: "'c2sc' Capitals to Small Capitals lookup 35 subtable" n.sc
EndChar

StartChar: Ncaron
Encoding: 311 327 68
GlifName: N_caron
Width: 560
VWidth: 0
Flags: W
LayerCount: 2
Fore
SplineSet
120 950 m 257
 184 950 l 257
 280 823 l 257
 376 950 l 257
 440 950 l 257
 320 770 l 257
 240 770 l 257
 120 950 l 257
50 0 m 257
 50 700 l 257
 190 700 l 257
 420 105 l 257
 420 700 l 257
 510 700 l 257
 510 0 l 257
 370 0 l 257
 140 597 l 257
 140 0 l 257
 50 0 l 257
EndSplineSet
EndChar

StartChar: O
Encoding: 79 79 71
GlifName: O_
Width: 716
VWidth: 0
Flags: W
AnchorPoint: "top" 358 740 basechar 0
LayerCount: 2
Fore
SplineSet
358 -10 m 257
 189 -10 80 127 80 340 c 256
 80 553 189 690 358 690 c 257
 358 670 l 257
 199 670 102 544 102 340 c 256
 102 136 199 10 358 10 c 257
 358 -10 l 257
358 690 m 257
 527 690 636 553 636 340 c 256
 636 127 527 -10 358 -10 c 257
 358 10 l 257
 517 10 614 136 614 340 c 256
 614 544 517 670 358 670 c 257
 358 690 l 257
EndSplineSet
Substitution2: "'c2sc' Capitals to Small Capitals lookup 35 subtable" o.sc
Substitution2: "Single Substitution lookup 32 subtable" ordmasculine
EndChar

StartChar: OE
Encoding: 314 338 72
GlifName: O_E_
Width: 980
VWidth: 0
Flags: W
LayerCount: 2
Fore
SplineSet
140 350 m 256
 140 200 187 70 328 70 c 256
 478 70 520 237 520 350 c 256
 520 503 477 630 328 630 c 256
 189 630 140 502 140 350 c 256
50 350 m 256
 50 560 146 710 328 710 c 256
 410 710 474 681 520 632 c 257
 520 700 l 257
 930 700 l 257
 930 620 l 257
 610 620 l 257
 610 397 l 257
 890 397 l 257
 890 317 l 257
 610 317 l 257
 610 80 l 257
 930 80 l 257
 930 0 l 257
 520 0 l 257
 520 65 l 257
 520 64 l 257
 475 17 413 -10 334 -10 c 256
 141 -10 50 138 50 350 c 256
EndSplineSet
EndChar

StartChar: Oslash
Encoding: 322 216 80
GlifName: O_slash
Width: 660
VWidth: 0
Flags: W
LayerCount: 2
Fore
SplineSet
23 45 m 257
 101 138 l 257
 74 196 61 268 61 349 c 256
 61 559 157 709 339 709 c 256
 416 709 477 684 522 640 c 257
 576 705 l 257
 637 654 l 257
 571 575 l 257
 604 514 620 436 620 350 c 257
 619 349 l 257
 619 140 530 -11 343 -11 c 256
 258 -11 193 18 147 69 c 257
 84 -6 l 257
 23 45 l 257
201 135 m 257
 231 94 275 69 337 69 c 256
 487 69 529 236 529 349 c 256
 529 405 523 457 509 501 c 257
 201 135 l 257
148 349 m 256
 148 301 153 255 164 215 c 257
 467 576 l 257
 437 609 395 629 336 629 c 256
 197 629 148 501 148 349 c 256
EndSplineSet
EndChar

StartChar: P
Encoding: 80 80 82
GlifName: P_
Width: 580
VWidth: 0
Flags: W
LayerCount: 2
Fore
SplineSet
110 660 m 257
 305 660 l 258
 431 660 498 600 498 487 c 256
 498 371 424 300 305 300 c 258
 110 300 l 257
 110 280 l 257
 295 280 l 258
 441 280 520 352 520 487 c 256
 520 615 445 680 295 680 c 258
 110 680 l 257
 110 660 l 257
EndSplineSet
Refer: 44 73 N 1 0 0 1 0 0 2
Substitution2: "'c2sc' Capitals to Small Capitals lookup 35 subtable" p.sc
EndChar

StartChar: Q
Encoding: 81 81 83
GlifName: Q_
Width: 716
VWidth: 0
Flags: W
LayerCount: 2
Fore
SplineSet
444 12 m 257
 531 -75 l 257
 544 -61 l 257
 461 22 l 257
 444 12 l 257
399 57 m 257
 441 15 l 257
 458 25 l 257
 412 71 l 257
 399 57 l 257
EndSplineSet
Refer: 71 79 N 1 0 0 1 0 0 2
Guideline: "" "" 542 -59 135 0 0
Guideline: "" "" 433 23 315 0 0
Substitution2: "'c2sc' Capitals to Small Capitals lookup 35 subtable" q.sc
EndChar

StartChar: R
Encoding: 82 82 84
GlifName: R_
Width: 530
VWidth: 0
Flags: W
AnchorPoint: "top" 260 740 basechar 0
AnchorPoint: "bottom" 280 -60 basechar 0
LayerCount: 2
Fore
SplineSet
355 300 m 257
 480 0 l 257
 506 0 l 257
 379 300 l 257
 355 300 l 257
EndSplineSet
Refer: 82 80 N 1 0 0 1 0 0 2
Substitution2: "'c2sc' Capitals to Small Capitals lookup 35 subtable" r.sc
EndChar

StartChar: S
Encoding: 83 83 88
GlifName: S_
Width: 641
VWidth: 0
Flags: W
AnchorPoint: "top" 319 740 basechar 0
LayerCount: 2
Fore
SplineSet
80 193 m 257
 102 193 l 257
 102 82 190 10 325 10 c 256
 454 10 539 76 539 177 c 256
 539 248 496 294 406 319 c 258
 222 371 l 258
 147 392 99 454 99 529 c 256
 99 627 182 690 313 690 c 256
 458 690 559 612 559 501 c 257
 537 501 l 257
 537 601 442 670 298 670 c 256
 190 670 121 615 121 529 c 256
 121 460 166 405 238 385 c 258
 429 332 l 258
 518 307 561 255 561 174 c 256
 561 59 474 -10 328 -10 c 256
 174 -10 80 67 80 193 c 257
EndSplineSet
Substitution2: "'c2sc' Capitals to Small Capitals lookup 35 subtable" s.sc
EndChar

StartChar: Sacute
Encoding: 327 346 89
GlifName: S_acute
Width: 582
VWidth: 0
Flags: W
LayerCount: 2
Fore
SplineSet
258 750 m 257
 308 910 l 257
 388 910 l 257
 322 750 l 257
 258 750 l 257
EndSplineSet
Refer: 88 83 N 1 0 0 1 -29 0 2
EndChar

StartChar: Scedilla
Encoding: 329 350 91
GlifName: S_cedilla
Width: 582
VWidth: 0
Flags: W
LayerCount: 2
Fore
SplineSet
51 194 m 257
 65 194 80 193 95 193 c 258
 139 193 l 257
 139 86 246 79 303 79 c 256
 333 79 440 99 440 205 c 256
 440 368 69 290 69 527 c 256
 69 620 140 709 299 709 c 256
 408 709 489 643 518 573 c 256
 525 556 530 538 530 521 c 257
 440 521 l 257
 421 583 370 619 300 619 c 256
 220 619 161 591 161 527 c 256
 161 410 532 448 532 205 c 256
 532 19 401 -11 304 -11 c 256
 174 -11 51 76 51 194 c 257
206 -164 m 257
 219 -167 240 -170 260 -170 c 256
 301 -170 319 -148 319 -118 c 256
 319 -82 270 -70 240 -67 c 257
 271 0 l 257
 332 0 l 257
 309 -46 l 257
 332 -54 376 -70 376 -123 c 256
 376 -177 331 -209 276 -209 c 256
 243 -209 220 -200 206 -193 c 257
 206 -164 l 257
EndSplineSet
EndChar

StartChar: T
Encoding: 84 84 94
GlifName: T_
Width: 480
VWidth: 0
Flags: W
AnchorPoint: "top" 240 740 basechar 0
AnchorPoint: "bottom" 240 -60 basechar 0
LayerCount: 2
Fore
SplineSet
10 660 m 257
 10 680 l 257
 470 680 l 257
 470 660 l 257
 10 660 l 257
EndSplineSet
Refer: 44 73 N 1 0 0 1 129 0 2
Guideline: "" "" 240 0 90 0 0
Substitution2: "'c2sc' Capitals to Small Capitals lookup 35 subtable" t.sc
EndChar

StartChar: Tbar
Encoding: 332 358 95
GlifName: T_bar
Width: 560
VWidth: 0
Flags: W
LayerCount: 2
Fore
SplineSet
50 620 m 257
 50 700 l 257
 510 700 l 257
 510 620 l 257
 330 620 l 257
 330 430 l 257
 490 430 l 257
 490 350 l 257
 330 350 l 257
 330 0 l 257
 240 0 l 257
 240 350 l 257
 70 350 l 257
 70 430 l 257
 240 430 l 257
 240 620 l 257
 50 620 l 257
EndSplineSet
EndChar

StartChar: U
Encoding: 85 85 97
GlifName: U_
Width: 560
VWidth: 0
Flags: W
AnchorPoint: "top" 280 740 basechar 0
LayerCount: 2
Fore
SplineSet
50 230 m 258
 50 680 l 257
 70 680 l 257
 70 250 l 258
 70 80 150 10 280 10 c 256
 410 10 490 80 490 250 c 258
 490 680 l 257
 510 680 l 257
 510 230 l 258
 510 70 430 -10 280 -10 c 256
 130 -10 50 70 50 230 c 258
EndSplineSet
Guideline: "" "" 280 0 90 0 0
Substitution2: "'c2sc' Capitals to Small Capitals lookup 35 subtable" u.sc
EndChar

StartChar: Uogonek
Encoding: 341 370 105
GlifName: U_ogonek
Width: 560
VWidth: 0
Flags: W
LayerCount: 2
Fore
SplineSet
50 224 m 258
 50 700 l 257
 140 700 l 257
 140 274 l 258
 140 147 204 80 290 80 c 256
 378 80 420 145 420 274 c 258
 420 700 l 257
 510 700 l 257
 510 224 l 258
 510 100 465 -10 290 -10 c 256
 92 -10 50 106 50 224 c 258
341 -124 m 256
 341 -70 378 -25 412 0 c 257
 470 0 l 257
 429 -31 402 -69 402 -108 c 256
 402 -130 414 -145 431 -151 c 257
 436 -153 442 -154 448 -154 c 256
 462 -154 477 -149 488 -141 c 257
 510 -182 l 257
 497 -191 l 257
 478 -202 451 -209 431 -209 c 256
 381 -209 341 -180 341 -124 c 256
EndSplineSet
EndChar

StartChar: V
Encoding: 86 86 108
GlifName: V_
Width: 480
VWidth: 0
Flags: W
LayerCount: 2
Fore
SplineSet
10 680 m 257
 32 680 l 257
 224 80 l 258
 234 50 246 10 246 0 c 257
 229 0 l 257
 10 680 l 257
448 680 m 257
 470 680 l 257
 251 0 l 257
 234 0 l 257
 234 10 246 50 256 80 c 258
 448 680 l 257
EndSplineSet
Guideline: "" "" 240 0 90 0 0
Guideline: "" "" 0 335 0 0 0
Substitution2: "'c2sc' Capitals to Small Capitals lookup 35 subtable" v.sc
EndChar

StartChar: Wcircumflex
Encoding: 344 372 110
GlifName: W_circumflex
Width: 1061
VWidth: 0
Flags: W
LayerCount: 2
Fore
SplineSet
50 700 m 257
 157 700 l 257
 317 97 l 257
 477 700 l 257
 584 700 l 257
 744 97 l 257
 904 700 l 257
 1011 700 l 257
 802 0 l 257
 684 0 l 257
 530 520 l 257
 375 0 l 257
 257 0 l 257
 50 700 l 257
370 760 m 257
 490 940 l 257
 570 940 l 257
 690 760 l 257
 626 760 l 257
 530 887 l 257
 434 760 l 257
 370 760 l 257
EndSplineSet
EndChar

StartChar: X
Encoding: 88 88 111
GlifName: X_
Width: 658
VWidth: 0
Flags: W
LayerCount: 2
Fore
SplineSet
147 680 m 257
 120 680 l 257
 519 0 l 257
 546 0 l 257
 147 680 l 257
310 371 m 257
 92 0 l 257
 119 0 l 257
 324 349 l 257
 310 371 l 257
330 359 m 257
 518 680 l 257
 491 680 l 257
 315 380 l 257
 330 359 l 257
EndSplineSet
Guideline: "" "" 546 0 120.403 0 0
Guideline: "" "" 491 680 59.6 0 0
Guideline: "" "" 119 0 59.6 0 0
Substitution2: "'c2sc' Capitals to Small Capitals lookup 35 subtable" x.sc
EndChar

StartChar: Y
Encoding: 89 89 112
GlifName: Y_
Width: 594
VWidth: 0
Flags: W
LayerCount: 2
Fore
SplineSet
74 680 m 257
 96 680 l 257
 296 328 l 257
 298 328 l 257
 499 680 l 257
 521 680 l 257
 308 310 l 257
 308 0 l 257
 286 0 l 257
 286 310 l 257
 74 680 l 257
EndSplineSet
Guideline: "" "" 297 0 90 0 0
Guideline: "" "" 0 680 0 0 0
Substitution2: "'c2sc' Capitals to Small Capitals lookup 35 subtable" y.sc
EndChar

StartChar: Yacute
Encoding: 345 221 113
GlifName: Y_acute
Width: 594
VWidth: 0
Flags: W
LayerCount: 2
Fore
SplineSet
265 770 m 257
 315 950 l 257
 395 950 l 257
 329 770 l 257
 265 770 l 257
40 700 m 257
 147 700 l 257
 297 388 l 257
 447 700 l 257
 554 700 l 257
 342 310 l 257
 342 207 342 103 342 0 c 257
 252 0 l 257
 252 310 l 257
 40 700 l 257
EndSplineSet
EndChar

StartChar: Ycircumflex
Encoding: 346 374 114
GlifName: Y_circumflex
Width: 594
VWidth: 0
Flags: W
LayerCount: 2
Fore
SplineSet
40 700 m 257
 147 700 l 257
 297 388 l 257
 447 700 l 257
 554 700 l 257
 342 310 l 257
 342 0 l 257
 252 0 l 257
 252 310 l 257
 40 700 l 257
137 760 m 257
 257 940 l 257
 337 940 l 257
 457 760 l 257
 393 760 l 257
 297 887 l 257
 201 760 l 257
 137 760 l 257
EndSplineSet
EndChar

StartChar: Ydieresis
Encoding: 347 376 115
GlifName: Y_dieresis
Width: 594
VWidth: 0
Flags: W
LayerCount: 2
Fore
SplineSet
40 700 m 257
 147 700 l 257
 297 388 l 257
 447 700 l 257
 554 700 l 257
 342 310 l 257
 342 0 l 257
 252 0 l 257
 252 310 l 257
 40 700 l 257
178 760 m 257
 178 840 l 257
 258 840 l 257
 258 760 l 257
 178 760 l 257
335 760 m 257
 335 840 l 257
 415 840 l 257
 415 760 l 257
 335 760 l 257
EndSplineSet
EndChar

StartChar: Z
Encoding: 90 90 116
GlifName: Z_
Width: 510
VWidth: 0
Flags: W
LayerCount: 2
Fore
SplineSet
9 0 m 257
 9 14 l 257
 413 670 l 257
 416 660 l 257
 20 660 l 257
 20 680 l 257
 434 680 l 257
 434 666 l 257
 30 8 l 257
 31 20 l 257
 440 20 l 257
 440 0 l 257
 9 0 l 257
EndSplineSet
Guideline: "" "" 50 80 58.4046 0 0
Guideline: "" "" 74 80 58.4046 0 0
Substitution2: "'c2sc' Capitals to Small Capitals lookup 35 subtable" z.sc
EndChar

StartChar: Zacute
Encoding: 348 377 117
GlifName: Z_acute
Width: 510
VWidth: 0
Flags: W
LayerCount: 2
Fore
SplineSet
50 0 m 257
 50 80 l 257
 370 620 l 257
 50 620 l 257
 50 700 l 257
 460 700 l 257
 460 620 l 257
 140 80 l 257
 460 80 l 257
 460 0 l 257
 50 0 l 257
190 760 m 257
 240 940 l 257
 320 940 l 257
 254 760 l 257
 190 760 l 257
EndSplineSet
EndChar

StartChar: Zcaron
Encoding: 349 381 118
GlifName: Z_caron
Width: 510
VWidth: 0
Flags: W
LayerCount: 2
Fore
SplineSet
50 0 m 257
 50 80 l 257
 370 620 l 257
 50 620 l 257
 50 700 l 257
 460 700 l 257
 460 620 l 257
 140 80 l 257
 460 80 l 257
 460 0 l 257
 50 0 l 257
95 940 m 257
 159 940 l 257
 255 813 l 257
 351 940 l 257
 415 940 l 257
 295 760 l 257
 215 760 l 257
 95 940 l 257
EndSplineSet
EndChar

StartChar: Zdotaccent
Encoding: 350 379 119
GlifName: Z_dotaccent
Width: 510
VWidth: 0
Flags: W
LayerCount: 2
Fore
SplineSet
50 0 m 257
 50 80 l 257
 370 620 l 257
 50 620 l 257
 50 700 l 257
 460 700 l 257
 460 620 l 257
 140 80 l 257
 460 80 l 257
 460 0 l 257
 50 0 l 257
215 760 m 257
 215 840 l 257
 295 840 l 257
 295 760 l 257
 215 760 l 257
EndSplineSet
EndChar

StartChar: a
Encoding: 97 97 120
GlifName: a
Width: 416
VWidth: 0
Flags: W
AnchorPoint: "top" 250 520 basechar 0
LayerCount: 2
Fore
SplineSet
342 60 m 257
 348 0 l 257
 362 0 l 257
 362 359 l 258
 362 425 307 470 223 470 c 256
 139 470 78 414 70 330 c 257
 90 330 l 257
 96 402 147 450 217 450 c 256
 300 450 342 416 342 350 c 258
 342 60 l 257
350 86 m 257
 309 42 242 10 191 10 c 256
 124 10 65 54 65 121 c 256
 65 194 98 222 215 246 c 258
 348 273 l 257
 348 289 l 257
 222 264 l 258
 84 237 45 205 45 123 c 256
 45 44 101 -10 182 -10 c 256
 243 -10 304 16 350 61 c 257
 350 86 l 257
EndSplineSet
Substitution2: "'smcp' Lowercase to Small Capitals lookup 34 subtable" a.sc
Substitution2: "Single Substitution lookup 31 subtable" ordfeminine
EndChar

StartChar: a.sc
Encoding: 351 -1 121
GlifName: a.sc
Width: 450
VWidth: 0
Flags: W
LayerCount: 2
Fore
SplineSet
20 0 m 257
 175 460 l 257
 276 460 l 257
 431 0 l 257
 351 0 l 257
 296 161 l 257
 156 161 l 257
 102 0 l 257
 20 0 l 257
173 226 m 257
 279 226 l 257
 227 382 l 257
 173 226 l 257
EndSplineSet
EndChar

StartChar: acute
Encoding: 355 180 125
GlifName: acute
Width: 272
VWidth: 0
Flags: W
AnchorPoint: "aboveUC" 115 490 mark 0
LayerCount: 2
Fore
SplineSet
100 490 m 257
 150 670 l 257
 172 670 l 257
 114 490 l 257
 100 490 l 257
EndSplineSet
EndChar

StartChar: ae
Encoding: 358 230 128
GlifName: ae
Width: 757
VWidth: 0
Flags: W
LayerCount: 2
Fore
SplineSet
411 290 m 257
 650 290 l 257
 637 358 602 390 532 390 c 256
 473 390 421 353 411 290 c 257
110 136 m 256
 110 69 163 55 189 55 c 256
 234 55 307 97 327 141 c 257
 327 176 326 211 326 246 c 257
 292 238 110 231 110 136 c 256
30 128 m 256
 30 270 206 274 327 294 c 257
 327 320 l 258
 327 355 302 377 272 387 c 256
 257 392 241 395 227 395 c 256
 171 395 124 369 120 320 c 257
 55 320 l 257
 57 339 61 355 67 369 c 256
 97 440 175 460 228 460 c 256
 243 460 258 459 272 457 c 256
 315 450 352 432 376 398 c 257
 409 441 460 470 531 470 c 256
 669 470 726 350 726 210 c 257
 410 210 l 257
 414 169 427 126 455 99 c 256
 473 81 498 70 532 70 c 256
 576 70 623 88 646 114 c 257
 708 98 l 257
 693 58 634 -10 532 -10 c 256
 510 -10 492 -8 476 -5 c 256
 411 8 386 45 367 74 c 257
 334 44 293 8 229 -5 c 256
 213 -8 196 -10 177 -10 c 256
 93 -10 30 43 30 128 c 256
EndSplineSet
EndChar

StartChar: ampersand
Encoding: 38 38 131
GlifName: ampersand
Width: 699
VWidth: 0
Flags: W
LayerCount: 2
Fore
SplineSet
40 192 m 256
 40 319 112 373 199 431 c 257
 163 481 140 503 140 566 c 256
 140 652 212 710 298 710 c 256
 382 710 460 652 460 569 c 256
 460 487 402 451 325 406 c 257
 485 218 l 257
 501 254 507 284 510 330 c 257
 550 330 l 257
 590 330 l 257
 586 261 570 222 540 165 c 257
 679 0 l 257
 566 0 l 257
 491 90 l 257
 434 37 360 -10 254 -10 c 256
 142 -10 40 68 40 192 c 256
120 193 m 256
 120 113 201 55 257 55 c 256
 320 55 394 82 442 137 c 257
 247 373 l 257
 171 330 120 278 120 193 c 256
220 565 m 256
 220 538 239 504 277 463 c 257
 288 468 299 473 309 479 c 257
 350 501 380 526 380 565 c 256
 380 611 346 645 294 645 c 256
 253 645 220 613 220 565 c 256
EndSplineSet
EndChar

StartChar: asciicircum
Encoding: 94 94 135
GlifName: asciicircum
Width: 402
VWidth: 0
Flags: W
LayerCount: 2
Fore
SplineSet
41 400 m 257
 161 680 l 257
 241 680 l 257
 361 400 l 257
 287 400 l 257
 201 617 l 257
 115 400 l 257
 41 400 l 257
EndSplineSet
EndChar

StartChar: asciitilde
Encoding: 126 126 136
GlifName: asciitilde
Width: 510
VWidth: 0
Flags: W
LayerCount: 2
Fore
SplineSet
50 183 m 257
 74 270 133 303 180 303 c 256
 188 303 196 302 204 301 c 257
 252 293 299 263 340 263 c 256
 369 263 400 271 410 303 c 257
 460 303 l 257
 436 207 387 183 340 183 c 256
 286 183 233 223 180 223 c 257
 180 223 l 257
 180 223 l 257
 153 223 110 211 100 183 c 257
 50 183 l 257
EndSplineSet
EndChar

StartChar: asterisk
Encoding: 42 42 137
GlifName: asterisk
Width: 550
VWidth: 0
Flags: W
LayerCount: 2
Fore
SplineSet
50 200 m 257
 50 280 l 257
 178 280 l 257
 88 371 l 257
 144 427 l 257
 235 337 l 257
 235 465 l 257
 315 465 l 257
 315 337 l 257
 406 427 l 257
 462 371 l 257
 372 280 l 257
 500 280 l 257
 500 200 l 257
 372 200 l 257
 462 109 l 257
 406 53 l 257
 315 143 l 257
 315 15 l 257
 235 15 l 257
 235 143 l 257
 144 53 l 257
 88 109 l 257
 178 200 l 257
 50 200 l 257
EndSplineSet
EndChar

StartChar: at
Encoding: 64 64 138
GlifName: at
Width: 1020
VWidth: 0
Flags: W
LayerCount: 2
Fore
SplineSet
371 290 m 256
 375 196 541 185 567 262 c 258
 593 339 l 258
 625 434 576 453 522 453 c 256
 433 452 368 361 371 290 c 256
206 312 m 256
 210 535 325 624 508 624 c 256
 711 624 818 535 818 367 c 256
 818 249 735 144 643 144 c 256
 586 144 568 197 568 224 c 257
 522 172 354 173 349 288 c 256
 345 388 426 471 522 473 c 256
 558 474 621 455 617 421 c 257
 629 462 l 257
 651 462 l 257
 596 283 l 257
 573 214 599 164 643 164 c 256
 706 164 796 242 796 366 c 256
 796 496 719 604 508 604 c 256
 320 604 232 496 228 313 c 256
 225 153 353 36 508 38 c 256
 581 39 605 50 663 80 c 257
 663 60 l 257
 607 30 581 18 508 18 c 256
 330 18 203 142 206 312 c 256
EndSplineSet
EndChar

StartChar: b
Encoding: 98 98 140
GlifName: b
Width: 491
VWidth: 0
Flags: W
LayerCount: 2
Back
SplineSet
275 -10 m 257
 152 -10 70 87 70 230 c 256
 70 374 152 470 275 470 c 257
 275 450 l 257
 165 450 90 361 90 230 c 256
 90 98 164 10 275 10 c 257
 275 -10 l 257
275 -10 m 257
 275 10 l 257
 386 10 460 98 460 230 c 256
 460 361 385 450 275 450 c 257
 275 470 l 257
 398 470 480 374 480 230 c 256
 480 87 398 -10 275 -10 c 257
EndSplineSet
Fore
SplineSet
70 0 m 257
 70 700 l 257
 90 700 l 257
 90 115 l 257
 78 0 l 257
 70 0 l 257
76 181 m 257
 76 271 l 257
 96 399 170 470 265 470 c 256
 376 470 464 377 464 235 c 256
 464 75 351 -10 265 -10 c 256
 184 -10 93 48 76 181 c 257
90 226 m 258
 90 76 196 10 265 10 c 256
 348 10 444 87 444 235 c 256
 444 373 365 450 265 450 c 256
 179 450 90 359 90 252 c 258
 90 226 l 258
EndSplineSet
Substitution2: "'smcp' Lowercase to Small Capitals lookup 34 subtable" b.sc
EndChar

StartChar: b.sc
Encoding: 365 -1 141
GlifName: b.sc
Width: 437
VWidth: 0
Flags: W
LayerCount: 2
Fore
SplineSet
33 0 m 257
 33 460 l 257
 197 460 l 258
 304 460 361 441 361 337 c 256
 361 301 333 268 280 251 c 257
 349 242 405 218 405 138 c 256
 405 16 313 0 197 0 c 258
 33 0 l 257
113 281 m 257
 200 281 l 258
 260 281 281 297 281 337 c 256
 281 377 260 395 200 395 c 258
 113 395 l 257
 113 281 l 257
113 65 m 257
 197 65 l 258
 260 65 325 78 325 138 c 256
 325 198 266 216 197 216 c 258
 113 216 l 257
 113 65 l 257
EndSplineSet
EndChar

StartChar: backslash
Encoding: 92 92 142
GlifName: backslash
Width: 558
VWidth: 0
Flags: HW
LayerCount: 2
Fore
SplineSet
62 700 m 261
 84 700 l 261
 495 0 l 261
 472 0 l 261
 62 700 l 261
EndSplineSet
EndChar

StartChar: bar
Encoding: 124 124 143
GlifName: bar
Width: 220
VWidth: 0
Flags: W
LayerCount: 2
Fore
SplineSet
70 -80 m 257
 70 780 l 257
 150 780 l 257
 150 -80 l 257
 70 -80 l 257
EndSplineSet
EndChar

StartChar: braceleft
Encoding: 123 123 144
GlifName: braceleft
Width: 324
VWidth: 0
Flags: W
LayerCount: 2
Fore
SplineSet
40 326 m 257
 40 374 l 257
 91 389 110 409 110 468 c 258
 110 615 l 258
 110 774 186 780 284 780 c 257
 284 722 l 257
 212 722 190 701 190 628 c 258
 190 460 l 258
 190 404 164 371 126 348 c 257
 162 330 190 287 190 234 c 258
 190 74 l 258
 190 4 214 -26 284 -26 c 257
 284 -80 l 257
 132 -80 110 -42 110 97 c 258
 110 230 l 258
 110 287 92 312 40 326 c 257
EndSplineSet
EndChar

StartChar: braceright
Encoding: 125 125 145
GlifName: braceright
Width: 324
VWidth: 0
Flags: W
LayerCount: 2
Fore
SplineSet
40 -26 m 257
 124 -26 134 12 134 101 c 258
 134 234 l 258
 134 287 162 330 198 348 c 257
 183 357 169 368 159 381 c 256
 143 401 134 426 134 460 c 258
 134 628 l 258
 134 701 112 722 40 722 c 257
 40 780 l 257
 83 780 146 774 179 749 c 256
 210 725 214 682 214 615 c 258
 214 468 l 258
 214 408 235 389 284 374 c 257
 284 326 l 257
 232 312 214 287 214 230 c 258
 214 97 l 258
 214 -55 180 -80 40 -80 c 257
 40 -26 l 257
EndSplineSet
EndChar

StartChar: bracketleft
Encoding: 91 91 146
GlifName: bracketleft
Width: 360
VWidth: 0
Flags: W
LayerCount: 2
Fore
SplineSet
70 -21 m 258
 70 780 l 257
 290 780 l 257
 290 720 l 257
 150 720 l 257
 150 -21 l 257
 290 -21 l 257
 290 -81 l 257
 70 -81 l 257
 70 -61 70 -41 70 -21 c 258
EndSplineSet
EndChar

StartChar: bracketright
Encoding: 93 93 147
GlifName: bracketright
Width: 360
VWidth: 0
Flags: W
LayerCount: 2
Fore
SplineSet
70 -21 m 257
 210 -21 l 257
 210 720 l 257
 70 720 l 257
 70 780 l 257
 290 780 l 257
 290 -21 l 258
 290 -41 290 -61 290 -81 c 257
 70 -81 l 257
 70 -21 l 257
EndSplineSet
EndChar

StartChar: breve
Encoding: 366 728 148
GlifName: breve
Width: 410
VWidth: 0
Flags: W
AnchorPoint: "top" 205 520 mark 0
LayerCount: 2
Fore
SplineSet
50 660 m 257
 130 660 l 257
 130 600 170 580 205 580 c 256
 240 580 280 600 280 660 c 257
 360 660 l 257
 360 560 285 520 205 520 c 256
 125 520 50 560 50 660 c 257
EndSplineSet
EndChar

StartChar: brokenbar
Encoding: 367 166 149
GlifName: brokenbar
Width: 180
VWidth: 0
Flags: W
LayerCount: 2
Fore
SplineSet
50 -156 m 257
 50 156 l 257
 130 156 l 257
 130 -156 l 257
 50 -156 l 257
50 289 m 257
 50 601 l 257
 130 601 l 257
 130 289 l 257
 50 289 l 257
EndSplineSet
EndChar

StartChar: bullet
Encoding: 368 8226 150
GlifName: bullet
Width: 311
VWidth: 0
Flags: W
LayerCount: 2
Fore
SplineSet
45 311 m 256
 45 373 95 422 156 422 c 256
 216 422 266 373 266 311 c 256
 266 251 216 202 156 202 c 256
 95 202 45 251 45 311 c 256
EndSplineSet
EndChar

StartChar: c
Encoding: 99 99 151
GlifName: c
Width: 510
VWidth: 0
Flags: W
AnchorPoint: "top" 255 520 basechar 0
LayerCount: 2
Fore
SplineSet
50 230 m 256
 50 348 95 470 259 470 c 256
 378 470 437 405 459 320 c 257
 439 320 l 257
 436 335 400 450 259 450 c 256
 112 450 70 335 70 230 c 256
 70 147 104 10 259 10 c 256
 387 10 433 118 440 150 c 257
 460 150 l 257
 440 79 387 -10 259 -10 c 256
 94 -10 50 122 50 230 c 256
EndSplineSet
Substitution2: "'smcp' Lowercase to Small Capitals lookup 34 subtable" c.sc
EndChar

StartChar: c.sc
Encoding: 369 -1 152
GlifName: c.sc
Width: 466
VWidth: 0
Flags: W
LayerCount: 2
Fore
SplineSet
33 230 m 256
 33 368 103 470 237 470 c 256
 348 470 409 408 434 310 c 257
 355 310 l 257
 339 366 307 402 237 402 c 256
 146 402 113 320 113 230 c 256
 113 160 132 92 188 68 c 256
 202 62 218 59 237 59 c 256
 291 59 322 89 342 127 c 257
 425 127 l 257
 400 42 338 -10 241 -10 c 256
 100 -10 33 90 33 230 c 256
EndSplineSet
EndChar

StartChar: caron
Encoding: 371 711 154
GlifName: caron
Width: 340
VWidth: 0
Flags: W
AnchorPoint: "top" 170 520 mark 0
LayerCount: 2
Fore
SplineSet
150 520 m 257
 30 680 l 257
 50 680 l 257
 180 533 l 257
 160 533 l 257
 290 680 l 257
 310 680 l 257
 190 520 l 257
 150 520 l 257
EndSplineSet
EndChar

StartChar: caroncmb.cap
Encoding: 372 -1 155
GlifName: caroncmb.cap
Width: 0
VWidth: 0
AnchorPoint: "aboveUC" -220 700 mark 0
LayerCount: 2
Fore
SplineSet
-360 860 m 257
 -296 860 l 257
 -200 753 l 257
 -240 753 l 257
 -144 860 l 257
 -80 860 l 257
 -180 700 l 257
 -260 700 l 257
 -360 860 l 257
EndSplineSet
EndChar

StartChar: ccedilla
Encoding: 375 231 158
GlifName: ccedilla
Width: 452
VWidth: 0
Flags: W
LayerCount: 2
Fore
SplineSet
139 -167 m 257
 150 -170 169 -173 187 -173 c 257
 189 -173 191 -173 193 -173 c 257
 236 -173 252 -150 252 -121 c 256
 252 -85 201 -73 173 -70 c 257
 204 -3 l 257
 265 -3 l 257
 242 -49 l 257
 265 -57 309 -73 309 -126 c 256
 309 -180 264 -212 209 -212 c 256
 176 -212 147 -202 139 -196 c 257
 139 -167 l 257
34 230 m 256
 34 348 96 470 234 470 c 256
 328 470 399 420 415 334 c 257
 338 333 l 257
 315 369 279 390 233 390 c 256
 164 390 113 328 113 230 c 256
 113 156 148 70 233 70 c 256
 273 70 303 88 324 114 c 257
 416 114 l 257
 377 48 331 -10 234 -10 c 256
 86 -10 34 122 34 230 c 256
EndSplineSet
EndChar

StartChar: cedilla
Encoding: 378 184 161
GlifName: cedilla
Width: 452
VWidth: 0
Flags: W
LayerCount: 2
Fore
SplineSet
141 -164 m 257
 154 -167 175 -170 195 -170 c 256
 236 -170 254 -148 254 -118 c 256
 254 -82 205 -70 175 -67 c 257
 206 0 l 257
 267 0 l 257
 244 -46 l 257
 267 -54 311 -70 311 -123 c 256
 311 -177 266 -209 211 -209 c 256
 178 -209 155 -200 141 -193 c 257
 141 -164 l 257
EndSplineSet
EndChar

StartChar: cent
Encoding: 379 162 162
GlifName: cent
Width: 495
VWidth: 0
Flags: W
LayerCount: 2
Fore
SplineSet
49 228 m 256
 49 448 202 473 253 473 c 256
 258 473 269 473 296 469 c 257
 346 637 l 257
 393 623 l 257
 345 455 l 257
 405 429 426 385 436 353 c 257
 443 326 l 257
 367 314 l 257
 363 333 355 363 326 388 c 257
 229 55 l 257
 237 53 243 52 255 52 c 256
 310 52 362 88 374 169 c 257
 451 160 l 257
 447 140 442 122 435 106 c 256
 395 11 307 -12 256 -12 c 256
 236 -12 223 -9 212 -6 c 257
 161 -178 l 257
 112 -164 l 257
 162 9 l 257
 95 41 49 116 49 228 c 256
129 232 m 256
 129 210 128 116 182 77 c 257
 279 409 l 257
 145 420 129 298 129 232 c 256
EndSplineSet
EndChar

StartChar: circumflex
Encoding: 380 710 163
GlifName: circumflex
Width: 340
VWidth: 0
Flags: W
AnchorPoint: "top" 170 520 mark 0
LayerCount: 2
Fore
SplineSet
30 520 m 257
 150 680 l 257
 190 680 l 257
 310 520 l 257
 290 520 l 257
 160 667 l 257
 180 667 l 257
 50 520 l 257
 30 520 l 257
EndSplineSet
EndChar

StartChar: comma
Encoding: 44 44 165
GlifName: comma
Width: 180
VWidth: 0
Flags: W
LayerCount: 2
Fore
SplineSet
69 0 m 257
 69 80 l 257
 99 80 l 257
 99 4 l 257
 69 -130 l 257
 59 -130 l 257
 84 0 l 257
 69 0 l 257
EndSplineSet
EndChar

StartChar: copyright
Encoding: 381 169 166
GlifName: copyright
Width: 572
VWidth: 0
Flags: W
LayerCount: 2
Fore
SplineSet
178 220 m 256
 178 297 223 352 289 352 c 256
 343 352 375 317 386 266 c 257
 334 266 l 257
 326 296 307 303 288 303 c 256
 257 303 229 276 229 221 c 256
 229 166 256 139 287 139 c 256
 307 139 324 147 334 170 c 257
 381 170 l 257
 386 170 l 257
 372 127 339 89 291 89 c 256
 221 89 178 143 178 220 c 256
50 228 m 256
 50 358 156 464 286 464 c 256
 416 464 522 357 522 226 c 256
 522 96 416 -10 286 -10 c 256
 156 -10 50 97 50 228 c 256
108 228 m 256
 108 129 188 48 286 48 c 256
 384 48 464 128 464 226 c 256
 464 325 384 406 286 406 c 256
 188 406 108 326 108 228 c 256
EndSplineSet
EndChar

StartChar: currency
Encoding: 382 164 167
GlifName: currency
Width: 495
VWidth: 0
Flags: W
LayerCount: 2
Fore
SplineSet
34 154 m 257
 94 213 l 257
 68 255 63 285 63 315 c 256
 63 345 68 376 94 417 c 257
 34 477 l 257
 84 529 l 257
 144 468 l 257
 177 490 217 500 247 500 c 256
 277 500 318 490 351 468 c 257
 411 529 l 257
 461 477 l 257
 400 417 l 257
 427 376 432 345 432 315 c 256
 432 285 427 255 400 213 c 257
 461 154 l 257
 411 102 l 257
 351 163 l 257
 318 141 277 132 247 132 c 256
 217 132 177 141 144 163 c 257
 84 102 l 257
 34 154 l 257
134 316 m 256
 134 256 187 203 247 203 c 256
 307 203 360 256 360 316 c 256
 360 376 307 429 247 429 c 256
 187 429 134 376 134 316 c 256
EndSplineSet
EndChar

StartChar: d
Encoding: 100 100 168
GlifName: d
Width: 491
VWidth: 0
Flags: W
LayerCount: 2
Fore
SplineSet
66 231 m 256
 66 124 126 10 245 10 c 256
 324 10 415 48 415 230 c 256
 415 396 331 451 246 451 c 256
 117 451 66 321 66 231 c 256
46 231 m 256
 46 345 112 471 246 471 c 256
 366 471 416 375 416 341 c 257
 416 700 l 257
 436 700 l 257
 436 0 l 257
 430 0 l 257
 416 122 l 257
 416 76 363 -10 245 -10 c 256
 112 -10 46 125 46 231 c 256
EndSplineSet
Substitution2: "'smcp' Lowercase to Small Capitals lookup 34 subtable" d.sc
EndChar

StartChar: d.sc
Encoding: 383 -1 169
GlifName: d.sc
Width: 475
VWidth: 0
Flags: W
LayerCount: 2
Fore
SplineSet
33 0 m 257
 33 460 l 257
 236 460 l 258
 375 460 443 362 443 230 c 256
 443 96 376 0 236 0 c 258
 33 0 l 257
113 65 m 257
 237 65 l 258
 257 65 274 69 288 76 c 256
 346 104 363 179 363 230 c 256
 363 343 327 395 196 395 c 258
 113 395 l 257
 113 65 l 257
EndSplineSet
EndChar

StartChar: dagger
Encoding: 384 8224 170
GlifName: dagger
Width: 495
VWidth: 0
Flags: W
LayerCount: 2
Fore
SplineSet
35 376 m 257
 35 446 l 257
 208 446 l 257
 218 622 l 257
 277 622 l 257
 287 446 l 257
 460 446 l 257
 460 376 l 257
 287 376 l 257
 287 240 l 257
 277 -150 l 257
 218 -150 l 257
 208 240 l 257
 208 376 l 257
 35 376 l 257
EndSplineSet
EndChar

StartChar: daggerdbl
Encoding: 385 8225 171
GlifName: daggerdbl
Width: 495
VWidth: 0
Flags: W
LayerCount: 2
Fore
SplineSet
35 11 m 257
 35 80 l 257
 208 80 l 257
 218 240 l 257
 208 396 l 257
 35 396 l 257
 35 465 l 257
 208 465 l 257
 218 628 l 257
 277 628 l 257
 287 465 l 257
 459 465 l 257
 459 396 l 257
 287 396 l 257
 277 240 l 257
 287 80 l 257
 460 80 l 257
 460 11 l 257
 287 11 l 257
 277 -150 l 257
 218 -150 l 257
 208 11 l 257
 35 11 l 257
EndSplineSet
EndChar

StartChar: dcaron
Encoding: 386 271 172
GlifName: dcaron
Width: 491
VWidth: 0
Flags: W
LayerCount: 2
Fore
SplineSet
536 490 m 257
 558 620 l 257
 536 620 l 257
 536 700 l 257
 616 700 l 257
 616 620 l 257
 570 490 l 257
 536 490 l 257
35 230 m 257
 36 231 l 257
 36 345 92 471 226 471 c 256
 286 471 338 437 366 381 c 257
 366 700 l 257
 446 700 l 257
 446 0 l 257
 366 0 l 257
 366 72 l 257
 343 21 283 -10 225 -10 c 256
 96 -10 35 100 35 230 c 257
115 230 m 256
 115 123 156 55 245 55 c 256
 324 55 365 123 365 230 c 256
 365 321 330 405 245 405 c 256
 135 405 115 305 115 230 c 256
EndSplineSet
EndChar

StartChar: dcroat
Encoding: 387 273 173
GlifName: dcroat
Width: 491
VWidth: 0
Flags: W
LayerCount: 2
Fore
SplineSet
115 230 m 256
 115 132 166 70 245 70 c 256
 314 70 365 132 365 230 c 256
 365 304 330 390 245 390 c 256
 222 390 202 385 186 375 c 256
 137 346 115 282 115 230 c 256
35 230 m 257
 36 231 l 257
 36 345 102 471 226 471 c 256
 286 471 338 437 366 381 c 257
 366 530 l 257
 250 530 l 257
 250 610 l 257
 366 610 l 257
 366 700 l 257
 446 700 l 257
 446 610 l 257
 490 610 l 257
 490 530 l 257
 446 530 l 257
 446 0 l 257
 366 0 l 257
 366 72 l 257
 343 21 283 -10 225 -10 c 256
 95 -10 35 111 35 230 c 257
EndSplineSet
EndChar

StartChar: degree
Encoding: 388 176 174
GlifName: degree
Width: 356
VWidth: 0
Flags: W
LayerCount: 2
Fore
SplineSet
58 525 m 256
 58 592 111 645 178 645 c 256
 245 645 298 591 298 525 c 256
 298 457 244 404 178 404 c 256
 112 404 58 457 58 525 c 256
113 525 m 256
 113 484 142 459 178 459 c 256
 213 459 243 484 243 525 c 256
 243 565 214 590 178 590 c 256
 142 590 113 565 113 525 c 256
EndSplineSet
EndChar

StartChar: dieresis
Encoding: 389 168 175
GlifName: dieresis
Width: 338
VWidth: 0
Flags: W
AnchorPoint: "aboveUC" 169 500 mark 0
AnchorPoint: "aboveLC" 169 480 mark 0
LayerCount: 2
Fore
SplineSet
50 520 m 257
 50 600 l 257
 130 600 l 257
 130 520 l 257
 50 520 l 257
208 520 m 257
 208 600 l 257
 288 600 l 257
 288 520 l 257
 208 520 l 257
EndSplineSet
EndChar

StartChar: divide
Encoding: 390 247 176
GlifName: divide
Width: 520
VWidth: 0
Flags: W
LayerCount: 2
Fore
SplineSet
49 282 m 257
 49 347 l 257
 471 347 l 257
 471 282 l 257
 49 282 l 257
220 139 m 257
 220 219 l 257
 300 219 l 257
 300 139 l 257
 220 139 l 257
220 409 m 257
 220 489 l 257
 300 489 l 257
 300 409 l 257
 220 409 l 257
EndSplineSet
EndChar

StartChar: dollar
Encoding: 36 36 177
GlifName: dollar
Width: 855
VWidth: 0
Flags: HW
LayerCount: 2
Fore
SplineSet
401 -80 m 257
 421 -80 l 257
 421 780 l 257
 401 780 l 257
 401 -80 l 257
640 171 m 256
 640 282 557.507584597 334.929988331 441 351 c 258
 383 359 l 258
 281.889148191 372.946324387 221 421 221 536 c 256
 221 631 301 688 401 688 c 258
 408 688 l 257
 408 708 l 257
 401 708 l 258
 281 708 199 646 199 536 c 256
 199 408 259.098706603 354.750170184 394 337 c 258
 432 332 l 258
 524.290253328 322.386431945 618.889648438 276 618 171 c 256
 617 53 491 9 421 9 c 258
 418 9 l 257
 418 -11 l 257
 421 -11 l 258
 509 -11 640 40 640 171 c 256
418 688 m 257
 420 688 l 258
 532 688 618 613 617 522 c 257
 639 522 l 257
 639 638 536 708 420 708 c 258
 418 708 l 257
 418 688 l 257
405 9 m 257
 406 9 l 258
 302 9 210 92 210 194 c 257
 188 194 l 257
 191 65 296 -11 402 -11 c 258
 405 -11 l 257
 405 9 l 257
EndSplineSet
EndChar

StartChar: dotaccent
Encoding: 391 729 178
GlifName: dotaccent
Width: 180
VWidth: 0
Flags: W
AnchorPoint: "top" 90 520 mark 0
LayerCount: 2
Fore
SplineSet
80 520 m 257
 80 600 l 257
 100 600 l 257
 100 520 l 257
 80 520 l 257
EndSplineSet
EndChar

StartChar: dotlessi
Encoding: 392 305 179
GlifName: dotlessi
Width: 220
VWidth: 0
Flags: W
AnchorPoint: "aboveLC" 110 520 basechar 0
LayerCount: 2
Fore
SplineSet
100 0 m 257
 100 460 l 257
 120 460 l 257
 120 0 l 257
 100 0 l 257
EndSplineSet
EndChar

StartChar: e
Encoding: 101 101 180
GlifName: e
Width: 518
VWidth: 0
Flags: W
AnchorPoint: "top" 260 520 basechar 0
LayerCount: 2
Fore
SplineSet
102 254 m 257
 418 254 l 257
 418 254 420 450 259 450 c 256
 102 450 102 254 102 254 c 257
82 240 m 256
 82 335 119 470 259 470 c 256
 399 470 438 339 438 244 c 258
 438 234 l 257
 102 234 l 257
 102 100 146 10 259 10 c 256
 388 10 408 108 408 142 c 257
 428 142 l 257
 428 101 402 -10 259 -10 c 256
 115 -10 82 120 82 240 c 256
EndSplineSet
Substitution2: "'smcp' Lowercase to Small Capitals lookup 34 subtable" e.sc
EndChar

StartChar: e.sc
Encoding: 393 -1 181
GlifName: e.sc
Width: 355
VWidth: 0
Flags: W
LayerCount: 2
Fore
SplineSet
33 0 m 257
 33 460 l 257
 323 460 l 257
 323 395 l 257
 113 395 l 257
 113 267 l 257
 297 267 l 257
 297 202 l 257
 113 202 l 257
 113 65 l 257
 323 65 l 257
 323 0 l 257
 33 0 l 257
EndSplineSet
EndChar

StartChar: eight
Encoding: 56 56 189
GlifName: eight
Width: 553
VWidth: 0
Flags: W
LayerCount: 2
Fore
SplineSet
40 200 m 256
 40 290 89 341 140 370 c 257
 114 380 50 407 50 527 c 256
 50 630 136 710 265 710 c 256
 411 710 480 630 480 527 c 256
 480 407 423 386 367 370 c 257
 436 342 493 290 493 200 c 256
 493 70 415 -10 265 -10 c 256
 115 -10 40 70 40 200 c 256
129 205 m 256
 129 115 175 70 265 70 c 256
 355 70 404 115 404 205 c 256
 404 296 352 338 265 339 c 256
 187 339 129 280 129 205 c 256
140 520 m 256
 140 460 175 403 265 403 c 256
 355 403 390 460 390 520 c 256
 390 580 355 630 265 630 c 256
 175 630 140 580 140 520 c 256
EndSplineSet
Substitution2: "Single Substitution lookup 29 subtable" eight.dnom
Substitution2: "Single Substitution lookup 27 subtable" eight.numr
Substitution2: "Single Substitution lookup 25 subtable" eight.numr
Substitution2: "Single Substitution lookup 23 subtable" eight.numr
Substitution2: "Single Substitution lookup 21 subtable" eight.numr
Substitution2: "Single Substitution lookup 19 subtable" eight.numr
Substitution2: "Single Substitution lookup 17 subtable" eight.numr
Substitution2: "Single Substitution lookup 15 subtable" eight.numr
Substitution2: "Single Substitution lookup 13 subtable" eight.numr
Substitution2: "Single Substitution lookup 11 subtable" eight.numr
Substitution2: "Single Substitution lookup 9 subtable" eight.numr
Substitution2: "'dnom' Denominators lookup 5 subtable" eight.dnom
Substitution2: "'numr' Numerators lookup 4 subtable" eight.numr
Substitution2: "'subs' Subscript lookup 3 subtable" eight.subscript
Substitution2: "'sups' Superscript lookup 2 subtable" eight.superior
Substitution2: "'sinf' Scientific Inferiors lookup 1 subtable" eight.inferior
EndChar

StartChar: eight.dnom
Encoding: 401 -1 190
GlifName: eight.dnom
Width: 390
VWidth: 0
Flags: W
LayerCount: 2
Fore
SplineSet
27 -97 m 256
 27 -37 63 -3 101 16 c 257
 82 23 35 40 35 121 c 256
 35 190 96 244 188 244 c 256
 292 244 341 190 341 121 c 256
 341 40 298 27 257 16 c 257
 308 -3 351 -37 351 -97 c 256
 351 -183 295 -237 188 -237 c 256
 167 -237 147 -235 130 -231 c 256
 61 -214 27 -166 27 -97 c 256
94 -92 m 256
 94 -149 126 -177 188 -177 c 256
 250 -177 284 -149 284 -92 c 256
 284 -35 248 -9 188 -8 c 256
 134 -8 94 -45 94 -92 c 256
103 115 m 256
 103 77 127 41 188 41 c 256
 249 41 273 77 273 115 c 256
 273 124 271 134 268 142 c 256
 258 167 234 184 188 184 c 256
 127 184 103 153 103 115 c 256
EndSplineSet
EndChar

StartChar: eight.inferior
Encoding: 402 -1 191
GlifName: eight.inferior
Width: 390
VWidth: 0
Flags: W
LayerCount: 2
Fore
SplineSet
27 -327 m 256
 27 -267 63 -233 101 -214 c 257
 82 -207 35 -190 35 -109 c 256
 35 -40 96 14 188 14 c 256
 292 14 341 -40 341 -109 c 256
 341 -190 298 -203 257 -214 c 257
 308 -233 351 -267 351 -327 c 256
 351 -413 295 -467 188 -467 c 256
 167 -467 147 -465 130 -461 c 256
 61 -444 27 -396 27 -327 c 256
94 -322 m 256
 94 -379 126 -407 188 -407 c 256
 250 -407 284 -379 284 -322 c 256
 284 -265 248 -239 188 -238 c 256
 134 -238 94 -275 94 -322 c 256
103 -115 m 256
 103 -153 127 -189 188 -189 c 256
 249 -189 273 -153 273 -115 c 256
 273 -106 271 -96 268 -88 c 256
 258 -63 234 -46 188 -46 c 256
 127 -46 103 -77 103 -115 c 256
EndSplineSet
EndChar

StartChar: eight.numr
Encoding: 403 -1 192
GlifName: eight.numr
Width: 390
VWidth: 0
Flags: W
LayerCount: 2
Fore
SplineSet
27 363 m 256
 27 423 63 457 101 476 c 257
 82 483 35 500 35 581 c 256
 35 650 96 704 188 704 c 256
 292 704 341 650 341 581 c 256
 341 500 298 487 257 476 c 257
 308 457 351 423 351 363 c 256
 351 277 295 223 188 223 c 256
 167 223 147 225 130 229 c 256
 61 246 27 294 27 363 c 256
94 368 m 256
 94 311 126 283 188 283 c 256
 250 283 284 311 284 368 c 256
 284 425 248 451 188 452 c 256
 134 452 94 415 94 368 c 256
103 575 m 256
 103 537 127 501 188 501 c 256
 249 501 273 537 273 575 c 256
 273 584 271 594 268 602 c 256
 258 627 234 644 188 644 c 256
 127 644 103 613 103 575 c 256
EndSplineSet
EndChar

StartChar: eight.subscript
Encoding: 404 -1 193
GlifName: eight.subscript
Width: 390
VWidth: 0
Flags: W
LayerCount: 2
Fore
SplineSet
27 -189 m 256
 27 -129 63 -95 101 -76 c 257
 82 -69 35 -52 35 29 c 256
 35 98 96 152 188 152 c 256
 292 152 341 98 341 29 c 256
 341 -52 298 -65 257 -76 c 257
 308 -95 351 -129 351 -189 c 256
 351 -275 295 -329 188 -329 c 256
 167 -329 147 -327 130 -323 c 256
 61 -306 27 -258 27 -189 c 256
94 -184 m 256
 94 -241 126 -269 188 -269 c 256
 250 -269 284 -241 284 -184 c 256
 284 -127 248 -101 188 -100 c 256
 134 -100 94 -137 94 -184 c 256
103 23 m 256
 103 -15 127 -51 188 -51 c 256
 249 -51 273 -15 273 23 c 256
 273 32 271 42 268 50 c 256
 258 75 234 92 188 92 c 256
 127 92 103 61 103 23 c 256
EndSplineSet
EndChar

StartChar: eight.superior
Encoding: 405 -1 194
GlifName: eight.superior
Width: 390
VWidth: 0
Flags: W
LayerCount: 2
Fore
SplineSet
27 547 m 256
 27 607 63 641 101 660 c 257
 82 667 35 684 35 765 c 256
 35 834 96 888 188 888 c 256
 292 888 341 834 341 765 c 256
 341 684 298 671 257 660 c 257
 308 641 351 607 351 547 c 256
 351 461 295 407 188 407 c 256
 167 407 147 409 130 413 c 256
 61 430 27 478 27 547 c 256
94 552 m 256
 94 495 126 467 188 467 c 256
 250 467 284 495 284 552 c 256
 284 609 248 635 188 636 c 256
 134 636 94 599 94 552 c 256
103 759 m 256
 103 721 127 685 188 685 c 256
 249 685 273 721 273 759 c 256
 273 768 271 778 268 786 c 256
 258 811 234 828 188 828 c 256
 127 828 103 797 103 759 c 256
EndSplineSet
EndChar

StartChar: ellipsis
Encoding: 406 8230 195
GlifName: ellipsis
Width: 560
VWidth: 0
Flags: W
LayerCount: 2
Fore
SplineSet
50 0 m 257
 50 80 l 257
 130 80 l 257
 130 0 l 257
 50 0 l 257
240 0 m 257
 240 80 l 257
 320 80 l 257
 320 0 l 257
 240 0 l 257
430 0 m 257
 430 80 l 257
 510 80 l 257
 510 0 l 257
 430 0 l 257
EndSplineSet
EndChar

StartChar: emdash
Encoding: 408 8212 197
GlifName: emdash
Width: 550
VWidth: 0
Flags: W
LayerCount: 2
Fore
SplineSet
50 210 m 257
 50 275 l 257
 500 275 l 257
 500 210 l 257
 50 210 l 257
EndSplineSet
EndChar

StartChar: endash
Encoding: 409 8211 198
GlifName: endash
Width: 450
VWidth: 0
Flags: W
LayerCount: 2
Fore
SplineSet
50 210 m 257
 50 275 l 257
 400 275 l 257
 400 210 l 257
 50 210 l 257
EndSplineSet
EndChar

StartChar: eng
Encoding: 410 331 199
GlifName: eng
Width: 478
VWidth: 0
Flags: W
LayerCount: 2
Fore
SplineSet
46 0 m 257
 46 460 l 257
 126 460 l 257
 126 370 l 257
 167 417 237 470 307 470 c 256
 428 470 433 382 433 300 c 258
 433 -62 l 258
 433 -139 366 -200 303 -200 c 258
 283 -200 l 257
 283 -120 l 257
 367 -120 353 -46 353 12 c 258
 353 270 l 258
 353 353 353 405 287 405 c 256
 223 405 125 343 125 230 c 256
 125 153 125 77 125 0 c 257
 46 0 l 257
EndSplineSet
EndChar

StartChar: eogonek
Encoding: 411 281 200
GlifName: eogonek
Width: 471
VWidth: 0
Flags: W
LayerCount: 2
Fore
SplineSet
141 -130 m 256
 141 -76 179 -31 212 -6 c 257
 270 -6 l 257
 227 -38 202 -75 202 -114 c 256
 202 -145 224 -160 248 -160 c 256
 264 -160 277 -155 288 -147 c 257
 310 -188 l 257
 291 -203 256 -215 231 -215 c 256
 181 -215 141 -186 141 -130 c 256
34 240 m 256
 34 348 95 470 240 470 c 256
 379 470 435 350 435 210 c 257
 119 210 l 257
 126 141 157 70 241 70 c 256
 285 70 332 88 355 114 c 257
 416 98 l 257
 400 58 342 -10 240 -10 c 256
 84 -10 34 122 34 240 c 256
119 290 m 257
 358 290 l 257
 345 358 310 390 240 390 c 256
 181 390 129 353 119 290 c 257
EndSplineSet
EndChar

StartChar: equal
Encoding: 61 61 201
GlifName: equal
Width: 450
VWidth: 0
Flags: W
LayerCount: 2
Fore
SplineSet
50 173 m 257
 50 195 l 257
 400 195 l 257
 400 173 l 257
 50 173 l 257
50 285 m 257
 50 307 l 257
 400 307 l 257
 400 285 l 257
 50 285 l 257
EndSplineSet
EndChar

StartChar: exclam
Encoding: 33 33 202
GlifName: exclam
Width: 190
VWidth: 0
Flags: W
LayerCount: 2
Fore
SplineSet
84 330 m 257
 84 686 l 257
 106 686 l 257
 106 330 l 257
 101 60 l 257
 89 60 l 257
 84 330 l 257
85 0 m 257
 85 20 l 257
 105 20 l 257
 105 0 l 257
 85 0 l 257
EndSplineSet
EndChar

StartChar: exclamdown
Encoding: 412 161 203
GlifName: exclamdown
Width: 190
VWidth: 0
Flags: W
LayerCount: 2
Fore
SplineSet
50 50 m 257
 70 310 l 257
 120 310 l 257
 140 50 l 257
 140 -240 l 257
 50 -240 l 257
 50 50 l 257
55 380 m 257
 55 460 l 257
 135 460 l 257
 135 380 l 257
 55 380 l 257
EndSplineSet
EndChar

StartChar: f
Encoding: 102 102 204
GlifName: f
Width: 265
VWidth: 0
Flags: W
LayerCount: 2
Fore
SplineSet
35 442 m 257
 35 460 l 257
 110 460 l 257
 110 570 l 258
 110 652 143 700 200 700 c 258
 230 700 l 257
 230 682 l 257
 203 682 l 258
 154 682 130 644 130 564 c 258
 130 460 l 257
 214 460 l 257
 214 442 l 257
 130 442 l 257
 130 0 l 257
 110 0 l 257
 110 442 l 257
 35 442 l 257
EndSplineSet
Substitution2: "'smcp' Lowercase to Small Capitals lookup 34 subtable" f.sc
EndChar

StartChar: f.sc
Encoding: 413 -1 205
GlifName: f.sc
Width: 355
VWidth: 0
Flags: W
LayerCount: 2
Fore
SplineSet
33 0 m 257
 33 460 l 257
 323 460 l 257
 323 395 l 257
 113 395 l 257
 113 260 l 257
 297 260 l 257
 297 195 l 257
 113 195 l 257
 113 0 l 257
 33 0 l 257
EndSplineSet
EndChar

StartChar: five
Encoding: 53 53 206
GlifName: five
Width: 528
VWidth: 0
Flags: W
LayerCount: 2
Fore
SplineSet
68 148 m 257
 90 148 l 257
 90 135 152 12 270 12 c 256
 388 12 466 126 466 246 c 256
 466 378 370 471 270 471 c 256
 195 471 142 417 142 415 c 257
 121 415 l 257
 121 700 l 257
 422 700 l 257
 422 678 l 257
 143 678 l 257
 142 423 l 257
 143 423 125 419 126 419 c 257
 116 427 179 493 270 493 c 256
 386 493 488 386 488 246 c 256
 488 99 389 -10 270 -10 c 256
 138 -10 68 124 68 148 c 257
EndSplineSet
Substitution2: "Single Substitution lookup 29 subtable" five.dnom
Substitution2: "Single Substitution lookup 27 subtable" five.numr
Substitution2: "Single Substitution lookup 25 subtable" five.numr
Substitution2: "Single Substitution lookup 23 subtable" five.numr
Substitution2: "Single Substitution lookup 21 subtable" five.numr
Substitution2: "Single Substitution lookup 19 subtable" five.numr
Substitution2: "Single Substitution lookup 17 subtable" five.numr
Substitution2: "Single Substitution lookup 15 subtable" five.numr
Substitution2: "Single Substitution lookup 13 subtable" five.numr
Substitution2: "Single Substitution lookup 11 subtable" five.numr
Substitution2: "Single Substitution lookup 9 subtable" five.numr
Substitution2: "'dnom' Denominators lookup 5 subtable" five.dnom
Substitution2: "'numr' Numerators lookup 4 subtable" five.numr
Substitution2: "'subs' Subscript lookup 3 subtable" five.subscript
Substitution2: "'sups' Superscript lookup 2 subtable" five.superior
Substitution2: "'sinf' Scientific Inferiors lookup 1 subtable" five.inferior
EndChar

StartChar: five.dnom
Encoding: 414 -1 207
GlifName: five.dnom
Width: 366
VWidth: 0
Flags: W
LayerCount: 2
Fore
SplineSet
35 -128 m 257
 95 -128 l 257
 105 -158 130 -177 181 -177 c 256
 244 -177 273 -117 273 -63 c 256
 273 16 233 44 202 44 c 256
 160 44 112 24 104 -32 c 257
 37 -34 l 257
 37 237 l 257
 290 237 l 257
 290 184 l 257
 102 184 l 257
 102 33 l 257
 103 33 103 33 104 33 c 257
 122 72 159 100 207 100 c 256
 288 100 340 33 340 -67 c 256
 340 -162 274 -237 184 -237 c 256
 98 -237 53 -194 35 -128 c 257
EndSplineSet
EndChar

StartChar: five.inferior
Encoding: 415 -1 208
GlifName: five.inferior
Width: 366
VWidth: 0
Flags: W
LayerCount: 2
Fore
SplineSet
35 -358 m 257
 95 -358 l 257
 105 -388 130 -407 181 -407 c 256
 244 -407 273 -347 273 -293 c 256
 273 -214 233 -186 202 -186 c 257
 156 -188 111 -208 104 -262 c 257
 37 -264 l 257
 37 7 l 257
 290 7 l 257
 290 -46 l 257
 102 -46 l 257
 102 -197 l 257
 103 -197 103 -197 104 -197 c 257
 122 -158 159 -130 207 -130 c 256
 288 -130 340 -197 340 -297 c 256
 340 -392 274 -467 184 -467 c 256
 98 -467 53 -424 35 -358 c 257
EndSplineSet
EndChar

StartChar: five.numr
Encoding: 416 -1 209
GlifName: five.numr
Width: 366
VWidth: 0
Flags: W
LayerCount: 2
Fore
SplineSet
35 332 m 257
 95 332 l 257
 105 302 130 283 181 283 c 256
 244 283 273 343 273 397 c 256
 273 476 233 504 202 504 c 257
 156 502 111 482 104 428 c 257
 37 426 l 257
 37 697 l 257
 290 697 l 257
 290 644 l 257
 102 644 l 257
 102 493 l 257
 103 493 103 493 104 493 c 257
 122 532 159 560 207 560 c 256
 288 560 340 493 340 393 c 256
 340 298 274 223 184 223 c 256
 98 223 53 266 35 332 c 257
EndSplineSet
EndChar

StartChar: five.subscript
Encoding: 417 -1 210
GlifName: five.subscript
Width: 366
VWidth: 0
Flags: W
LayerCount: 2
Fore
SplineSet
35 -220 m 257
 95 -220 l 257
 105 -250 130 -269 181 -269 c 256
 244 -269 273 -209 273 -155 c 256
 273 -76 233 -48 202 -48 c 256
 160 -48 112 -68 104 -124 c 257
 37 -126 l 257
 37 145 l 257
 290 145 l 257
 290 92 l 257
 102 92 l 257
 102 -59 l 257
 103 -59 103 -59 104 -59 c 257
 122 -20 159 8 207 8 c 256
 288 8 340 -59 340 -159 c 256
 340 -254 274 -329 184 -329 c 256
 98 -329 53 -286 35 -220 c 257
EndSplineSet
EndChar

StartChar: five.superior
Encoding: 418 -1 211
GlifName: five.superior
Width: 366
VWidth: 0
Flags: W
LayerCount: 2
Fore
SplineSet
35 516 m 257
 95 516 l 257
 105 486 130 467 181 467 c 256
 244 467 273 527 273 581 c 256
 273 660 233 688 202 688 c 257
 156 686 111 666 104 612 c 257
 37 610 l 257
 37 881 l 257
 290 881 l 257
 290 828 l 257
 102 828 l 257
 102 677 l 257
 103 677 103 677 104 677 c 257
 122 716 159 744 207 744 c 256
 288 744 340 677 340 577 c 256
 340 482 274 407 184 407 c 256
 98 407 53 450 35 516 c 257
EndSplineSet
EndChar

StartChar: florin
Encoding: 419 402 212
GlifName: florin
Width: 495
VWidth: 0
Flags: W
LayerCount: 2
Fore
SplineSet
22 -176 m 257
 36 -109 l 257
 65 -114 l 258
 82 -117 94 -118 103 -118 c 256
 159 -118 157 -60 164 -20 c 258
 236 392 l 257
 149 392 l 257
 158 452 l 257
 247 452 l 257
 256 511 l 258
 264 558 276 620 342 636 c 257
 353 639 366 640 380 640 c 256
 415 640 440 631 465 625 c 258
 473 623 l 257
 458 556 l 257
 427 563 412 567 392 567 c 256
 381 567 374 566 367 563 c 256
 347 554 342 532 335 498 c 258
 326 452 l 257
 415 452 l 257
 409 422 l 257
 409 422 l 257
 404 392 l 257
 315 392 l 257
 238 -43 l 257
 221 -127 210 -172 151 -184 c 256
 141 -186 131 -187 119 -187 c 256
 113 -187 78 -187 22 -176 c 257
EndSplineSet
EndChar

StartChar: four
Encoding: 52 52 213
GlifName: four
Width: 521
VWidth: 0
Flags: W
LayerCount: 2
Fore
SplineSet
64 234 m 257
 64 255 l 257
 385 700 l 257
 405 700 l 257
 405 0 l 257
 385 0 l 257
 385 689 l 257
 400 689 l 257
 76 238 l 257
 76 255 l 257
 465 255 l 257
 465 234 l 257
 64 234 l 257
EndSplineSet
Substitution2: "Single Substitution lookup 29 subtable" four.dnom
Substitution2: "Single Substitution lookup 27 subtable" four.numr
Substitution2: "Single Substitution lookup 25 subtable" four.numr
Substitution2: "Single Substitution lookup 23 subtable" four.numr
Substitution2: "Single Substitution lookup 21 subtable" four.numr
Substitution2: "Single Substitution lookup 19 subtable" four.numr
Substitution2: "Single Substitution lookup 17 subtable" four.numr
Substitution2: "Single Substitution lookup 15 subtable" four.numr
Substitution2: "Single Substitution lookup 13 subtable" four.numr
Substitution2: "Single Substitution lookup 11 subtable" four.numr
Substitution2: "Single Substitution lookup 9 subtable" four.numr
Substitution2: "'dnom' Denominators lookup 5 subtable" four.dnom
Substitution2: "'numr' Numerators lookup 4 subtable" four.numr
Substitution2: "'subs' Subscript lookup 3 subtable" four.subscript
Substitution2: "'sups' Superscript lookup 2 subtable" four.superior
Substitution2: "'sinf' Scientific Inferiors lookup 1 subtable" four.inferior
EndChar

StartChar: four.dnom
Encoding: 420 -1 214
GlifName: four.dnom
Width: 355
VWidth: 0
Flags: W
LayerCount: 2
Fore
SplineSet
33 -63 m 257
 212 237 l 257
 314 237 l 257
 314 -55 l 257
 354 -55 l 257
 354 -116 l 257
 314 -116 l 257
 314 -230 l 257
 246 -230 l 257
 246 -116 l 257
 33 -116 l 257
 33 -63 l 257
93 -55 m 257
 246 -55 l 257
 246 179 l 257
 240 179 l 257
 93 -55 l 257
EndSplineSet
EndChar

StartChar: four.inferior
Encoding: 421 -1 215
GlifName: four.inferior
Width: 355
VWidth: 0
Flags: W
LayerCount: 2
Fore
SplineSet
33 -293 m 257
 212 7 l 257
 314 7 l 257
 314 -285 l 257
 354 -285 l 257
 354 -346 l 257
 314 -346 l 257
 314 -460 l 257
 246 -460 l 257
 246 -346 l 257
 33 -346 l 257
 33 -293 l 257
93 -285 m 257
 246 -285 l 257
 246 -51 l 257
 240 -51 l 257
 93 -285 l 257
EndSplineSet
EndChar

StartChar: four.numr
Encoding: 422 -1 216
GlifName: four.numr
Width: 355
VWidth: 0
Flags: W
LayerCount: 2
Fore
SplineSet
33 344 m 257
 33 397 l 257
 212 697 l 257
 314 697 l 257
 314 405 l 257
 354 405 l 257
 354 344 l 257
 314 344 l 257
 314 230 l 257
 246 230 l 257
 246 344 l 257
 33 344 l 257
93 405 m 257
 246 405 l 257
 246 639 l 257
 240 639 l 257
 93 405 l 257
EndSplineSet
EndChar

StartChar: four.subscript
Encoding: 423 -1 217
GlifName: four.subscript
Width: 355
VWidth: 0
Flags: W
LayerCount: 2
Fore
SplineSet
33 -155 m 257
 212 145 l 257
 314 145 l 257
 314 -147 l 257
 354 -147 l 257
 354 -208 l 257
 314 -208 l 257
 314 -322 l 257
 246 -322 l 257
 246 -208 l 257
 33 -208 l 257
 33 -155 l 257
93 -147 m 257
 246 -147 l 257
 246 87 l 257
 221 87 117 -109 93 -147 c 257
EndSplineSet
EndChar

StartChar: four.superior
Encoding: 424 -1 218
GlifName: four.superior
Width: 355
VWidth: 0
Flags: W
LayerCount: 2
Fore
SplineSet
33 528 m 257
 33 581 l 257
 212 881 l 257
 314 881 l 257
 314 589 l 257
 354 589 l 257
 354 528 l 257
 314 528 l 257
 314 414 l 257
 246 414 l 257
 246 528 l 257
 33 528 l 257
93 589 m 257
 246 589 l 257
 246 823 l 257
 240 823 l 257
 93 589 l 257
EndSplineSet
EndChar

StartChar: fraction
Encoding: 425 8260 219
GlifName: fraction
Width: 555
VWidth: 0
Flags: W
LayerCount: 2
Fore
SplineSet
30 0 m 257
 441 700 l 257
 528 700 l 257
 121 0 l 257
 30 0 l 257
EndSplineSet
EndChar

StartChar: g
Encoding: 103 103 220
GlifName: g
Width: 492
VWidth: 0
Flags: W
AnchorPoint: "top" 241 520 basechar 0
LayerCount: 2
Fore
SplineSet
66 231 m 256
 66 124 126 10 245 10 c 256
 324 10 415 48 415 230 c 258
 415 240 l 258
 415 398 329 451 246 451 c 256
 117 451 66 321 66 231 c 256
46 231 m 256
 46 345 112 471 246 471 c 256
 334 471 419 395 419 314 c 257
 415 329 l 257
 422 460 l 257
 436 460 l 257
 436 90 l 257
 416 90 l 257
 416 134 l 257
 420 134 l 257
 420 90 369 -10 245 -10 c 256
 112 -10 46 125 46 231 c 256
436 90 m 257
 436 -7 l 258
 436 -139 381 -200 261 -200 c 256
 158 -200 97 -128 87 -76 c 257
 107 -76 l 257
 118 -126 176 -182 261 -182 c 256
 367 -182 416 -126 416 -7 c 258
 416 90 l 257
 436 90 l 257
EndSplineSet
Substitution2: "'smcp' Lowercase to Small Capitals lookup 34 subtable" g.sc
EndChar

StartChar: g.sc
Encoding: 426 -1 221
GlifName: g.sc
Width: 468
VWidth: 0
Flags: W
LayerCount: 2
Fore
SplineSet
33 230 m 256
 33 368 104 470 238 470 c 256
 330 470 390 430 421 362 c 256
 427 348 432 334 436 318 c 257
 357 318 l 257
 340 371 308 405 238 405 c 256
 220 405 204 401 190 395 c 256
 134 370 113 302 113 230 c 256
 113 141 143 55 236 55 c 256
 306 55 348 91 348 143 c 257
 236 143 l 257
 236 215 l 257
 427 215 l 257
 427 0 l 257
 348 0 l 257
 348 37 l 257
 318 7 280 -10 233 -10 c 256
 97 -10 33 90 33 230 c 256
EndSplineSet
EndChar

StartChar: gcommaaccent
Encoding: 430 291 225
GlifName: gcommaaccent
Width: 491
VWidth: 0
Flags: W
LayerCount: 2
Fore
SplineSet
185 520 m 257
 185 600 l 257
 231 730 l 257
 265 730 l 257
 243 600 l 257
 265 600 l 257
 265 520 l 257
 185 520 l 257
115 230 m 256
 115 155 141 55 245 55 c 256
 330 55 366 138 366 210 c 258
 366 245 l 258
 366 347 310 405 245 405 c 256
 156 405 115 337 115 230 c 256
35 230 m 257
 35 355 96 470 225 470 c 256
 283 470 343 439 366 388 c 257
 366 459 l 257
 446 459 l 257
 446 17 l 258
 446 -148 368 -200 257 -200 c 256
 131 -200 83 -119 71 -74 c 257
 154 -60 l 257
 172 -107 220 -122 254 -122 c 256
 257 -122 260 -122 263 -122 c 257
 320 -116 366 -85 366 17 c 258
 366 79 l 257
 338 23 285 -11 226 -11 c 256
 97 -11 36 105 36 229 c 257
 35 230 l 257
EndSplineSet
EndChar

StartChar: germandbls
Encoding: 432 223 227
GlifName: germandbls
Width: 536
VWidth: 0
Flags: W
LayerCount: 2
Fore
SplineSet
45 -30 m 257
 45 492 l 258
 45 604 116 700 248 700 c 256
 378 700 458 628 458 518 c 256
 458 421 391 387 365 370 c 257
 445 347 491 255 491 190 c 256
 491 48 382 -10 239 -10 c 256
 211 -10 200 -8 186 -4 c 257
 186 63 l 257
 201 58 216 55 230 55 c 256
 253 55 274 56 293 60 c 256
 369 74 411 117 411 190 c 256
 411 292 338 327 230 327 c 258
 214 327 l 257
 214 397 l 257
 246 397 272 400 293 406 c 256
 357 424 378 466 378 510 c 256
 378 583 334 635 247 635 c 256
 150 635 125 573 125 480 c 258
 125 -30 l 257
 45 -30 l 257
EndSplineSet
EndChar

StartChar: grave
Encoding: 96 96 228
GlifName: grave
Width: 230
VWidth: 0
Flags: W
LayerCount: 2
Fore
SplineSet
50 670 m 257
 90 670 l 257
 144 490 l 257
 126 490 l 257
 50 670 l 257
EndSplineSet
EndChar

StartChar: greater
Encoding: 62 62 230
GlifName: greater
Width: 514
VWidth: 0
Flags: W
LayerCount: 2
Fore
SplineSet
466 315 m 257
 466 355 l 257
 60 545 l 257
 60 525 l 257
 444 336 l 257
 60 145 l 257
 60 125 l 257
 466 315 l 257
EndSplineSet
EndChar

StartChar: guillemotleft
Encoding: 434 171 231
GlifName: guillemotleft
Width: 495
VWidth: 0
Flags: W
LayerCount: 2
Fore
SplineSet
61 230 m 257
 199 428 l 257
 263 428 l 257
 150 230 l 257
 263 31 l 257
 199 31 l 257
 61 230 l 257
231 230 m 257
 369 428 l 257
 433 428 l 257
 320 230 l 257
 433 31 l 257
 369 31 l 257
 231 230 l 257
EndSplineSet
EndChar

StartChar: guillemotright
Encoding: 435 187 232
GlifName: guillemotright
Width: 495
VWidth: 0
Flags: W
LayerCount: 2
Fore
SplineSet
61 31 m 257
 174 230 l 257
 61 428 l 257
 125 428 l 257
 263 230 l 257
 125 31 l 257
 61 31 l 257
231 31 m 257
 344 230 l 257
 231 428 l 257
 295 428 l 257
 433 230 l 257
 295 31 l 257
 231 31 l 257
EndSplineSet
EndChar

StartChar: guilsinglleft
Encoding: 436 8249 233
GlifName: guilsinglleft
Width: 296
VWidth: 0
Flags: W
LayerCount: 2
Fore
SplineSet
39 230 m 257
 177 428 l 257
 241 428 l 257
 128 230 l 257
 241 31 l 257
 177 31 l 257
 39 230 l 257
EndSplineSet
EndChar

StartChar: guilsinglright
Encoding: 437 8250 234
GlifName: guilsinglright
Width: 296
VWidth: 0
Flags: W
LayerCount: 2
Fore
SplineSet
55 31 m 257
 168 230 l 257
 55 428 l 257
 119 428 l 257
 257 230 l 257
 119 31 l 257
 55 31 l 257
EndSplineSet
EndChar

StartChar: h
Encoding: 104 104 235
GlifName: h
Width: 519
VWidth: 0
Flags: W
LayerCount: 2
Fore
SplineSet
284 470 m 256
 370 470 429 407 429 315 c 258
 429 0 l 257
 409 0 l 257
 409 315 l 258
 409 398 355 454 275 454 c 256
 193 454 110 376 110 300 c 257
 97 300 l 257
 97 341 l 257
 103 341 l 257
 98 338 l 257
 133 417 207 470 284 470 c 256
EndSplineSet
Refer: 259 108 N 1 0 0 1 0 0 2
Substitution2: "'smcp' Lowercase to Small Capitals lookup 34 subtable" h.sc
EndChar

StartChar: h.sc
Encoding: 438 -1 236
GlifName: h.sc
Width: 409
VWidth: 0
Flags: W
LayerCount: 2
Fore
SplineSet
33 0 m 257
 33 460 l 257
 113 460 l 257
 113 265 l 257
 297 265 l 257
 297 460 l 257
 377 460 l 257
 377 0 l 257
 297 0 l 257
 297 200 l 257
 113 200 l 257
 113 0 l 257
 33 0 l 257
EndSplineSet
EndChar

StartChar: hbar
Encoding: 439 295 237
GlifName: hbar
Width: 478
VWidth: 0
Flags: W
LayerCount: 2
Fore
SplineSet
15 530 m 257
 15 610 l 257
 45 610 l 257
 45 700 l 257
 125 700 l 257
 125 610 l 257
 305 610 l 257
 305 530 l 257
 125 530 l 257
 125 380 l 257
 163 422 230 470 295 470 c 256
 413 470 433 384 433 304 c 258
 433 0 l 257
 353 0 l 257
 353 271 l 258
 353 341 353 390 293 390 c 256
 226 390 183 364 126 310 c 257
 126 207 125 103 125 0 c 257
 45 0 l 257
 45 530 l 257
 15 530 l 257
EndSplineSet
EndChar

StartChar: hungarumlaut
Encoding: 441 733 239
GlifName: hungarumlaut
Width: 350
VWidth: 0
Flags: W
AnchorPoint: "top" 145 520 mark 0
LayerCount: 2
Fore
SplineSet
170 520 m 257
 220 680 l 257
 300 680 l 257
 234 520 l 257
 170 520 l 257
50 520 m 257
 100 680 l 257
 180 680 l 257
 114 520 l 257
 50 520 l 257
EndSplineSet
EndChar

StartChar: hyphen
Encoding: 45 45 240
GlifName: hyphen
Width: 320
VWidth: 0
Flags: W
LayerCount: 2
Fore
SplineSet
50 232 m 257
 50 254 l 257
 270 254 l 257
 270 232 l 257
 50 232 l 257
EndSplineSet
EndChar

StartChar: i.sc
Encoding: 442 -1 242
GlifName: i.sc
Width: 145
VWidth: 0
Flags: W
LayerCount: 2
Fore
SplineSet
33 0 m 257
 33 460 l 257
 113 460 l 257
 113 0 l 257
 33 0 l 257
EndSplineSet
EndChar

StartChar: j.sc
Encoding: 452 -1 253
GlifName: j.sc
Width: 208
VWidth: 0
Flags: W
LayerCount: 2
Fore
SplineSet
33 0 m 257
 33 65 l 257
 69 65 l 258
 84 65 97 84 97 108 c 258
 97 460 l 257
 177 460 l 257
 177 91 l 258
 177 37 166 0 94 0 c 258
 33 0 l 257
EndSplineSet
EndChar

StartChar: k
Encoding: 107 107 255
GlifName: k
Width: 379
VWidth: 0
Flags: W
LayerCount: 2
Fore
SplineSet
114 0 m 257
 114 700 l 257
 136 700 l 257
 136 261 l 257
 168 271 l 257
 322 460 l 257
 344 460 l 257
 187 260 l 257
 364 0 l 257
 342 0 l 257
 168 249 l 257
 136 239 l 257
 136 0 l 257
 114 0 l 257
EndSplineSet
Substitution2: "'smcp' Lowercase to Small Capitals lookup 34 subtable" k.sc
EndChar

StartChar: k.sc
Encoding: 454 -1 256
GlifName: k.sc
Width: 409
VWidth: 0
Flags: W
LayerCount: 2
Fore
SplineSet
33 0 m 257
 33 460 l 257
 113 460 l 257
 113 247 l 257
 128 251 144 256 159 260 c 257
 270 460 l 257
 348 460 l 257
 221 230 l 257
 384 0 l 257
 297 0 l 257
 159 209 l 257
 113 196 l 257
 113 0 l 257
 33 0 l 257
EndSplineSet
EndChar

StartChar: kcommaaccent
Encoding: 455 311 257
GlifName: kcommaaccent
Width: 422
VWidth: 0
Flags: W
LayerCount: 2
Fore
SplineSet
183 -60 m 257
 263 -60 l 257
 263 -140 l 257
 217 -270 l 257
 183 -270 l 257
 205 -140 l 257
 183 -140 l 257
 183 -113 183 -87 183 -60 c 257
44 0 m 257
 44 233 44 467 44 700 c 257
 124 700 l 257
 124 290 l 257
 156 300 l 257
 281 460 l 257
 381 460 l 257
 228 266 l 257
 401 0 l 257
 301 0 l 257
 156 220 l 257
 124 210 l 257
 124 0 l 257
 44 0 l 257
EndSplineSet
EndChar

StartChar: kgreenlandic
Encoding: 456 312 258
GlifName: kgreenlandic
Width: 422
VWidth: 0
Flags: W
LayerCount: 2
Fore
SplineSet
45 0 m 257
 45 147 45 293 45 440 c 257
 125 460 l 257
 125 290 l 257
 157 300 l 257
 282 460 l 257
 382 460 l 257
 229 266 l 257
 402 0 l 257
 302 0 l 257
 157 220 l 257
 125 210 l 257
 125 0 l 257
 45 0 l 257
EndSplineSet
EndChar

StartChar: l
Encoding: 108 108 259
GlifName: l
Width: 200
VWidth: 0
Flags: W
LayerCount: 2
Fore
SplineSet
90 0 m 257
 90 700 l 257
 110 700 l 257
 110 0 l 257
 90 0 l 257
EndSplineSet
Substitution2: "'smcp' Lowercase to Small Capitals lookup 34 subtable" l.sc
EndChar

StartChar: l.sc
Encoding: 457 -1 260
GlifName: l.sc
Width: 355
VWidth: 0
Flags: W
LayerCount: 2
Fore
SplineSet
33 0 m 257
 33 460 l 257
 113 460 l 257
 113 65 l 257
 323 65 l 257
 323 0 l 257
 33 0 l 257
EndSplineSet
EndChar

StartChar: lcaron
Encoding: 459 318 262
GlifName: lcaron
Width: 220
VWidth: 0
Flags: W
LayerCount: 2
Fore
SplineSet
170 490 m 257
 192 620 l 257
 170 620 l 257
 170 700 l 257
 250 700 l 257
 250 620 l 257
 204 490 l 257
 170 490 l 257
70 0 m 257
 70 700 l 257
 150 700 l 257
 150 0 l 257
 70 0 l 257
EndSplineSet
EndChar

StartChar: lcommaaccent
Encoding: 460 316 263
GlifName: lcommaaccent
Width: 220
VWidth: 0
Flags: W
LayerCount: 2
Fore
SplineSet
70 -60 m 257
 150 -60 l 257
 150 -140 l 257
 104 -270 l 257
 70 -270 l 257
 92 -140 l 257
 70 -140 l 257
 70 -113 70 -87 70 -60 c 257
70 0 m 257
 70 700 l 257
 150 700 l 257
 150 0 l 257
 70 0 l 257
EndSplineSet
EndChar

StartChar: ldot
Encoding: 461 320 264
GlifName: ldot
Width: 370
VWidth: 0
Flags: W
LayerCount: 2
Fore
SplineSet
220 230 m 257
 220 310 l 257
 300 310 l 257
 300 230 l 257
 220 230 l 257
70 0 m 257
 70 700 l 257
 150 700 l 257
 150 0 l 257
 70 0 l 257
EndSplineSet
EndChar

StartChar: less
Encoding: 60 60 265
GlifName: less
Width: 514
VWidth: 0
Flags: W
LayerCount: 2
Fore
SplineSet
60 315 m 257
 60 355 l 257
 466 545 l 257
 466 525 l 257
 82 336 l 257
 466 145 l 257
 466 125 l 257
 60 315 l 257
EndSplineSet
EndChar

StartChar: logicalnot
Encoding: 462 172 266
GlifName: logicalnot
Width: 520
VWidth: 0
Flags: W
LayerCount: 2
Fore
SplineSet
49 375 m 257
 49 440 l 257
 471 440 l 257
 471 181 l 257
 397 181 l 257
 397 375 l 257
 49 375 l 257
EndSplineSet
EndChar

StartChar: longs
Encoding: 463 383 267
GlifName: longs
Width: 421
VWidth: 0
Flags: W
LayerCount: 2
Fore
SplineSet
80 380 m 257
 80 460 l 257
 145 460 l 257
 145 500 l 258
 145 642 156 693 307 700 c 257
 341 700 l 257
 341 635 l 257
 307 635 l 258
 293 635 282 634 272 631 c 256
 226 618 225 574 225 458 c 258
 225 0 l 257
 145 0 l 257
 145 380 l 257
 80 380 l 257
EndSplineSet
EndChar

StartChar: lslash
Encoding: 464 322 268
GlifName: lslash
Width: 448
VWidth: 0
Flags: W
LayerCount: 2
Fore
SplineSet
15 151 m 257
 172 338 l 257
 172 700 l 257
 252 700 l 257
 252 434 l 257
 330 527 l 257
 433 527 l 257
 252 309 l 257
 252 0 l 257
 172 0 l 257
 172 214 l 257
 119 151 l 257
 15 151 l 257
EndSplineSet
EndChar

StartChar: m
Encoding: 109 109 269
GlifName: m
Width: 721
VWidth: 0
Flags: W
LayerCount: 2
Fore
SplineSet
496 453 m 256
 645 455 630 281 630 281 c 257
 630 0 l 257
 609 0 l 257
 606 290 l 258
 606 353 591 433 496 433 c 256
 424 433 374 365 368 234 c 257
 351 234 l 257
 346 333 l 257
 386 335 l 257
 364 315 l 257
 356 341 390 452 496 453 c 256
230 450 m 256
 374 450 369 288 369 288 c 257
 369 0 l 257
 349 0 l 257
 349 290 l 258
 349 334 313 430 230 430 c 256
 166 430 112 352 110 246 c 257
 91 246 l 257
 91 348 l 257
 109 348 l 257
 102 338 l 257
 118 361 136 450 230 450 c 256
90 0 m 257
 91 451 l 257
 111 451 l 257
 111 361 l 257
 110 0 l 257
 90 0 l 257
EndSplineSet
Substitution2: "'smcp' Lowercase to Small Capitals lookup 34 subtable" m.sc
EndChar

StartChar: m.sc
Encoding: 465 -1 270
GlifName: m.sc
Width: 514
VWidth: 0
Flags: W
LayerCount: 2
Fore
SplineSet
33 0 m 257
 33 153 33 307 33 460 c 257
 165 460 l 257
 251 59 l 257
 264 59 l 257
 349 460 l 257
 482 460 l 257
 482 0 l 257
 402 0 l 257
 402 402 l 257
 303 0 l 257
 211 0 l 257
 113 402 l 257
 113 0 l 257
 33 0 l 257
EndSplineSet
EndChar

StartChar: macron
Encoding: 466 175 271
GlifName: macron
Width: 370
VWidth: 0
Flags: W
AnchorPoint: "aboveUC" 200 490 mark 0
AnchorPoint: "aboveLC" 185 470 mark 0
LayerCount: 2
Fore
SplineSet
50 520 m 257
 50 590 l 257
 320 590 l 257
 320 520 l 257
 50 520 l 257
EndSplineSet
EndChar

StartChar: minus
Encoding: 467 8722 272
GlifName: minus
Width: 422
VWidth: 0
Flags: W
LayerCount: 2
Fore
SplineSet
50 204 m 257
 50 269 l 257
 372 269 l 257
 372 204 l 257
 50 204 l 257
EndSplineSet
EndChar

StartChar: mu
Encoding: 468 181 273
GlifName: mu
Width: 495
VWidth: 0
Flags: W
LayerCount: 2
Fore
SplineSet
60 -177 m 257
 60 461 l 257
 138 461 l 257
 138 266 l 258
 138 126 157 60 246 60 c 256
 270 60 311 69 338 112 c 256
 356 142 356 186 356 265 c 258
 356 461 l 257
 434 461 l 257
 434 0 l 257
 365 0 l 257
 365 54 l 257
 364 54 364 54 363 54 c 257
 349 30 322 -11 249 -11 c 256
 181 -11 156 46 139 46 c 257
 139 -177 l 257
 60 -177 l 257
EndSplineSet
EndChar

StartChar: multiply
Encoding: 469 215 274
GlifName: multiply
Width: 520
VWidth: 0
Flags: W
LayerCount: 2
Fore
SplineSet
70 178 m 257
 207 314 l 257
 71 451 l 257
 124 505 l 257
 261 368 l 257
 397 504 l 257
 449 451 l 257
 313 315 l 257
 449 179 l 257
 397 125 l 257
 260 263 l 257
 123 125 l 257
 70 178 l 257
EndSplineSet
EndChar

StartChar: n
Encoding: 110 110 275
GlifName: n
Width: 519
VWidth: 0
Flags: W
AnchorPoint: "top" 284 520 basechar 0
LayerCount: 2
Fore
SplineSet
90 0 m 257
 90 460 l 257
 106 460 l 257
 110 340 l 257
 110 0 l 257
 90 0 l 257
284 470 m 256
 370 470 429 407 429 315 c 258
 429 0 l 257
 409 0 l 257
 409 315 l 258
 409 398 355 454 275 454 c 256
 193 454 110 376 110 300 c 257
 97 300 l 257
 97 341 l 257
 103 341 l 257
 98 338 l 257
 133 417 207 470 284 470 c 256
EndSplineSet
Substitution2: "'smcp' Lowercase to Small Capitals lookup 34 subtable" n.sc
EndChar

StartChar: n.sc
Encoding: 470 -1 276
GlifName: n.sc
Width: 409
VWidth: 0
Flags: W
LayerCount: 2
Fore
SplineSet
33 0 m 257
 33 153 33 307 33 460 c 257
 146 460 l 257
 297 74 l 257
 297 460 l 257
 377 460 l 257
 377 0 l 257
 264 0 l 257
 113 387 l 257
 113 0 l 257
 33 0 l 257
EndSplineSet
EndChar

StartChar: napostrophe
Encoding: 472 329 278
GlifName: napostrophe
Width: 608
VWidth: 0
Flags: W
LayerCount: 2
Fore
SplineSet
176 0 m 257
 176 460 l 257
 256 460 l 257
 256 370 l 257
 297 417 367 470 437 470 c 256
 558 470 563 382 563 300 c 258
 563 0 l 257
 483 0 l 257
 483 270 l 258
 483 325 484 365 463 388 c 256
 453 399 439 405 417 405 c 256
 353 405 255 343 255 230 c 258
 255 0 l 257
 176 0 l 257
51 390 m 257
 73 520 l 257
 51 520 l 257
 51 547 51 573 51 600 c 257
 131 600 l 257
 131 520 l 257
 113 478 99 433 85 390 c 257
 51 390 l 257
EndSplineSet
EndChar

StartChar: ncommaaccent
Encoding: 474 326 280
GlifName: ncommaaccent
Width: 478
VWidth: 0
Flags: W
LayerCount: 2
Fore
SplineSet
199 -60 m 257
 279 -60 l 257
 279 -140 l 257
 233 -270 l 257
 199 -270 l 257
 221 -140 l 257
 199 -140 l 257
 199 -113 199 -87 199 -60 c 257
46 0 m 257
 46 460 l 257
 126 460 l 257
 126 370 l 257
 167 417 237 470 307 470 c 256
 428 470 433 382 433 300 c 258
 433 0 l 257
 353 0 l 257
 353 270 l 258
 353 325 354 365 333 388 c 256
 323 399 309 405 287 405 c 256
 223 405 125 343 125 230 c 258
 125 0 l 257
 46 0 l 257
EndSplineSet
EndChar

StartChar: nine
Encoding: 57 57 281
GlifName: nine
Width: 528
VWidth: 0
Flags: W
LayerCount: 2
Fore
SplineSet
57 470 m 256
 58 359 146 267 251 267 c 258
 254 267 l 257
 370 269 466 361 464 468 c 257
 464 470 l 257
 452 609 377 690 263 690 c 256
 143 690 56 598 57 470 c 256
36 477 m 256
 36 607 127 710 259 710 c 256
 417 710 489 604 489 400 c 256
 489 119 417 -10 259 -10 c 256
 156 -10 91 35 58 127 c 257
 64 127 74 127 81 128 c 257
 108 54 175 10 261 10 c 256
 282 10 295 13 325 24 c 256
 418 59 460 163 462 359 c 257
 459 359 l 257
 427 295 339 247 250 247 c 256
 132 247 36 339 36 477 c 256
EndSplineSet
Substitution2: "Single Substitution lookup 29 subtable" nine.dnom
Substitution2: "Single Substitution lookup 27 subtable" nine.numr
Substitution2: "Single Substitution lookup 25 subtable" nine.numr
Substitution2: "Single Substitution lookup 23 subtable" nine.numr
Substitution2: "Single Substitution lookup 21 subtable" nine.numr
Substitution2: "Single Substitution lookup 19 subtable" nine.numr
Substitution2: "Single Substitution lookup 17 subtable" nine.numr
Substitution2: "Single Substitution lookup 15 subtable" nine.numr
Substitution2: "Single Substitution lookup 13 subtable" nine.numr
Substitution2: "Single Substitution lookup 11 subtable" nine.numr
Substitution2: "Single Substitution lookup 9 subtable" nine.numr
Substitution2: "'dnom' Denominators lookup 5 subtable" nine.dnom
Substitution2: "'numr' Numerators lookup 4 subtable" nine.numr
Substitution2: "'subs' Subscript lookup 3 subtable" nine.subscript
Substitution2: "'sups' Superscript lookup 2 subtable" nine.superior
Substitution2: "'sinf' Scientific Inferiors lookup 1 subtable" nine.inferior
EndChar

StartChar: nine.dnom
Encoding: 475 -1 282
GlifName: nine.dnom
Width: 367
VWidth: 0
Flags: W
LayerCount: 2
Fore
SplineSet
91 83 m 256
 91 6 141 -12 175 -12 c 256
 218 -12 276 5 276 82 c 257
 276 83 l 257
 275 137 266 184 183 184 c 256
 120 184 91 137 91 83 c 256
24 87 m 256
 24 183 90 244 180 244 c 256
 306 244 341 158 341 37 c 256
 341 -123 306 -237 181 -237 c 256
 105 -237 61 -202 41 -142 c 257
 63 -142 85 -141 107 -141 c 257
 120 -163 130 -177 182 -177 c 256
 199 -177 213 -174 225 -168 c 256
 271 -145 275 -79 276 -1 c 257
 275 -1 275 -1 274 -1 c 257
 256 -40 219 -68 171 -68 c 256
 90 -68 24 -13 24 87 c 256
EndSplineSet
EndChar

StartChar: nine.inferior
Encoding: 476 -1 283
GlifName: nine.inferior
Width: 367
VWidth: 0
Flags: W
LayerCount: 2
Fore
SplineSet
91 -147 m 256
 91 -224 141 -242 175 -242 c 256
 218 -242 276 -225 276 -148 c 257
 276 -147 l 257
 275 -93 266 -46 183 -46 c 256
 120 -46 91 -93 91 -147 c 256
24 -143 m 256
 24 -47 90 14 180 14 c 256
 306 14 341 -72 341 -193 c 256
 341 -353 306 -467 181 -467 c 256
 105 -467 61 -432 41 -372 c 257
 63 -372 85 -371 107 -371 c 257
 120 -393 130 -407 182 -407 c 256
 199 -407 213 -404 225 -398 c 256
 271 -375 275 -309 276 -231 c 257
 275 -231 275 -231 274 -231 c 257
 256 -270 219 -298 171 -298 c 256
 90 -298 24 -243 24 -143 c 256
EndSplineSet
EndChar

StartChar: nine.numr
Encoding: 477 -1 284
GlifName: nine.numr
Width: 367
VWidth: 0
Flags: W
LayerCount: 2
Fore
SplineSet
91 543 m 256
 91 469 140 448 175 448 c 256
 220 448 276 467 276 542 c 257
 276 543 l 257
 275 597 266 644 183 644 c 256
 119 644 91 597 91 543 c 256
24 547 m 256
 24 643 90 704 180 704 c 256
 306 704 341 618 341 497 c 256
 341 337 306 223 181 223 c 256
 105 223 61 258 41 318 c 257
 63 318 85 319 107 319 c 257
 120 297 130 283 182 283 c 256
 199 283 213 286 225 292 c 256
 271 315 275 381 276 459 c 257
 275 459 275 459 274 459 c 257
 256 420 219 392 171 392 c 256
 90 392 24 447 24 547 c 256
EndSplineSet
EndChar

StartChar: nine.subscript
Encoding: 478 -1 285
GlifName: nine.subscript
Width: 367
VWidth: 0
Flags: W
LayerCount: 2
Fore
SplineSet
91 -9 m 256
 91 -86 141 -104 175 -104 c 256
 218 -104 276 -87 276 -10 c 257
 276 -9 l 257
 275 45 266 92 183 92 c 256
 120 92 91 45 91 -9 c 256
24 -5 m 256
 24 91 90 152 180 152 c 256
 306 152 341 66 341 -55 c 256
 341 -215 306 -329 181 -329 c 256
 105 -329 61 -294 41 -234 c 257
 63 -234 85 -233 107 -233 c 257
 120 -255 130 -269 182 -269 c 256
 199 -269 213 -266 225 -260 c 256
 271 -237 275 -171 276 -93 c 257
 275 -93 275 -93 274 -93 c 257
 256 -132 219 -160 171 -160 c 256
 90 -160 24 -105 24 -5 c 256
EndSplineSet
EndChar

StartChar: nine.superior
Encoding: 479 -1 286
GlifName: nine.superior
Width: 367
VWidth: 0
Flags: W
LayerCount: 2
Fore
SplineSet
91 727 m 256
 91 650 142 632 175 632 c 256
 218 632 276 648 276 727 c 256
 276 749 274 769 267 786 c 256
 256 811 233 828 183 828 c 256
 120 828 91 781 91 727 c 256
24 731 m 256
 24 827 90 888 180 888 c 256
 306 888 341 802 341 681 c 256
 341 521 306 407 181 407 c 256
 105 407 61 442 41 502 c 257
 63 502 85 503 107 503 c 257
 120 481 130 467 182 467 c 256
 199 467 213 470 225 476 c 256
 271 499 275 565 276 643 c 257
 275 643 275 643 274 643 c 257
 256 604 219 576 171 576 c 256
 90 576 24 631 24 731 c 256
EndSplineSet
EndChar

StartChar: numbersign
Encoding: 35 35 288
GlifName: numbersign
Width: 579
VWidth: 0
Flags: W
LayerCount: 2
Fore
SplineSet
24 202 m 257
 24 222 l 257
 145 222 l 257
 196 450 l 257
 61 450 l 257
 61 470 l 257
 201 470 l 257
 246 700 l 257
 268 700 l 257
 221 470 l 257
 391 470 l 257
 439 700 l 257
 461 700 l 257
 412 470 l 257
 552 470 l 257
 552 450 l 257
 408 450 l 257
 362 222 l 257
 515 222 l 257
 515 202 l 257
 358 202 l 257
 316 0 l 257
 290 0 l 257
 334 202 l 257
 165 202 l 257
 123 0 l 257
 97 0 l 257
 141 202 l 257
 24 202 l 257
169 222 m 257
 338 222 l 257
 387 450 l 257
 217 450 l 257
 169 222 l 257
EndSplineSet
EndChar

StartChar: o
Encoding: 111 111 289
GlifName: o
Width: 480
VWidth: 0
Flags: W
AnchorPoint: "top" 240 520 basechar 0
LayerCount: 2
Fore
SplineSet
240 -10 m 257
 117 -10 35 87 35 230 c 256
 35 374 117 470 240 470 c 257
 240 450 l 257
 130 450 55 361 55 230 c 256
 55 98 129 10 240 10 c 257
 240 -10 l 257
240 470 m 257
 363 470 445 373 445 230 c 256
 445 86 363 -10 240 -10 c 257
 240 10 l 257
 350 10 425 99 425 230 c 256
 425 362 351 450 240 450 c 257
 240 470 l 257
EndSplineSet
Substitution2: "'smcp' Lowercase to Small Capitals lookup 34 subtable" o.sc
Substitution2: "Single Substitution lookup 32 subtable" ordmasculine
EndChar

StartChar: o.sc
Encoding: 481 -1 290
GlifName: o.sc
Width: 475
VWidth: 0
Flags: W
LayerCount: 2
Fore
SplineSet
33 230 m 256
 33 368 103 470 236 470 c 256
 375 470 443 366 443 230 c 256
 443 92 378 -10 241 -10 c 256
 100 -10 33 90 33 230 c 256
113 230 m 256
 113 141 144 55 237 55 c 256
 336 55 363 163 363 230 c 256
 363 321 335 405 237 405 c 256
 146 405 113 320 113 230 c 256
EndSplineSet
EndChar

StartChar: oe
Encoding: 486 339 295
GlifName: oe
Width: 801
VWidth: 0
Flags: W
LayerCount: 2
Fore
SplineSet
115 230 m 256
 115 109 170 55 240 55 c 256
 312 55 365 105 365 230 c 256
 365 357 311 405 240 405 c 256
 169 405 115 357 115 230 c 256
450 290 m 257
 689 290 l 257
 676 358 641 390 571 390 c 256
 512 390 460 353 450 290 c 257
33 231 m 256
 33 369 97 471 238 471 c 256
 317 471 372 439 405 386 c 257
 438 435 492 470 570 470 c 256
 709 470 765 350 765 210 c 257
 449 210 l 257
 454 158 473 105 517 82 c 256
 532 74 550 70 571 70 c 256
 615 70 662 88 685 114 c 257
 746 100 l 257
 729 58 671 -8 570 -8 c 256
 489 -8 436 28 404 79 c 257
 370 25 314 -9 238 -9 c 256
 86 -9 33 103 33 231 c 256
EndSplineSet
EndChar

StartChar: ogonek
Encoding: 487 731 296
GlifName: ogonek
Width: 326
VWidth: 0
Flags: W
AnchorPoint: "bottom" 176 0 mark 0
LayerCount: 2
Fore
SplineSet
100 -143 m 256
 100 -96 119 -56 166 0 c 257
 186 0 l 257
 137 -59 120 -93 120 -137 c 256
 120 -172 136 -190 173 -190 c 256
 190 -190 206 -182 216 -172 c 257
 226 -189 l 257
 206 -205 191 -210 169 -210 c 256
 124 -210 100 -185 100 -143 c 256
EndSplineSet
EndChar

StartChar: one
Encoding: 49 49 301
GlifName: one
Width: 327
VWidth: 0
Flags: W
LayerCount: 2
Fore
SplineSet
70 614 m 257
 70 634 l 257
 115 635 155 657 190 700 c 257
 209 700 l 257
 209 0 l 257
 187 0 l 257
 187 580 l 258
 187 600 187 645 187 665 c 257
 153 631 117 615 70 614 c 257
EndSplineSet
Substitution2: "Single Substitution lookup 29 subtable" one.dnom
Substitution2: "Single Substitution lookup 27 subtable" one.numr
Substitution2: "Single Substitution lookup 25 subtable" one.numr
Substitution2: "Single Substitution lookup 23 subtable" one.numr
Substitution2: "Single Substitution lookup 21 subtable" one.numr
Substitution2: "Single Substitution lookup 19 subtable" one.numr
Substitution2: "Single Substitution lookup 17 subtable" one.numr
Substitution2: "Single Substitution lookup 15 subtable" one.numr
Substitution2: "Single Substitution lookup 13 subtable" one.numr
Substitution2: "Single Substitution lookup 11 subtable" one.numr
Substitution2: "Single Substitution lookup 9 subtable" one.numr
Substitution2: "'dnom' Denominators lookup 5 subtable" one.dnom
Substitution2: "'numr' Numerators lookup 4 subtable" one.numr
Substitution2: "'subs' Subscript lookup 3 subtable" one.subscript
Substitution2: "'sups' Superscript lookup 2 subtable" uni00B9
Substitution2: "'sinf' Scientific Inferiors lookup 1 subtable" one.inferior
EndChar

StartChar: one.dnom
Encoding: 492 -1 302
GlifName: one.dnom
Width: 225
VWidth: 0
Flags: W
LayerCount: 2
Fore
SplineSet
33 139 m 257
 33 191 l 257
 106 191 144 211 170 237 c 257
 192 237 l 257
 192 -230 l 257
 124 -230 l 257
 124 156 l 257
 109 151 79 139 33 139 c 257
EndSplineSet
EndChar

StartChar: one.inferior
Encoding: 493 -1 303
GlifName: one.inferior
Width: 225
VWidth: 0
Flags: W
LayerCount: 2
Fore
SplineSet
33 -39 m 257
 106 -39 144 -19 170 7 c 257
 192 7 l 257
 192 -460 l 257
 124 -460 l 257
 124 -74 l 257
 109 -79 79 -91 33 -91 c 257
 33 -39 l 257
EndSplineSet
EndChar

StartChar: one.numr
Encoding: 494 -1 304
GlifName: one.numr
Width: 225
VWidth: 0
Flags: W
LayerCount: 2
Fore
SplineSet
33 599 m 257
 33 651 l 257
 106 651 144 671 170 697 c 257
 192 697 l 257
 192 230 l 257
 124 230 l 257
 124 616 l 257
 109 611 79 599 33 599 c 257
EndSplineSet
EndChar

StartChar: one.subscript
Encoding: 495 -1 305
GlifName: one.subscript
Width: 225
VWidth: 0
Flags: W
LayerCount: 2
Fore
SplineSet
33 47 m 257
 33 99 l 257
 106 99 144 119 170 145 c 257
 192 145 l 257
 192 -322 l 257
 124 -322 l 257
 124 64 l 257
 109 59 79 47 33 47 c 257
EndSplineSet
EndChar

StartChar: one.superior
Encoding: 496 -1 306
GlifName: one.superior
Width: 225
VWidth: 0
Flags: W
LayerCount: 2
Fore
SplineSet
33 783 m 257
 33 835 l 257
 106 835 144 855 170 881 c 257
 192 881 l 257
 192 414 l 257
 124 414 l 257
 124 800 l 257
 109 795 79 783 33 783 c 257
EndSplineSet
EndChar

StartChar: onehalf
Encoding: 497 189 307
GlifName: onehalf
Width: 742
VWidth: 0
Flags: W
LayerCount: 2
Fore
SplineSet
447 -13 m 257
 448 -3 451 6 455 15 c 256
 472 52 513 86 559 120 c 256
 626 168 647 184 647 214 c 256
 647 245 624 262 587 262 c 256
 539 262 533 242 522 213 c 257
 456 219 l 257
 463 240 l 257
 475 272 502 313 588 313 c 256
 611 313 716 310 716 225 c 256
 716 146 602 92 549 39 c 257
 717 39 l 257
 717 -13 l 257
 447 -13 l 257
99 -22 m 257
 578 651 l 257
 645 651 l 257
 167 -22 l 257
 99 -22 l 257
55 510 m 257
 55 564 l 257
 76 569 114 592 142 617 c 256
 152 626 160 635 168 645 c 257
 215 645 l 257
 215 319 l 257
 152 319 l 257
 152 560 l 257
 125 538 89 519 55 510 c 257
EndSplineSet
EndChar

StartChar: onequarter
Encoding: 498 188 308
GlifName: onequarter
Width: 742
VWidth: 0
Flags: W
LayerCount: 2
Fore
SplineSet
109 -22 m 257
 589 651 l 257
 657 651 l 257
 178 -22 l 257
 109 -22 l 257
428 53 m 257
 428 107 l 257
 603 312 l 257
 657 312 l 257
 657 101 l 257
 702 101 l 257
 702 53 l 257
 657 53 l 257
 657 -13 l 257
 595 -13 l 257
 595 53 l 257
 428 53 l 257
495 101 m 257
 595 101 l 257
 595 214 l 257
 495 101 l 257
55 510 m 257
 55 564 l 257
 76 569 114 592 142 617 c 256
 152 626 160 635 168 645 c 257
 215 645 l 257
 215 319 l 257
 152 319 l 257
 152 560 l 257
 125 538 89 519 55 510 c 257
EndSplineSet
EndChar

StartChar: ordfeminine
Encoding: 499 170 309
GlifName: ordfeminine
Width: 329
VWidth: 0
Flags: W
LayerCount: 2
Fore
SplineSet
19 419 m 256
 19 498 91 507 138 514 c 256
 171 519 197 522 231 530 c 257
 231 560 230 597 162 597 c 256
 133 597 97 590 90 543 c 257
 30 558 l 257
 35 593 61 648 163 648 c 256
 224 648 293 635 293 543 c 258
 293 438 l 258
 293 390 293 352 310 332 c 257
 246 332 l 257
 240 344 237 353 237 370 c 257
 211 348 172 324 125 324 c 256
 85 324 19 344 19 419 c 256
84 418 m 256
 84 391 110 376 140 376 c 256
 176 376 214 398 226 433 c 257
 230 442 230 446 230 480 c 257
 214 475 188 470 160 466 c 256
 107 458 84 453 84 418 c 256
EndSplineSet
EndChar

StartChar: ordmasculine
Encoding: 500 186 310
GlifName: ordmasculine
Width: 325
VWidth: 0
Flags: W
LayerCount: 2
Fore
SplineSet
20 482 m 256
 20 555 53 648 162 648 c 256
 273 648 305 550 305 485 c 256
 305 418 272 321 163 321 c 256
 68 321 20 395 20 482 c 256
85 484 m 256
 85 467 85 379 162 379 c 256
 240 379 240 461 240 487 c 256
 240 502 240 590 162 590 c 256
 88 590 85 514 85 484 c 256
EndSplineSet
EndChar

StartChar: oslash
Encoding: 501 248 311
GlifName: oslash
Width: 480
VWidth: 0
Flags: W
LayerCount: 2
Fore
SplineSet
-6 -13 m 257
 70 77 l 257
 45 119 35 172 35 229 c 256
 35 367 99 469 240 469 c 256
 292 469 334 455 366 430 c 257
 444 523 l 257
 505 472 l 257
 417 367 l 257
 436 329 445 282 445 230 c 257
 444 229 l 257
 444 95 373 -11 239 -11 c 256
 192 -11 154 0 125 19 c 257
 55 -64 l 257
 -6 -13 l 257
172 75 m 257
 191 61 214 54 239 54 c 256
 312 54 364 104 364 229 c 256
 364 255 362 277 358 296 c 257
 172 75 l 257
115 228 m 256
 115 195 119 167 126 144 c 257
 319 374 l 257
 298 391 265 403 240 403 c 256
 169 403 115 355 115 228 c 256
EndSplineSet
EndChar

StartChar: p
Encoding: 112 112 313
GlifName: p
Width: 503
VWidth: 0
Flags: W
LayerCount: 2
Fore
SplineSet
80 146 m 257
 78 253 l 257
 83 229 l 257
 83 116 192 43 258 43 c 256
 342 43 445 104 445 232 c 256
 445 356 382 435 256 435 c 256
 160 435 88 326 88 252 c 257
 78 230 l 257
 78 333 l 257
 108 367 144 459 255 459 c 256
 416 459 468 340 468 231 c 256
 468 84 346 19 259 19 c 256
 172 19 80 99 80 146 c 257
88 -200 m 257
 64 -200 l 257
 64 459 l 257
 78 459 l 257
 92 343 l 257
 88 -200 l 257
EndSplineSet
PickledDataWithLists: "(dp0
Vcom.fontlab.metricsRight\\u000d
p1
V=o\\u000d
p2
s."
Substitution2: "'smcp' Lowercase to Small Capitals lookup 34 subtable" p.sc
EndChar

StartChar: p.sc
Encoding: 503 -1 314
GlifName: p.sc
Width: 422
VWidth: 0
Flags: W
LayerCount: 2
Fore
SplineSet
33 0 m 257
 33 460 l 257
 208 460 l 258
 312 460 390 430 390 325 c 256
 390 259 333 181 208 181 c 256
 176 181 145 180 113 180 c 257
 113 0 l 257
 33 0 l 257
113 246 m 257
 176 246 l 258
 250 246 310 251 310 325 c 256
 310 375 259 395 208 395 c 258
 113 395 l 257
 113 246 l 257
EndSplineSet
EndChar

StartChar: paragraph
Encoding: 504 182 315
GlifName: paragraph
Width: 478
VWidth: 0
Flags: W
LayerCount: 2
Fore
SplineSet
-1 454 m 256
 -1 572 84 637 191 637 c 258
 480 637 l 257
 480 562 l 257
 417 562 l 257
 417 -177 l 257
 344 -177 l 257
 344 562 l 257
 247 562 l 257
 247 -177 l 257
 174 -177 l 257
 174 277 l 257
 54 284 -1 365 -1 454 c 256
EndSplineSet
EndChar

StartChar: parenleft
Encoding: 40 40 316
GlifName: parenleft
Width: 241
VWidth: 0
Flags: HW
LayerCount: 2
Fore
SplineSet
40 230 m 260
 40 355 64 471 130 616 c 260
 139 637 150 658 161 680 c 261
 176 680 l 261
 167 664 161 649 149 623 c 260
 90.556640625 496.373046875 60 359 60 230 c 260
 60 89 103 -33 171 -180 c 261
 154 -180 167 -180 150 -180 c 261
 127 -125 l 262
 82 -14 40 109 40 230 c 260
EndSplineSet
EndChar

StartChar: parenright
Encoding: 41 41 317
GlifName: parenright
Width: 241
VWidth: 0
Flags: HW
LayerCount: 2
Fore
SplineSet
176 230 m 260
 176 355 152 471 86 616 c 260
 77 637 66 658 55 680 c 261
 40 680 l 261
 49 664 55 649 67 623 c 260
 125.443359375 496.373046875 156 359 156 230 c 260
 156 89 113 -33 45 -180 c 261
 62 -180 49 -180 66 -180 c 261
 89 -125 l 262
 134 -14 176 109 176 230 c 260
EndSplineSet
EndChar

StartChar: percent
Encoding: 37 37 318
GlifName: percent
Width: 720
VWidth: 0
Flags: W
LayerCount: 2
Fore
SplineSet
168 730 m 256
 262 730 306 670 306 544 c 256
 306 418 262 358 168 358 c 256
 74 358 30 418 30 544 c 256
 30 670 74 730 168 730 c 256
168 380 m 256
 251 380 284 439 284 544 c 256
 284 649 251 708 168 708 c 256
 85 708 52 649 52 544 c 256
 52 439 85 380 168 380 c 256
144 0 m 257
 553 700 l 257
 575 700 l 257
 166 0 l 257
 144 0 l 257
552 362 m 256
 646 362 690 302 690 176 c 256
 690 50 646 -10 552 -10 c 256
 458 -10 414 50 414 176 c 256
 414 302 458 362 552 362 c 256
552 12 m 256
 635 12 668 71 668 176 c 256
 668 281 635 340 552 340 c 256
 469 340 436 281 436 176 c 256
 436 71 469 12 552 12 c 256
EndSplineSet
EndChar

StartChar: period
Encoding: 46 46 319
GlifName: period
Width: 180
VWidth: 0
Flags: W
LayerCount: 2
Fore
SplineSet
80 0 m 257
 80 80 l 257
 100 80 l 257
 100 0 l 257
 80 0 l 257
EndSplineSet
EndChar

StartChar: periodcentered
Encoding: 505 183 320
GlifName: periodcentered
Width: 180
VWidth: 0
Flags: W
LayerCount: 2
Fore
SplineSet
50 230 m 257
 50 310 l 257
 130 310 l 257
 130 230 l 257
 50 230 l 257
EndSplineSet
EndChar

StartChar: perthousand
Encoding: 506 8240 321
GlifName: perthousand
Width: 1040
VWidth: 0
Flags: W
LayerCount: 2
Fore
SplineSet
414 176 m 256
 414 302 448 362 552 362 c 256
 656 362 690 302 690 176 c 256
 690 50 656 -10 552 -10 c 256
 448 -10 414 50 414 176 c 256
485 176 m 256
 485 104 485 52 552 52 c 256
 619 52 619 104 619 176 c 256
 619 248 619 300 552 300 c 256
 485 300 485 248 485 176 c 256
30 544 m 256
 30 670 64 730 168 730 c 256
 272 730 306 670 306 544 c 256
 306 418 272 358 168 358 c 256
 64 358 30 418 30 544 c 256
101 544 m 256
 101 472 101 420 168 420 c 256
 235 420 235 472 235 544 c 256
 235 616 235 668 168 668 c 256
 101 668 101 616 101 544 c 256
110 0 m 257
 521 700 l 257
 608 700 l 257
 201 0 l 257
 110 0 l 257
734 176 m 256
 734 302 768 362 872 362 c 256
 976 362 1010 302 1010 176 c 256
 1010 50 976 -10 872 -10 c 256
 768 -10 734 50 734 176 c 256
805 176 m 256
 805 104 805 52 872 52 c 256
 939 52 939 104 939 176 c 256
 939 248 939 300 872 300 c 256
 805 300 805 248 805 176 c 256
EndSplineSet
EndChar

StartChar: plus
Encoding: 43 43 322
GlifName: plus
Width: 450
VWidth: 0
Flags: W
LayerCount: 2
Fore
SplineSet
50 200 m 257
 50 280 l 257
 185 280 l 257
 185 415 l 257
 265 415 l 257
 265 280 l 257
 400 280 l 257
 400 200 l 257
 265 200 l 257
 265 65 l 257
 185 65 l 257
 185 200 l 257
 50 200 l 257
EndSplineSet
EndChar

StartChar: plusminus
Encoding: 507 177 323
GlifName: plusminus
Width: 445
VWidth: 0
Flags: W
LayerCount: 2
Fore
SplineSet
50 264 m 257
 50 329 l 257
 190 329 l 257
 190 469 l 257
 255 469 l 257
 255 329 l 257
 395 329 l 257
 395 264 l 257
 255 264 l 257
 255 119 l 257
 190 119 l 257
 190 264 l 257
 50 264 l 257
50 0 m 257
 50 65 l 257
 395 65 l 257
 395 0 l 257
 50 0 l 257
EndSplineSet
EndChar

StartChar: q
Encoding: 113 113 324
GlifName: q
Width: 491
VWidth: 0
Flags: W
LayerCount: 2
Fore
SplineSet
66 231 m 256
 66 124 126 10 245 10 c 256
 324 10 415 48 415 230 c 258
 415 240 l 258
 415 398 329 451 246 451 c 256
 117 451 66 321 66 231 c 256
46 231 m 256
 46 345 112 471 246 471 c 256
 334 471 419 395 419 314 c 257
 415 329 l 257
 422 460 l 257
 436 460 l 257
 436 -200 l 257
 416 -200 l 257
 416 134 l 257
 420 134 l 257
 420 90 369 -10 245 -10 c 256
 112 -10 46 125 46 231 c 256
EndSplineSet
Substitution2: "'smcp' Lowercase to Small Capitals lookup 34 subtable" q.sc
EndChar

StartChar: q.sc
Encoding: 508 -1 325
GlifName: q.sc
Width: 475
VWidth: 0
Flags: W
LayerCount: 2
Fore
SplineSet
113 230 m 256
 113 141 144 55 237 55 c 256
 249 55 260 56 270 59 c 257
 265 64 259 69 254 74 c 257
 296 112 l 257
 320 90 l 257
 352 125 363 188 363 230 c 256
 363 321 335 405 237 405 c 256
 146 405 113 320 113 230 c 256
33 230 m 256
 33 368 103 470 236 470 c 256
 375 470 443 370 443 240 c 256
 443 164 417 100 363 59 c 257
 430 -8 l 257
 373 -50 l 257
 314 12 l 257
 291 -1 265 -10 235 -10 c 256
 98 -10 33 90 33 230 c 256
EndSplineSet
EndChar

StartChar: question
Encoding: 63 63 326
GlifName: question
Width: 502
VWidth: 0
Flags: W
LayerCount: 2
Fore
SplineSet
190 0 m 257
 190 80 l 257
 270 80 l 257
 270 0 l 257
 190 0 l 257
40 480 m 257
 41 620 129 710 250 710 c 256
 396 710 462 630 462 509 c 256
 462 329 270 315 270 170 c 258
 270 130 l 257
 190 130 l 257
 190 170 l 258
 190 344 382 399 382 498 c 256
 382 565 369 630 250 630 c 256
 166 630 124 561 120 480 c 257
 40 480 l 257
EndSplineSet
EndChar

StartChar: questiondown
Encoding: 509 191 327
GlifName: questiondown
Width: 502
VWidth: 0
Flags: W
LayerCount: 2
Fore
SplineSet
232 380 m 257
 232 460 l 257
 312 460 l 257
 312 380 l 257
 232 380 l 257
40 -49 m 256
 40 131 232 145 232 290 c 258
 232 330 l 257
 312 330 l 257
 312 290 l 258
 312 116 120 61 120 -38 c 256
 120 -105 133 -170 252 -170 c 256
 336 -170 378 -101 382 -20 c 257
 462 -20 l 257
 461 -160 373 -250 252 -250 c 256
 106 -250 40 -170 40 -49 c 256
EndSplineSet
EndChar

StartChar: quotedbl
Encoding: 34 34 328
GlifName: quotedbl
Width: 290
VWidth: 0
Flags: W
LayerCount: 2
Fore
SplineSet
160 580 m 257
 160 670 l 257
 240 670 l 257
 240 580 l 257
 220 450 l 257
 180 450 l 257
 160 580 l 257
50 580 m 257
 50 670 l 257
 130 670 l 257
 130 580 l 257
 110 450 l 257
 70 450 l 257
 50 580 l 257
EndSplineSet
EndChar

StartChar: quotedblbase
Encoding: 510 8222 329
GlifName: quotedblbase
Width: 290
VWidth: 0
Flags: W
LayerCount: 2
Fore
SplineSet
50 0 m 257
 50 80 l 257
 130 80 l 257
 130 0 l 257
 84 -130 l 257
 50 -130 l 257
 72 0 l 257
 50 0 l 257
160 0 m 257
 160 80 l 257
 240 80 l 257
 240 0 l 257
 194 -130 l 257
 160 -130 l 257
 182 0 l 257
 160 0 l 257
EndSplineSet
EndChar

StartChar: quotedblleft
Encoding: 511 8220 330
GlifName: quotedblleft
Width: 290
VWidth: 0
Flags: W
LayerCount: 2
Fore
SplineSet
166 490 m 257
 166 570 l 257
 212 700 l 257
 246 700 l 257
 224 570 l 257
 246 570 l 257
 246 490 l 257
 166 490 l 257
50 490 m 257
 50 570 l 257
 96 700 l 257
 130 700 l 257
 108 570 l 257
 130 570 l 257
 130 490 l 257
 50 490 l 257
EndSplineSet
EndChar

StartChar: quotedblright
Encoding: 512 8221 331
GlifName: quotedblright
Width: 290
VWidth: 0
Flags: W
LayerCount: 2
Fore
SplineSet
50 490 m 257
 72 620 l 257
 50 620 l 257
 50 700 l 257
 130 700 l 257
 130 620 l 257
 84 490 l 257
 50 490 l 257
166 490 m 257
 188 620 l 257
 166 620 l 257
 166 700 l 257
 246 700 l 257
 246 620 l 257
 200 490 l 257
 166 490 l 257
EndSplineSet
EndChar

StartChar: quoteleft
Encoding: 513 8216 332
GlifName: quoteleft
Width: 180
VWidth: 0
Flags: W
LayerCount: 2
Fore
SplineSet
50 490 m 257
 50 570 l 257
 96 700 l 257
 130 700 l 257
 108 570 l 257
 130 570 l 257
 130 490 l 257
 50 490 l 257
EndSplineSet
EndChar

StartChar: quoteright
Encoding: 514 8217 333
GlifName: quoteright
Width: 180
VWidth: 0
Flags: W
LayerCount: 2
Fore
SplineSet
50 490 m 257
 72 620 l 257
 50 620 l 257
 50 700 l 257
 130 700 l 257
 130 620 l 257
 84 490 l 257
 50 490 l 257
EndSplineSet
EndChar

StartChar: quotesinglbase
Encoding: 515 8218 334
GlifName: quotesinglbase
Width: 198
VWidth: 0
Flags: W
LayerCount: 2
Fore
SplineSet
58 0 m 257
 58 80 l 257
 138 80 l 257
 138 0 l 257
 92 -130 l 257
 58 -130 l 257
 80 0 l 257
 58 0 l 257
EndSplineSet
EndChar

StartChar: quotesingle
Encoding: 39 39 335
GlifName: quotesingle
Width: 180
VWidth: 0
Flags: W
LayerCount: 2
Fore
SplineSet
50 580 m 257
 50 670 l 257
 130 670 l 257
 130 580 l 257
 110 450 l 257
 70 450 l 257
 50 580 l 257
EndSplineSet
EndChar

StartChar: r
Encoding: 114 114 336
GlifName: r
Width: 370
VWidth: 0
Flags: W
LayerCount: 2
Fore
SplineSet
105 0 m 257
 125 0 l 257
 125 280 l 257
 125 373 200 454 287 454 c 256
 301 454 320 452 327 449 c 257
 327 466 l 257
 317 468 297 470 283 470 c 256
 212 470 148 418 125 342 c 257
 124 342 l 257
 121 460 l 257
 105 460 l 257
 105 0 l 257
EndSplineSet
Substitution2: "'smcp' Lowercase to Small Capitals lookup 34 subtable" r.sc
EndChar

StartChar: r.sc
Encoding: 516 -1 337
GlifName: r.sc
Width: 422
VWidth: 0
Flags: W
LayerCount: 2
Fore
SplineSet
113 245 m 257
 208 245 l 258
 268 245 310 265 310 325 c 256
 310 375 269 395 208 395 c 258
 113 395 l 257
 113 245 l 257
33 0 m 257
 33 460 l 257
 208 460 l 258
 312 460 390 430 390 325 c 256
 390 264 350 193 252 183 c 257
 380 0 l 257
 287 0 l 257
 166 180 l 257
 113 180 l 257
 113 0 l 257
 33 0 l 257
EndSplineSet
EndChar

StartChar: racute
Encoding: 517 341 338
GlifName: racute
Width: 370
VWidth: 0
Flags: W
LayerCount: 2
Fore
SplineSet
45 0 m 257
 45 460 l 257
 125 460 l 257
 125 370 l 257
 148 421 212 470 272 470 c 257
 272 470 l 257
 295 470 317 466 335 460 c 257
 335 359 l 257
 312 379 278 390 246 390 c 256
 237 390 228 388 219 385 c 257
 174 368 137 312 125 233 c 257
 125 0 l 257
 45 0 l 257
120 520 m 257
 170 700 l 257
 250 700 l 257
 184 520 l 257
 120 520 l 257
EndSplineSet
EndChar

StartChar: rcaron
Encoding: 518 345 339
GlifName: rcaron
Width: 370
VWidth: 0
Flags: W
LayerCount: 2
Fore
SplineSet
29 710 m 257
 93 710 l 257
 189 583 l 257
 285 710 l 257
 349 710 l 257
 229 530 l 257
 149 530 l 257
 29 710 l 257
45 0 m 257
 45 460 l 257
 125 460 l 257
 125 370 l 257
 148 421 212 470 272 470 c 257
 272 470 l 257
 295 470 317 466 335 460 c 257
 335 359 l 257
 312 379 278 390 246 390 c 256
 237 390 228 388 219 385 c 257
 174 368 137 312 125 233 c 257
 125 0 l 257
 45 0 l 257
EndSplineSet
EndChar

StartChar: rcommaaccent
Encoding: 519 343 340
GlifName: rcommaaccent
Width: 370
VWidth: 0
Flags: W
LayerCount: 2
Fore
SplineSet
45 -60 m 257
 125 -60 l 257
 125 -140 l 257
 79 -270 l 257
 45 -270 l 257
 67 -140 l 257
 45 -140 l 257
 45 -113 45 -87 45 -60 c 257
45 0 m 257
 45 460 l 257
 125 460 l 257
 125 370 l 257
 148 421 212 470 272 470 c 257
 272 470 l 257
 295 470 317 466 335 460 c 257
 335 359 l 257
 312 379 278 390 246 390 c 256
 237 390 228 388 219 385 c 257
 174 368 137 312 125 233 c 257
 125 0 l 257
 45 0 l 257
EndSplineSet
EndChar

StartChar: registered
Encoding: 520 174 341
GlifName: registered
Width: 572
VWidth: 0
Flags: W
LayerCount: 2
Fore
SplineSet
50 228 m 256
 50 358 156 464 286 464 c 256
 416 464 522 357 522 226 c 256
 522 96 416 -10 286 -10 c 256
 156 -10 50 97 50 228 c 256
108 228 m 256
 108 129 188 48 286 48 c 256
 384 48 464 128 464 226 c 256
 464 325 384 406 286 406 c 256
 188 406 108 326 108 228 c 256
199 95 m 257
 199 357 l 257
 302 357 l 257
 351 356 389 331 389 277 c 256
 389 245 376 209 325 204 c 257
 390 95 l 257
 332 95 l 257
 270 203 l 257
 249 203 l 257
 249 95 l 257
 199 95 l 257
249 253 m 257
 302 253 l 258
 334 253 339 259 339 279 c 256
 339 299 330 307 302 307 c 257
 301 307 l 257
 249 307 l 257
 249 253 l 257
EndSplineSet
EndChar

StartChar: ring
Encoding: 521 730 342
GlifName: ring
Width: 222
VWidth: 0
Flags: W
AnchorPoint: "top" 120 520 mark 0
LayerCount: 2
Fore
SplineSet
33 619 m 256
 33 662 68 697 111 697 c 256
 154 697 189 662 189 619 c 256
 189 576 154 541 111 541 c 256
 68 541 33 576 33 619 c 256
80 619 m 256
 80 602 94 588 111 588 c 256
 128 588 142 602 142 619 c 256
 142 636 128 650 111 650 c 256
 94 650 80 636 80 619 c 256
EndSplineSet
EndChar

StartChar: s
Encoding: 115 115 343
GlifName: s
Width: 452
VWidth: 0
Flags: W
AnchorPoint: "top" 210 520 basechar 0
AnchorPoint: "bottom" 230 -60 basechar 0
LayerCount: 2
Fore
SplineSet
35 136 m 257
 57 136 l 257
 57 54 139 10 237 10 c 256
 334 10 395 39 395 130 c 256
 395 269 55 172 55 340 c 256
 55 407 105 470 215 470 c 256
 324 470 397 414 397 336 c 257
 375 336 l 257
 375 384 337 450 215 450 c 256
 107 450 77 385 77 340 c 256
 78 191 417 288 417 130 c 256
 417 10 324 -10 237 -10 c 256
 115 -10 35 52 35 136 c 257
EndSplineSet
Substitution2: "'hist' Historical Forms lookup 37 subtable" longs
Substitution2: "'smcp' Lowercase to Small Capitals lookup 34 subtable" s.sc
EndChar

StartChar: s.sc
Encoding: 522 -1 344
GlifName: s.sc
Width: 429
VWidth: 0
Flags: W
LayerCount: 2
Fore
SplineSet
33 136 m 257
 113 136 l 257
 113 74 166 55 223 55 c 256
 243 55 262 58 279 63 c 257
 312 74 335 96 335 131 c 256
 335 235 54 190 54 341 c 256
 54 400 94 470 223 470 c 256
 304 470 365 424 387 374 c 257
 393 362 396 349 396 337 c 257
 315 337 l 257
 303 373 268 405 223 405 c 256
 150 405 136 375 136 337 c 256
 136 269 416 282 416 141 c 256
 416 9 328 -10 224 -10 c 256
 126 -10 33 62 33 136 c 257
EndSplineSet
EndChar

StartChar: sacute
Encoding: 523 347 345
GlifName: sacute
Width: 452
VWidth: 0
Flags: W
LayerCount: 2
Fore
SplineSet
178 520 m 257
 228 680 l 257
 308 680 l 257
 242 520 l 257
 178 520 l 257
EndSplineSet
Refer: 343 115 N 1 0 0 1 0 0 2
EndChar

StartChar: scedilla
Encoding: 525 351 347
GlifName: scedilla
Width: 452
VWidth: 0
Flags: W
LayerCount: 2
Fore
SplineSet
35 136 m 257
 74 136 l 257
 114 136 l 257
 114 62 192 55 237 55 c 256
 261 55 335 67 335 130 c 256
 335 236 55 185 55 340 c 256
 55 407 105 470 215 470 c 256
 301 470 365 423 388 373 c 257
 394 361 397 348 397 336 c 257
 316 336 l 257
 304 378 265 405 215 405 c 256
 170 405 135 385 135 340 c 256
 135 263 417 288 417 130 c 256
 417 10 314 -10 237 -10 c 256
 133 -10 35 52 35 136 c 257
141 -164 m 257
 154 -167 175 -170 195 -170 c 256
 236 -170 254 -148 254 -118 c 256
 254 -82 205 -70 175 -67 c 257
 206 0 l 257
 267 0 l 257
 244 -46 l 257
 267 -54 311 -70 311 -123 c 256
 311 -177 266 -209 211 -209 c 256
 178 -209 155 -200 141 -193 c 257
 141 -164 l 257
EndSplineSet
EndChar

StartChar: section
Encoding: 253 167 350
GlifName: section
Width: 465
VWidth: 0
Flags: W
LayerCount: 2
Fore
SplineSet
40 400 m 256
 40 457 77 498 123 515 c 257
 99 537 85 571 85 599 c 258
 85 602 l 257
 86 669 153 710 229 710 c 256
 320 710 375 661 375 568 c 257
 295 568 l 257
 295 618 278 645 229 645 c 256
 200 645 165 627 165 591 c 256
 165 560 204 534 239 511 c 258
 360 432 l 257
 399 408 425 378 425 319 c 256
 425 264 382 234 341 215 c 257
 366 199 387 157 387 116 c 256
 387 48 320 -10 233 -10 c 256
 164 -10 95 33 79 112 c 256
 77 123 75 135 75 148 c 257
 155 148 l 257
 155 78 215 55 243 55 c 256
 285 55 319 75 319 112 c 256
 319 143 296 173 247 202 c 256
 211 223 176 244 140 265 c 256
 73 302 40 349 40 400 c 256
120 402 m 256
 120 360 145 342 173 322 c 257
 271 263 l 258
 279 258 287 256 294 256 c 256
 325 256 345 293 345 314 c 256
 345 344 337 371 280 413 c 257
 173 476 l 257
 164 474 157 470 150 465 c 256
 130 450 120 425 120 402 c 256
EndSplineSet
EndChar

StartChar: seven
Encoding: 55 55 352
GlifName: seven
Width: 560
VWidth: 0
Flags: W
LayerCount: 2
Fore
SplineSet
50 678 m 257
 50 701 l 257
 476 701 l 257
 476 679 l 257
 382 565 236 379 236 0 c 257
 225 0 l 257
 214 0 l 257
 215 283 288 486 446 678 c 257
 50 678 l 257
EndSplineSet
Substitution2: "Single Substitution lookup 29 subtable" seven.dnom
Substitution2: "Single Substitution lookup 27 subtable" seven.numr
Substitution2: "Single Substitution lookup 25 subtable" seven.numr
Substitution2: "Single Substitution lookup 23 subtable" seven.numr
Substitution2: "Single Substitution lookup 21 subtable" seven.numr
Substitution2: "Single Substitution lookup 19 subtable" seven.numr
Substitution2: "Single Substitution lookup 17 subtable" seven.numr
Substitution2: "Single Substitution lookup 15 subtable" seven.numr
Substitution2: "Single Substitution lookup 13 subtable" seven.numr
Substitution2: "Single Substitution lookup 11 subtable" seven.numr
Substitution2: "Single Substitution lookup 9 subtable" seven.numr
Substitution2: "'dnom' Denominators lookup 5 subtable" seven.dnom
Substitution2: "'numr' Numerators lookup 4 subtable" seven.numr
Substitution2: "'subs' Subscript lookup 3 subtable" seven.subscript
Substitution2: "'sups' Superscript lookup 2 subtable" seven.superior
Substitution2: "'sinf' Scientific Inferiors lookup 1 subtable" seven.inferior
EndChar

StartChar: seven.dnom
Encoding: 528 -1 353
GlifName: seven.dnom
Width: 381
VWidth: 0
Flags: W
LayerCount: 2
Fore
SplineSet
33 177 m 257
 33 237 l 257
 348 237 l 257
 348 184 l 257
 300 123 l 257
 238 38 188 -63 188 -230 c 257
 120 -230 l 257
 120 -24 202 79 288 177 c 257
 33 177 l 257
EndSplineSet
EndChar

StartChar: seven.inferior
Encoding: 529 -1 354
GlifName: seven.inferior
Width: 381
VWidth: 0
Flags: W
LayerCount: 2
Fore
SplineSet
33 7 m 257
 348 7 l 257
 348 -46 l 257
 300 -107 l 257
 238 -192 188 -293 188 -460 c 257
 120 -460 l 257
 120 -254 202 -151 288 -53 c 257
 33 -53 l 257
 33 7 l 257
EndSplineSet
EndChar

StartChar: seven.numr
Encoding: 530 -1 355
GlifName: seven.numr
Width: 381
VWidth: 0
Flags: W
LayerCount: 2
Fore
SplineSet
33 637 m 257
 33 697 l 257
 348 697 l 257
 348 644 l 257
 300 583 l 257
 238 498 188 397 188 230 c 257
 120 230 l 257
 120 436 202 539 288 637 c 257
 33 637 l 257
EndSplineSet
EndChar

StartChar: seven.subscript
Encoding: 531 -1 356
GlifName: seven.subscript
Width: 381
VWidth: 0
Flags: W
LayerCount: 2
Fore
SplineSet
33 85 m 257
 33 145 l 257
 348 145 l 257
 348 92 l 257
 300 31 l 257
 238 -54 188 -155 188 -322 c 257
 120 -322 l 257
 120 -116 202 -13 288 85 c 257
 33 85 l 257
EndSplineSet
EndChar

StartChar: seven.superior
Encoding: 532 -1 357
GlifName: seven.superior
Width: 381
VWidth: 0
Flags: W
LayerCount: 2
Fore
SplineSet
33 821 m 257
 33 881 l 257
 348 881 l 257
 348 828 l 257
 300 767 l 257
 238 682 188 581 188 414 c 257
 120 414 l 257
 120 620 202 723 288 821 c 257
 33 821 l 257
EndSplineSet
EndChar

StartChar: six
Encoding: 54 54 358
GlifName: six
Width: 528
VWidth: 0
Flags: W
LayerCount: 2
Fore
SplineSet
61 230 m 257
 64 155 99 10 266 10 c 256
 360 10 467 76 467 224 c 256
 467 348 386 433 274 433 c 258
 271 433 l 257
 168 434 61 352 61 232 c 257
 61 231 61 231 61 230 c 257
36 300 m 256
 36 539 86 700 266 700 c 256
 377 700 435 656 467 573 c 257
 464 573 448 572 445 572 c 257
 428 603 402 680 266 680 c 256
 162 680 59 626 59 322 c 257
 60 322 61 322 62 322 c 257
 94 398 177 454 275 453 c 256
 393 452 489 372 489 223 c 256
 489 81 395 -10 266 -10 c 256
 86 -10 36 119 36 300 c 256
EndSplineSet
Substitution2: "Single Substitution lookup 29 subtable" six.dnom
Substitution2: "Single Substitution lookup 27 subtable" six.numr
Substitution2: "Single Substitution lookup 25 subtable" six.numr
Substitution2: "Single Substitution lookup 23 subtable" six.numr
Substitution2: "Single Substitution lookup 21 subtable" six.numr
Substitution2: "Single Substitution lookup 19 subtable" six.numr
Substitution2: "Single Substitution lookup 17 subtable" six.numr
Substitution2: "Single Substitution lookup 15 subtable" six.numr
Substitution2: "Single Substitution lookup 13 subtable" six.numr
Substitution2: "Single Substitution lookup 11 subtable" six.numr
Substitution2: "Single Substitution lookup 9 subtable" six.numr
Substitution2: "'dnom' Denominators lookup 5 subtable" six.dnom
Substitution2: "'numr' Numerators lookup 4 subtable" six.numr
Substitution2: "'subs' Subscript lookup 3 subtable" six.subscript
Substitution2: "'sups' Superscript lookup 2 subtable" six.superior
Substitution2: "'sinf' Scientific Inferiors lookup 1 subtable" six.inferior
EndChar

StartChar: six.dnom
Encoding: 533 -1 359
GlifName: six.dnom
Width: 367
VWidth: 0
Flags: W
LayerCount: 2
Fore
SplineSet
89 -75 m 257
 89 -76 l 257
 90 -130 99 -177 182 -177 c 256
 245 -177 274 -130 274 -76 c 256
 274 1 224 18 190 18 c 256
 146 18 89 1 89 -75 c 257
24 -30 m 256
 24 130 59 244 184 244 c 256
 260 244 304 209 324 149 c 257
 302 149 280 148 258 148 c 257
 245 170 235 184 183 184 c 256
 166 184 152 181 140 175 c 256
 94 151 90 85 89 7 c 257
 90 7 90 7 91 7 c 257
 109 46 146 74 194 74 c 256
 275 74 341 20 341 -80 c 256
 341 -175 275 -237 185 -237 c 256
 59 -237 24 -151 24 -30 c 256
EndSplineSet
EndChar

StartChar: six.inferior
Encoding: 534 -1 360
GlifName: six.inferior
Width: 367
VWidth: 0
Flags: W
LayerCount: 2
Fore
SplineSet
89 -305 m 257
 89 -306 l 257
 90 -360 99 -407 182 -407 c 256
 244 -407 274 -360 274 -306 c 256
 274 -229 224 -212 190 -212 c 256
 144 -212 89 -231 89 -305 c 257
24 -260 m 256
 24 -100 59 14 184 14 c 256
 260 14 304 -21 324 -81 c 257
 302 -81 280 -82 258 -82 c 257
 245 -60 235 -46 183 -46 c 256
 166 -46 152 -49 140 -55 c 256
 94 -79 90 -145 89 -223 c 257
 90 -223 90 -223 91 -223 c 257
 109 -184 146 -156 194 -156 c 256
 275 -156 341 -210 341 -310 c 256
 341 -405 275 -467 185 -467 c 256
 59 -467 24 -381 24 -260 c 256
EndSplineSet
EndChar

StartChar: six.numr
Encoding: 535 -1 361
GlifName: six.numr
Width: 367
VWidth: 0
Flags: W
LayerCount: 2
Fore
SplineSet
89 384 m 257
 90 330 99 283 182 283 c 256
 245 283 274 330 274 384 c 256
 274 461 224 478 190 478 c 256
 146 478 89 461 89 385 c 257
 89 384 l 257
24 430 m 256
 24 590 59 704 184 704 c 256
 260 704 304 669 324 609 c 257
 302 609 280 608 258 608 c 257
 245 630 235 644 183 644 c 256
 166 644 152 641 140 635 c 256
 94 611 90 545 89 467 c 257
 90 467 90 467 91 467 c 257
 109 506 146 534 194 534 c 256
 275 534 341 480 341 380 c 256
 341 285 275 223 185 223 c 256
 59 223 24 309 24 430 c 256
EndSplineSet
EndChar

StartChar: six.subscript
Encoding: 536 -1 362
GlifName: six.subscript
Width: 367
VWidth: 0
Flags: W
LayerCount: 2
Fore
SplineSet
89 -167 m 257
 89 -168 l 257
 90 -222 99 -269 182 -269 c 256
 245 -269 274 -222 274 -168 c 256
 274 -91 224 -74 190 -74 c 256
 146 -74 89 -91 89 -167 c 257
24 -122 m 256
 24 38 59 152 184 152 c 256
 260 152 304 117 324 57 c 257
 302 57 280 56 258 56 c 257
 245 78 235 92 183 92 c 256
 166 92 152 89 140 83 c 256
 94 59 90 -7 89 -85 c 257
 90 -85 90 -85 91 -85 c 257
 109 -46 146 -18 194 -18 c 256
 275 -18 341 -72 341 -172 c 256
 341 -267 275 -329 185 -329 c 256
 59 -329 24 -243 24 -122 c 256
EndSplineSet
EndChar

StartChar: six.superior
Encoding: 537 -1 363
GlifName: six.superior
Width: 367
VWidth: 0
Flags: W
LayerCount: 2
Fore
SplineSet
89 568 m 257
 90 514 99 467 182 467 c 256
 245 467 274 514 274 568 c 256
 274 641 226 662 190 662 c 256
 144 662 89 643 89 569 c 257
 89 568 l 257
24 614 m 256
 24 774 59 888 184 888 c 256
 260 888 304 853 324 793 c 257
 302 793 280 792 258 792 c 257
 245 814 235 828 183 828 c 256
 166 828 152 825 140 819 c 256
 94 795 90 729 89 651 c 257
 90 651 90 651 91 651 c 257
 109 690 146 718 194 718 c 256
 275 718 341 664 341 564 c 256
 341 469 275 407 185 407 c 256
 59 407 24 493 24 614 c 256
EndSplineSet
EndChar

StartChar: slash
Encoding: 47 47 364
GlifName: slash
Width: 419
VWidth: 0
Flags: HW
LayerCount: 2
Fore
SplineSet
63 0 m 261
 334 700 l 261
 356 700 l 261
 86 0 l 261
 63 0 l 261
EndSplineSet
Substitution2: "Single Substitution lookup 7 subtable" fraction
EndChar

StartChar: sterling
Encoding: 538 163 366
GlifName: sterling
Width: 495
VWidth: 0
Flags: W
LayerCount: 2
Fore
SplineSet
13 63 m 257
 19 66 28 72 38 80 c 256
 69 104 113 152 113 233 c 256
 113 260 109 273 106 287 c 257
 21 287 l 257
 21 352 l 257
 88 352 l 257
 72 404 66 433 66 466 c 256
 66 591 166 648 263 648 c 256
 355 648 429 599 452 500 c 258
 456 483 l 257
 377 472 l 257
 366 547 319 584 262 584 c 256
 191 584 150 530 150 477 c 256
 150 433 163 386 174 352 c 257
 311 352 l 257
 311 287 l 257
 192 287 l 257
 195 277 197 262 197 249 c 256
 197 186 162 129 118 85 c 257
 120 83 l 257
 132 87 153 93 181 93 c 256
 197 93 225 91 263 82 c 257
 273 79 309 70 338 66 c 257
 348 65 356 64 363 64 c 256
 393 64 429 79 447 88 c 257
 473 16 l 257
 435 1 405 -11 367 -11 c 256
 359 -11 350 -11 343 -10 c 256
 328 -8 316 -5 306 -2 c 258
 263 11 l 257
 241 17 223 24 199 27 c 256
 191 28 183 28 175 28 c 256
 133 28 80 12 44 -12 c 257
 13 63 l 257
EndSplineSet
EndChar

StartChar: t
Encoding: 116 116 367
GlifName: t
Width: 331
VWidth: 0
Flags: W
LayerCount: 2
Fore
SplineSet
30 437 m 257
 30 453 l 257
 105 459 l 257
 269 459 l 257
 269 437 l 257
 30 437 l 257
105 179 m 258
 105 464 l 257
 111 609 l 257
 127 609 l 257
 127 179 l 258
 127 54 133 12 300 12 c 257
 300 -10 l 257
 118 -10 105 43 105 179 c 258
EndSplineSet
Substitution2: "'smcp' Lowercase to Small Capitals lookup 34 subtable" t.sc
EndChar

StartChar: t.sc
Encoding: 539 -1 368
GlifName: t.sc
Width: 388
VWidth: 0
Flags: W
LayerCount: 2
Fore
SplineSet
33 395 m 257
 33 460 l 257
 356 460 l 257
 356 395 l 257
 238 395 l 257
 238 0 l 257
 158 0 l 257
 158 395 l 257
 33 395 l 257
EndSplineSet
EndChar

StartChar: tbar
Encoding: 540 359 369
GlifName: tbar
Width: 331
VWidth: 0
Flags: W
LayerCount: 2
Fore
SplineSet
30 380 m 257
 30 460 l 257
 105 460 l 257
 105 580 l 257
 185 580 l 257
 185 460 l 257
 290 460 l 257
 290 380 l 257
 185 380 l 257
 185 312 l 257
 270 312 l 257
 270 238 l 257
 242 238 213 238 185 238 c 257
 185 219 184 200 184 181 c 256
 184 83 197 57 266 56 c 257
 300 56 l 257
 300 -9 l 257
 267 -9 l 257
 116 2 105 41 105 180 c 258
 105 238 l 257
 50 238 l 257
 50 312 l 257
 105 312 l 257
 105 380 l 257
 30 380 l 257
EndSplineSet
EndChar

StartChar: three
Encoding: 51 51 371
GlifName: three
Width: 520
VWidth: 0
Flags: W
LayerCount: 2
Fore
SplineSet
41 160 m 257
 63 160 l 257
 63 93 150 12 266 12 c 256
 395 12 470 106 470 188 c 256
 470 258 412 366 266 366 c 258
 189 366 l 257
 189 388 l 257
 235 388 l 258
 338 388 408 465 408 532 c 256
 408 624 328 688 235 688 c 256
 132 688 63 608 63 551 c 257
 41 551 l 257
 41 623 123 710 235 710 c 256
 324 710 430 651 430 535 c 256
 430 481 395 408 308 378 c 257
 306 385 l 257
 414 371 492 278 492 191 c 256
 492 84 397 -10 266 -10 c 256
 154 -10 41 67 41 160 c 257
EndSplineSet
Substitution2: "Single Substitution lookup 29 subtable" three.dnom
Substitution2: "Single Substitution lookup 27 subtable" three.numr
Substitution2: "Single Substitution lookup 25 subtable" three.numr
Substitution2: "Single Substitution lookup 23 subtable" three.numr
Substitution2: "Single Substitution lookup 21 subtable" three.numr
Substitution2: "Single Substitution lookup 19 subtable" three.numr
Substitution2: "Single Substitution lookup 17 subtable" three.numr
Substitution2: "Single Substitution lookup 15 subtable" three.numr
Substitution2: "Single Substitution lookup 13 subtable" three.numr
Substitution2: "Single Substitution lookup 11 subtable" three.numr
Substitution2: "Single Substitution lookup 9 subtable" three.numr
Substitution2: "'dnom' Denominators lookup 5 subtable" three.dnom
Substitution2: "'numr' Numerators lookup 4 subtable" three.numr
Substitution2: "'subs' Subscript lookup 3 subtable" three.subscript
Substitution2: "'sups' Superscript lookup 2 subtable" uni00B3
Substitution2: "'sinf' Scientific Inferiors lookup 1 subtable" three.inferior
EndChar

StartChar: three.dnom
Encoding: 542 -1 372
GlifName: three.dnom
Width: 375
VWidth: 0
Flags: W
LayerCount: 2
Fore
SplineSet
27 -121 m 257
 92 -121 l 257
 92 -168 160 -177 180 -177 c 256
 229 -177 281 -157 281 -96 c 256
 281 -25 230 -10 169 -10 c 258
 136 -10 l 257
 136 51 l 257
 169 51 l 258
 196 51 214 54 226 64 c 256
 238 74 243 92 243 123 c 256
 243 161 212 184 166 184 c 256
 127 184 92 166 92 135 c 257
 27 135 l 257
 27 144 28 154 30 162 c 256
 43 212 93 244 165 244 c 256
 255 244 311 204 311 125 c 256
 311 84 286 46 241 26 c 257
 300 17 349 -14 349 -97 c 256
 349 -195 274 -237 180 -237 c 256
 136 -237 55 -223 33 -158 c 256
 29 -147 27 -135 27 -121 c 257
EndSplineSet
EndChar

StartChar: three.inferior
Encoding: 543 -1 373
GlifName: three.inferior
Width: 375
VWidth: 0
Flags: W
LayerCount: 2
Fore
SplineSet
27 -95 m 257
 27 -86 28 -76 30 -68 c 256
 43 -18 93 14 165 14 c 256
 255 14 311 -26 311 -105 c 256
 311 -146 286 -184 241 -204 c 257
 300 -213 349 -244 349 -327 c 256
 349 -425 274 -467 180 -467 c 256
 136 -467 55 -453 33 -388 c 256
 29 -377 27 -365 27 -351 c 257
 92 -351 l 257
 92 -363 96 -373 103 -380 c 257
 123 -402 166 -407 180 -407 c 256
 228 -407 281 -387 281 -326 c 256
 281 -255 230 -240 169 -240 c 258
 136 -240 l 257
 136 -179 l 257
 169 -179 l 258
 196 -179 214 -176 226 -166 c 256
 238 -156 243 -138 243 -107 c 256
 243 -69 212 -46 166 -46 c 256
 128 -46 92 -63 92 -95 c 257
 27 -95 l 257
EndSplineSet
EndChar

StartChar: three.numr
Encoding: 544 -1 374
GlifName: three.numr
Width: 375
VWidth: 0
Flags: W
LayerCount: 2
Fore
SplineSet
27 339 m 257
 92 339 l 257
 92 292 160 283 180 283 c 256
 228 283 281 303 281 364 c 256
 281 436 229 450 169 450 c 258
 136 450 l 257
 136 511 l 257
 169 511 l 258
 196 511 214 514 226 524 c 256
 238 534 243 552 243 583 c 256
 243 621 212 644 166 644 c 256
 127 644 92 626 92 595 c 257
 27 595 l 257
 27 604 28 614 30 622 c 256
 43 672 93 704 165 704 c 256
 255 704 311 664 311 585 c 256
 311 544 286 506 241 486 c 257
 300 477 349 446 349 363 c 256
 349 265 274 223 180 223 c 256
 136 223 55 237 33 302 c 256
 29 313 27 325 27 339 c 257
EndSplineSet
EndChar

StartChar: three.subscript
Encoding: 545 -1 375
GlifName: three.subscript
Width: 375
VWidth: 0
Flags: W
LayerCount: 2
Fore
SplineSet
27 43 m 257
 27 52 28 62 30 70 c 256
 43 120 93 152 165 152 c 256
 255 152 311 112 311 33 c 256
 311 -8 286 -46 241 -66 c 257
 300 -75 349 -106 349 -189 c 256
 349 -287 274 -329 180 -329 c 256
 136 -329 55 -315 33 -250 c 256
 29 -239 27 -227 27 -213 c 257
 92 -213 l 257
 92 -260 160 -269 180 -269 c 256
 229 -269 281 -249 281 -188 c 256
 281 -117 230 -102 169 -102 c 258
 136 -102 l 257
 136 -41 l 257
 169 -41 l 258
 196 -41 214 -38 226 -28 c 256
 238 -18 243 0 243 31 c 256
 243 69 212 92 166 92 c 256
 127 92 92 74 92 43 c 257
 27 43 l 257
EndSplineSet
EndChar

StartChar: three.superior
Encoding: 546 -1 376
GlifName: three.superior
Width: 375
VWidth: 0
Flags: W
LayerCount: 2
Fore
SplineSet
27 523 m 257
 92 523 l 257
 92 511 96 501 103 494 c 257
 123 472 166 467 180 467 c 256
 228 467 281 487 281 548 c 256
 281 619 230 634 169 634 c 258
 136 634 l 257
 136 695 l 257
 169 695 l 258
 196 695 214 698 226 708 c 256
 238 718 243 736 243 767 c 256
 243 805 212 828 166 828 c 256
 128 828 92 811 92 779 c 257
 27 779 l 257
 27 788 28 798 30 806 c 256
 43 856 93 888 165 888 c 256
 255 888 311 848 311 769 c 256
 311 728 286 690 241 670 c 257
 300 661 349 630 349 547 c 256
 349 449 274 407 180 407 c 256
 136 407 55 421 33 486 c 256
 29 497 27 509 27 523 c 257
EndSplineSet
EndChar

StartChar: threequarters
Encoding: 547 190 377
GlifName: threequarters
Width: 742
VWidth: 0
Flags: W
LayerCount: 2
Fore
SplineSet
23 404 m 257
 86 410 l 257
 93 392 104 361 153 361 c 256
 191 361 222 384 222 419 c 256
 222 454 195 464 169 466 c 257
 163 467 158 467 153 467 c 256
 145 467 141 467 129 466 c 257
 138 514 l 257
 165 514 206 523 206 558 c 256
 206 568 202 577 194 584 c 256
 186 591 172 596 154 596 c 256
 114 596 101 577 93 553 c 257
 30 562 l 257
 47 612 77 645 155 645 c 256
 159 645 169 645 181 644 c 257
 217 640 274 625 274 564 c 256
 274 534 256 506 214 495 c 257
 214 485 289 460 289 411 c 256
 289 366 256 322 186 313 c 256
 177 312 168 311 158 311 c 256
 71 311 31 351 23 404 c 257
109 -22 m 257
 589 651 l 257
 657 651 l 257
 178 -22 l 257
 109 -22 l 257
495 101 m 257
 595 101 l 257
 595 214 l 257
 495 101 l 257
428 53 m 257
 428 107 l 257
 603 312 l 257
 657 312 l 257
 657 101 l 257
 702 101 l 257
 702 53 l 257
 657 53 l 257
 657 -13 l 257
 595 -13 l 257
 595 53 l 257
 428 53 l 257
EndSplineSet
EndChar

StartChar: tilde
Encoding: 548 732 378
GlifName: tilde
Width: 406
VWidth: 0
Flags: W
AnchorPoint: "top" 203 520 mark 0
LayerCount: 2
Fore
SplineSet
50 540 m 257
 64 627 100 660 140 660 c 256
 165 660 187 650 209 639 c 257
 225 630 246 620 266 620 c 256
 286 620 301 632 306 660 c 257
 356 660 l 257
 342 573 306 540 266 540 c 256
 241 540 220 549 199 560 c 256
 182 569 160 580 140 580 c 256
 120 580 105 568 100 540 c 257
 50 540 l 257
EndSplineSet
EndChar

StartChar: tildecomb
Encoding: 549 771 379
GlifName: tildecomb
Width: 0
VWidth: 0
AnchorPoint: "top" -203 520 mark 0
LayerCount: 2
Fore
SplineSet
-356 540 m 257
 -342 627 -306 660 -266 660 c 256
 -241 660 -219 650 -197 639 c 257
 -181 630 -160 620 -140 620 c 256
 -120 620 -105 632 -100 660 c 257
 -50 660 l 257
 -64 573 -100 540 -140 540 c 256
 -165 540 -186 549 -207 560 c 256
 -224 569 -246 580 -266 580 c 256
 -286 580 -301 568 -306 540 c 257
 -356 540 l 257
EndSplineSet
EndChar

StartChar: trademark
Encoding: 550 8482 380
GlifName: trademark
Width: 890
VWidth: 0
Flags: W
LayerCount: 2
Fore
SplineSet
89 585 m 257
 89 637 l 257
 378 637 l 257
 378 585 l 257
 263 585 l 257
 263 283 l 257
 204 283 l 257
 204 585 l 257
 89 585 l 257
418 283 m 257
 418 637 l 257
 506 637 l 257
 594 354 l 257
 595 354 l 257
 681 637 l 257
 766 637 l 257
 766 283 l 257
 712 283 l 257
 712 580 l 257
 710 580 l 257
 621 283 l 257
 568 283 l 257
 474 585 l 257
 473 585 l 257
 473 283 l 257
 418 283 l 257
EndSplineSet
EndChar

StartChar: two
Encoding: 50 50 381
GlifName: two
Width: 528
VWidth: 0
Flags: W
LayerCount: 2
Fore
SplineSet
56 0 m 257
 56 22 l 257
 238 187 469 361 469 497 c 256
 469 615 377 677 258 677 c 256
 147 677 55 586 55 468 c 257
 35 468 l 257
 35 604 146 699 258 699 c 256
 379 699 489 637 489 497 c 256
 489 343 257 176 89 22 c 257
 512 22 l 257
 512 0 l 257
 56 0 l 257
EndSplineSet
Substitution2: "Single Substitution lookup 29 subtable" two.dnom
Substitution2: "Single Substitution lookup 27 subtable" two.numr
Substitution2: "Single Substitution lookup 25 subtable" two.numr
Substitution2: "Single Substitution lookup 23 subtable" two.numr
Substitution2: "Single Substitution lookup 21 subtable" two.numr
Substitution2: "Single Substitution lookup 19 subtable" two.numr
Substitution2: "Single Substitution lookup 17 subtable" two.numr
Substitution2: "Single Substitution lookup 15 subtable" two.numr
Substitution2: "Single Substitution lookup 13 subtable" two.numr
Substitution2: "Single Substitution lookup 11 subtable" two.numr
Substitution2: "Single Substitution lookup 9 subtable" two.numr
Substitution2: "'dnom' Denominators lookup 5 subtable" two.dnom
Substitution2: "'numr' Numerators lookup 4 subtable" two.numr
Substitution2: "'subs' Subscript lookup 3 subtable" two.subscript
Substitution2: "'sups' Superscript lookup 2 subtable" uni00B2
Substitution2: "'sinf' Scientific Inferiors lookup 1 subtable" two.inferior
EndChar

StartChar: two.dnom
Encoding: 551 -1 382
GlifName: two.dnom
Width: 368
VWidth: 0
Flags: W
LayerCount: 2
Fore
SplineSet
24 88 m 257
 24 107 27 125 32 141 c 256
 52 205 109 244 181 244 c 256
 308 244 344 191 344 112 c 256
 344 7 186 -93 122 -162 c 257
 359 -162 l 257
 359 -230 l 257
 41 -230 l 257
 41 -171 l 257
 41 -171 l 257
 54 -155 68 -140 81 -126 c 256
 175 -28 276 26 276 97 c 256
 276 149 265 184 181 184 c 256
 122 184 94 140 91 89 c 257
 69 89 46 88 24 88 c 257
EndSplineSet
EndChar

StartChar: two.inferior
Encoding: 552 -1 383
GlifName: two.inferior
Width: 368
VWidth: 0
Flags: W
LayerCount: 2
Fore
SplineSet
24 -142 m 257
 24 -123 27 -105 32 -89 c 256
 52 -25 109 14 181 14 c 256
 308 14 344 -39 344 -118 c 256
 344 -223 186 -323 122 -392 c 257
 359 -392 l 257
 359 -460 l 257
 41 -460 l 257
 41 -401 l 257
 41 -401 l 257
 144 -274 276 -214 276 -133 c 256
 276 -81 265 -46 181 -46 c 256
 122 -46 94 -90 91 -141 c 257
 69 -141 46 -142 24 -142 c 257
EndSplineSet
EndChar

StartChar: two.numr
Encoding: 553 -1 384
GlifName: two.numr
Width: 368
VWidth: 0
Flags: W
LayerCount: 2
Fore
SplineSet
24 548 m 257
 24 567 27 585 32 601 c 256
 52 665 109 704 181 704 c 256
 308 704 344 651 344 572 c 256
 344 467 186 367 122 298 c 257
 359 298 l 257
 359 230 l 257
 41 230 l 257
 41 289 l 257
 41 289 l 257
 144 416 276 476 276 557 c 256
 276 609 265 644 181 644 c 256
 122 644 94 600 91 549 c 257
 69 549 46 548 24 548 c 257
EndSplineSet
EndChar

StartChar: two.subscript
Encoding: 554 -1 385
GlifName: two.subscript
Width: 368
VWidth: 0
Flags: W
LayerCount: 2
Fore
SplineSet
24 -4 m 257
 24 15 27 33 32 49 c 256
 52 113 109 152 181 152 c 256
 308 152 344 99 344 20 c 256
 344 -85 186 -185 122 -254 c 257
 359 -254 l 257
 359 -322 l 257
 41 -322 l 257
 41 -263 l 257
 41 -263 l 257
 54 -247 68 -232 81 -218 c 256
 175 -120 276 -66 276 5 c 256
 276 57 265 92 181 92 c 256
 122 92 94 48 91 -3 c 257
 69 -3 46 -4 24 -4 c 257
EndSplineSet
EndChar

StartChar: two.superior
Encoding: 555 -1 386
GlifName: two.superior
Width: 368
VWidth: 0
Flags: W
LayerCount: 2
Fore
SplineSet
24 732 m 257
 24 751 27 769 32 785 c 256
 52 849 109 888 181 888 c 256
 308 888 344 835 344 756 c 256
 344 651 186 551 122 482 c 257
 359 482 l 257
 359 414 l 257
 41 414 l 257
 41 473 l 257
 41 473 l 257
 144 600 276 660 276 741 c 256
 276 793 265 828 181 828 c 256
 122 828 94 784 91 733 c 257
 69 733 46 732 24 732 c 257
EndSplineSet
EndChar

StartChar: u
Encoding: 117 117 387
GlifName: u
Width: 478
VWidth: 0
Flags: W
AnchorPoint: "top" 239 520 basechar 0
LayerCount: 2
Fore
SplineSet
410 460 m 257
 410 0 l 257
 394 0 l 257
 390 120 l 257
 390 460 l 257
 410 460 l 257
216 -10 m 256
 130 -10 71 53 71 145 c 258
 71 460 l 257
 91 460 l 257
 91 145 l 258
 91 62 145 6 225 6 c 256
 307 6 390 84 390 160 c 257
 403 160 l 257
 403 119 l 257
 397 119 l 257
 402 122 l 257
 367 43 293 -10 216 -10 c 256
EndSplineSet
Substitution2: "'smcp' Lowercase to Small Capitals lookup 34 subtable" u.sc
EndChar

StartChar: u.sc
Encoding: 556 -1 388
GlifName: u.sc
Width: 409
VWidth: 0
Flags: W
LayerCount: 2
Fore
SplineSet
33 161 m 258
 33 460 l 257
 113 460 l 257
 113 162 l 258
 113 83 155 55 211 55 c 256
 269 55 297 83 297 162 c 258
 297 460 l 257
 324 460 350 460 377 460 c 257
 377 161 l 258
 377 72 343 -10 211 -10 c 256
 64 -10 33 76 33 161 c 258
EndSplineSet
EndChar

StartChar: underscore
Encoding: 95 95 396
GlifName: underscore
Width: 545
VWidth: 0
Flags: W
LayerCount: 2
Fore
SplineSet
20 -46 m 257
 525 -46 l 257
 525 -68 l 257
 20 -68 l 257
 20 -46 l 257
EndSplineSet
EndChar

StartChar: uni00AD
Encoding: 173 173 403
GlifName: uni00A_D_
Width: 320
VWidth: 0
Flags: W
LayerCount: 2
Fore
SplineSet
50 210 m 257
 50 275 l 257
 270 275 l 257
 270 210 l 257
 50 210 l 257
EndSplineSet
EndChar

StartChar: uni00B2
Encoding: 564 178 404
GlifName: uni00B_2
Width: 296
VWidth: 0
Flags: W
LayerCount: 2
Fore
SplineSet
11 319 m 257
 12 327 14 335 17 343 c 257
 33 382 75 417 123 452 c 256
 190 501 211 516 211 546 c 256
 211 577 188 594 151 594 c 256
 103 594 96 574 85 545 c 257
 20 551 l 257
 25 568 l 257
 36 600 62 645 152 645 c 256
 172 645 279 643 279 557 c 256
 279 478 167 425 113 371 c 257
 281 371 l 257
 281 319 l 257
 45 319 l 257
 11 319 l 257
EndSplineSet
EndChar

StartChar: uni00B3
Encoding: 565 179 405
GlifName: uni00B_3
Width: 296
VWidth: 0
Flags: W
LayerCount: 2
Fore
SplineSet
14 404 m 257
 77 410 l 257
 84 392 95 361 144 361 c 256
 182 361 213 384 213 419 c 256
 213 454 186 464 160 466 c 257
 154 467 149 467 144 467 c 256
 136 467 132 467 120 466 c 257
 129 514 l 257
 151 514 198 520 198 558 c 256
 198 577 183 596 145 596 c 256
 105 596 92 577 84 553 c 257
 21 562 l 257
 38 612 68 645 146 645 c 256
 163 645 265 645 265 564 c 256
 265 534 248 506 206 495 c 257
 206 485 280 460 280 411 c 256
 280 360 238 311 149 311 c 256
 63 311 22 351 14 404 c 257
EndSplineSet
EndChar

StartChar: uni00B9
Encoding: 566 185 406
GlifName: uni00B_9
Width: 296
VWidth: 0
Flags: W
LayerCount: 2
Fore
SplineSet
46 510 m 257
 46 564 l 257
 69 572 91 584 115 602 c 256
 131 614 147 629 159 645 c 257
 206 645 l 257
 206 319 l 257
 143 319 l 257
 143 560 l 257
 118 539 79 518 46 510 c 257
EndSplineSet
EndChar

StartChar: uni01C4
Encoding: 569 452 409
GlifName: uni01C_4
Width: 1170
VWidth: 0
Flags: W
LayerCount: 2
Fore
SplineSet
755 950 m 257
 819 950 l 257
 915 823 l 257
 1011 950 l 257
 1075 950 l 257
 955 770 l 257
 875 770 l 257
 755 950 l 257
710 0 m 257
 710 80 l 257
 1030 620 l 257
 710 620 l 257
 710 700 l 257
 1120 700 l 257
 1120 620 l 257
 800 80 l 257
 1120 80 l 257
 1120 0 l 257
 710 0 l 257
50 0 m 257
 50 700 l 257
 328 700 l 258
 518 700 610 550 610 350 c 256
 610 147 519 0 328 0 c 258
 50 0 l 257
140 80 m 257
 328 80 l 258
 478 80 520 241 520 350 c 256
 520 498 477 620 328 620 c 258
 140 620 l 257
 140 80 l 257
EndSplineSet
EndChar

StartChar: uni01C5
Encoding: 570 453 410
GlifName: uni01C_5
Width: 1110
VWidth: 0
Flags: W
LayerCount: 2
Fore
SplineSet
730 710 m 257
 794 710 l 257
 890 583 l 257
 986 710 l 257
 1050 710 l 257
 930 530 l 257
 850 530 l 257
 730 710 l 257
700 0 m 257
 700 65 l 257
 970 395 l 257
 700 395 l 257
 700 460 l 257
 1070 460 l 257
 1070 395 l 257
 810 65 l 257
 1070 65 l 257
 1070 0 l 257
 700 0 l 257
50 0 m 257
 50 700 l 257
 328 700 l 258
 518 700 610 550 610 350 c 256
 610 147 519 0 328 0 c 258
 50 0 l 257
140 80 m 257
 328 80 l 258
 478 80 520 241 520 350 c 256
 520 498 477 620 328 620 c 258
 140 620 l 257
 140 80 l 257
EndSplineSet
EndChar

StartChar: uni01C6
Encoding: 571 454 411
GlifName: uni01C_6
Width: 941
VWidth: 0
Flags: W
LayerCount: 2
Fore
SplineSet
561 710 m 257
 625 710 l 257
 721 583 l 257
 817 710 l 257
 881 710 l 257
 761 530 l 257
 681 530 l 257
 561 710 l 257
531 0 m 257
 531 65 l 257
 801 395 l 257
 531 395 l 257
 531 460 l 257
 901 460 l 257
 901 395 l 257
 641 65 l 257
 901 65 l 257
 901 0 l 257
 531 0 l 257
35 230 m 257
 36 231 l 257
 36 345 92 471 226 471 c 256
 286 471 338 437 366 381 c 257
 366 700 l 257
 446 700 l 257
 446 231 l 258
 446 154 446 77 446 0 c 257
 366 0 l 257
 366 72 l 257
 343 21 283 -10 225 -10 c 256
 96 -10 35 100 35 230 c 257
115 230 m 256
 115 123 156 55 245 55 c 256
 324 55 365 123 365 230 c 256
 365 321 330 405 245 405 c 256
 135 405 115 305 115 230 c 256
EndSplineSet
EndChar

StartChar: uni01C9
Encoding: 574 457 414
GlifName: uni01C_9
Width: 450
VWidth: 0
Flags: W
LayerCount: 2
Fore
SplineSet
300 560 m 257
 300 640 l 257
 380 640 l 257
 380 560 l 257
 300 560 l 257
152 -100 m 257
 217 -100 l 257
 220 -132 241 -140 256 -140 c 256
 280 -140 300 -136 300 -80 c 258
 300 460 l 257
 380 460 l 257
 380 -60 l 258
 380 -181 324 -200 260 -200 c 256
 204 -200 156 -162 152 -100 c 257
EndSplineSet
Refer: 259 108 N 1 0 0 1 -20 0 2
EndChar

StartChar: uni01CB
Encoding: 576 459 416
GlifName: uni01C_B_
Width: 830
VWidth: 0
Flags: W
LayerCount: 2
Fore
SplineSet
680 560 m 257
 680 640 l 257
 760 640 l 257
 760 560 l 257
 680 560 l 257
532 -100 m 257
 597 -100 l 257
 600 -132 621 -140 636 -140 c 256
 660 -140 680 -136 680 -80 c 258
 680 460 l 257
 760 460 l 257
 760 -60 l 258
 760 -181 704 -200 640 -200 c 256
 584 -200 536 -162 532 -100 c 257
EndSplineSet
Refer: 66 78 N 1 0 0 1 -120 0 2
EndChar

StartChar: uni01D5
Encoding: 586 469 426
GlifName: uni01D_5
Width: 560
VWidth: 0
Flags: W
LayerCount: 2
Fore
SplineSet
145 910 m 257
 145 975 l 257
 415 975 l 257
 415 910 l 257
 145 910 l 257
161 770 m 257
 161 850 l 257
 241 850 l 257
 241 770 l 257
 161 770 l 257
318 770 m 257
 318 850 l 257
 398 850 l 257
 398 770 l 257
 318 770 l 257
49 224 m 258
 49 700 l 257
 139 700 l 257
 139 274 l 258
 139 231 146 195 159 166 c 256
 185 109 232 80 289 80 c 256
 378 80 419 147 419 274 c 258
 419 700 l 257
 509 700 l 257
 509 224 l 258
 509 100 464 -10 289 -10 c 256
 91 -10 49 106 49 224 c 258
EndSplineSet
EndChar

StartChar: uni01D7
Encoding: 588 471 428
GlifName: uni01D_7
Width: 560
VWidth: 0
Flags: W
LayerCount: 2
Fore
SplineSet
248 910 m 257
 298 1090 l 257
 378 1090 l 257
 312 910 l 257
 248 910 l 257
161 770 m 257
 161 850 l 257
 241 850 l 257
 241 770 l 257
 161 770 l 257
318 770 m 257
 318 850 l 257
 398 850 l 257
 398 770 l 257
 318 770 l 257
49 224 m 258
 49 700 l 257
 139 700 l 257
 139 274 l 258
 139 231 146 195 159 166 c 256
 185 109 232 80 289 80 c 256
 378 80 419 147 419 274 c 258
 419 700 l 257
 509 700 l 257
 509 224 l 258
 509 100 464 -10 289 -10 c 256
 91 -10 49 106 49 224 c 258
EndSplineSet
EndChar

StartChar: uni01D9
Encoding: 590 473 430
GlifName: uni01D_9
Width: 560
VWidth: 0
Flags: W
LayerCount: 2
Fore
SplineSet
120 1090 m 257
 184 1090 l 257
 280 963 l 257
 376 1090 l 257
 440 1090 l 257
 320 910 l 257
 240 910 l 257
 120 1090 l 257
161 770 m 257
 161 850 l 257
 241 850 l 257
 241 770 l 257
 161 770 l 257
318 770 m 257
 318 850 l 257
 398 850 l 257
 398 770 l 257
 318 770 l 257
49 224 m 258
 49 700 l 257
 139 700 l 257
 139 274 l 258
 139 231 146 195 159 166 c 256
 185 109 232 80 289 80 c 256
 378 80 419 147 419 274 c 258
 419 700 l 257
 509 700 l 257
 509 224 l 258
 509 100 464 -10 289 -10 c 256
 91 -10 49 106 49 224 c 258
EndSplineSet
EndChar

StartChar: uni01DA
Encoding: 591 474 431
GlifName: uni01D_A_
Width: 478
VWidth: 0
Flags: W
LayerCount: 2
Fore
SplineSet
79 850 m 257
 143 850 l 257
 239 723 l 257
 335 850 l 257
 399 850 l 257
 279 670 l 257
 199 670 l 257
 79 850 l 257
120 530 m 257
 120 610 l 257
 200 610 l 257
 200 530 l 257
 120 530 l 257
277 530 m 257
 277 610 l 257
 357 610 l 257
 357 530 l 257
 277 530 l 257
44 160 m 258
 44 460 l 257
 124 460 l 257
 124 190 l 258
 124 137 124 94 144 72 c 256
 154 61 169 55 192 55 c 256
 256 55 352 116 352 230 c 256
 352 307 352 383 352 460 c 257
 433 460 l 257
 433 0 l 257
 353 0 l 257
 353 90 l 257
 314 43 232 -10 166 -10 c 256
 49 -10 44 78 44 160 c 258
EndSplineSet
EndChar

StartChar: uni01DB
Encoding: 592 475 432
GlifName: uni01D_B_
Width: 560
VWidth: 0
Flags: W
LayerCount: 2
Fore
SplineSet
182 1090 m 257
 262 1090 l 257
 312 910 l 257
 248 910 l 257
 182 1090 l 257
161 770 m 257
 161 850 l 257
 241 850 l 257
 241 770 l 257
 161 770 l 257
318 770 m 257
 318 850 l 257
 398 850 l 257
 398 770 l 257
 318 770 l 257
49 224 m 258
 49 700 l 257
 139 700 l 257
 139 274 l 258
 139 231 146 195 159 166 c 256
 185 109 232 80 289 80 c 256
 378 80 419 147 419 274 c 258
 419 700 l 257
 509 700 l 257
 509 224 l 258
 509 100 464 -10 289 -10 c 256
 91 -10 49 106 49 224 c 258
EndSplineSet
EndChar

StartChar: uni01DC
Encoding: 593 476 433
GlifName: uni01D_C_
Width: 478
VWidth: 0
Flags: W
LayerCount: 2
Fore
SplineSet
141 850 m 257
 221 850 l 257
 271 670 l 257
 207 670 l 257
 141 850 l 257
120 530 m 257
 120 610 l 257
 200 610 l 257
 200 530 l 257
 120 530 l 257
277 530 m 257
 277 610 l 257
 357 610 l 257
 357 530 l 257
 277 530 l 257
44 160 m 258
 44 460 l 257
 124 460 l 257
 124 190 l 258
 124 137 124 94 144 72 c 256
 154 61 169 55 192 55 c 256
 256 55 352 116 352 230 c 256
 352 307 352 383 352 460 c 257
 433 460 l 257
 433 0 l 257
 353 0 l 257
 353 90 l 257
 314 43 232 -10 166 -10 c 256
 49 -10 44 78 44 160 c 258
EndSplineSet
EndChar

StartChar: uni01DD
Encoding: 594 477 434
GlifName: uni01D_D_
Width: 471
VWidth: 0
Flags: W
LayerCount: 2
Fore
SplineSet
36 250 m 257
 352 250 l 257
 344 322 314 390 230 390 c 256
 186 390 139 372 116 346 c 257
 55 362 l 257
 72 404 130 470 231 470 c 256
 387 470 437 338 437 220 c 256
 437 112 376 -10 231 -10 c 256
 93 -10 36 112 36 250 c 257
113 170 m 257
 126 102 161 70 231 70 c 256
 290 70 342 107 352 170 c 257
 113 170 l 257
EndSplineSet
EndChar

StartChar: uni01DF
Encoding: 596 479 436
GlifName: uni01D_F_
Width: 493
VWidth: 0
Flags: W
LayerCount: 2
Fore
SplineSet
45 128 m 256
 45 279 252 269 342 294 c 257
 342 330 l 258
 342 383 284 405 242 405 c 256
 187 405 139 378 135 330 c 257
 70 330 l 257
 77 417 154 470 243 470 c 256
 340 470 423 432 423 319 c 258
 422 86 l 258
 422 54 439 26 463 0 c 257
 373 0 l 257
 354 26 349 34 342 74 c 257
 310 37 267 -10 192 -10 c 256
 108 -10 45 43 45 128 c 256
125 126 m 256
 125 77 165 60 204 60 c 256
 248 60 326 116 342 141 c 257
 342 245 l 257
 289 219 125 231 125 126 c 256
128 520 m 257
 128 600 l 257
 208 600 l 257
 208 520 l 257
 128 520 l 257
285 520 m 257
 285 600 l 257
 365 600 l 257
 365 520 l 257
 285 520 l 257
111 645 m 257
 111 710 l 257
 381 710 l 257
 381 645 l 257
 111 645 l 257
EndSplineSet
EndChar

StartChar: uni01E0
Encoding: 597 480 437
GlifName: uni01E_0
Width: 560
VWidth: 0
Flags: W
LayerCount: 2
Fore
SplineSet
145 910 m 257
 145 990 l 257
 415 990 l 257
 415 910 l 257
 145 910 l 257
240 770 m 257
 240 850 l 257
 320 850 l 257
 320 770 l 257
 240 770 l 257
20 0 m 257
 230 700 l 257
 330 700 l 257
 540 0 l 257
 450 0 l 257
 370 282 l 257
 190 282 l 257
 110 0 l 257
 20 0 l 257
210 372 m 257
 350 372 l 257
 280 610 l 257
 210 372 l 257
EndSplineSet
EndChar

StartChar: uni01E1
Encoding: 598 481 438
GlifName: uni01E_1
Width: 503
VWidth: 0
Flags: W
LayerCount: 2
Fore
SplineSet
93 670 m 257
 93 750 l 257
 363 750 l 257
 363 670 l 257
 93 670 l 257
188 530 m 257
 188 610 l 257
 268 610 l 257
 268 530 l 257
 188 530 l 257
30 128 m 256
 30 270 206 274 327 294 c 257
 327 320 l 258
 327 373 269 395 227 395 c 256
 172 395 124 368 120 320 c 257
 87 320 l 257
 55 320 l 257
 62 431 166 460 228 460 c 256
 325 460 407 418 407 285 c 258
 407 86 l 258
 407 55 458 76 458 22 c 258
 458 -10 l 257
 363 -10 335 23 327 74 c 257
 295 37 252 -10 177 -10 c 256
 93 -10 30 43 30 128 c 256
110 136 m 256
 110 69 163 55 189 55 c 256
 198 55 208 57 219 60 c 256
 261 72 311 106 327 141 c 257
 327 176 326 211 326 246 c 257
 292 238 110 231 110 136 c 256
EndSplineSet
EndChar

StartChar: uni01EA
Encoding: 601 490 441
GlifName: uni01E_A_
Width: 660
VWidth: 0
Flags: W
LayerCount: 2
Fore
SplineSet
50 350 m 256
 50 560 146 710 328 710 c 256
 519 710 610 555 610 350 c 256
 610 141 521 -10 334 -10 c 256
 141 -10 50 138 50 350 c 256
140 350 m 256
 140 200 187 70 328 70 c 256
 477 70 520 236 520 350 c 256
 520 503 477 630 328 630 c 256
 189 630 140 502 140 350 c 256
441 -124 m 256
 441 -70 478 -25 512 0 c 257
 570 0 l 257
 529 -31 502 -69 502 -108 c 256
 502 -130 514 -145 531 -151 c 257
 536 -153 542 -154 548 -154 c 256
 562 -154 577 -149 588 -141 c 257
 610 -182 l 257
 597 -191 l 257
 578 -202 551 -209 531 -209 c 256
 481 -209 441 -180 441 -124 c 256
EndSplineSet
EndChar

StartChar: uni01EB
Encoding: 602 491 442
GlifName: uni01E_B_
Width: 480
VWidth: 0
Flags: W
LayerCount: 2
Fore
SplineSet
35 230 m 256
 35 368 99 470 240 470 c 256
 380 470 445 370 445 230 c 256
 445 96 374 -10 240 -10 c 256
 88 -10 35 102 35 230 c 256
115 230 m 256
 115 109 170 55 240 55 c 256
 312 55 365 105 365 230 c 256
 365 357 311 405 240 405 c 256
 169 405 115 357 115 230 c 256
276 -124 m 256
 276 -70 313 -25 347 0 c 257
 405 0 l 257
 364 -31 337 -69 337 -108 c 256
 337 -130 349 -145 366 -151 c 257
 371 -153 377 -154 383 -154 c 256
 397 -154 412 -149 423 -141 c 257
 445 -182 l 257
 432 -191 l 257
 413 -202 386 -209 366 -209 c 256
 316 -209 276 -180 276 -124 c 256
EndSplineSet
EndChar

StartChar: uni01EC
Encoding: 603 492 443
GlifName: uni01E_C_
Width: 660
VWidth: 0
Flags: W
LayerCount: 2
Fore
SplineSet
50 350 m 256
 50 560 146 710 328 710 c 256
 519 710 610 555 610 350 c 256
 610 141 521 -10 334 -10 c 256
 141 -10 50 138 50 350 c 256
140 350 m 256
 140 200 187 70 328 70 c 256
 477 70 520 236 520 350 c 256
 520 503 477 630 328 630 c 256
 189 630 140 502 140 350 c 256
441 -124 m 256
 441 -70 478 -25 512 0 c 257
 570 0 l 257
 529 -31 502 -69 502 -108 c 256
 502 -130 514 -145 531 -151 c 257
 536 -153 542 -154 548 -154 c 256
 562 -154 577 -149 588 -141 c 257
 610 -182 l 257
 597 -191 l 257
 578 -202 551 -209 531 -209 c 256
 481 -209 441 -180 441 -124 c 256
195 785 m 257
 195 850 l 257
 465 850 l 257
 465 785 l 257
 195 785 l 257
EndSplineSet
EndChar

StartChar: uni01ED
Encoding: 604 493 444
GlifName: uni01E_D_
Width: 480
VWidth: 0
Flags: W
LayerCount: 2
Fore
SplineSet
35 230 m 256
 35 368 99 470 240 470 c 256
 380 470 445 370 445 230 c 256
 445 96 374 -10 240 -10 c 256
 88 -10 35 102 35 230 c 256
115 230 m 256
 115 109 170 55 240 55 c 256
 312 55 365 105 365 230 c 256
 365 357 311 405 240 405 c 256
 169 405 115 357 115 230 c 256
276 -124 m 256
 276 -70 313 -25 347 0 c 257
 405 0 l 257
 364 -31 337 -69 337 -108 c 256
 337 -130 349 -145 366 -151 c 257
 371 -153 377 -154 383 -154 c 256
 397 -154 412 -149 423 -141 c 257
 445 -182 l 257
 432 -191 l 257
 413 -202 386 -209 366 -209 c 256
 316 -209 276 -180 276 -124 c 256
105 545 m 257
 105 610 l 257
 375 610 l 257
 375 545 l 257
 105 545 l 257
EndSplineSet
EndChar

StartChar: uni01F5
Encoding: 610 501 450
GlifName: uni01F_5
Width: 492
VWidth: 0
Flags: W
LayerCount: 2
Fore
SplineSet
209 520 m 257
 259 680 l 257
 339 680 l 257
 273 520 l 257
 209 520 l 257
EndSplineSet
Refer: 220 103 N 1 0 0 1 0 0 2
EndChar

StartChar: uni0210
Encoding: 629 528 469
GlifName: uni0210
Width: 580
VWidth: 0
Flags: W
LayerCount: 2
Fore
SplineSet
122 950 m 257
 202 950 l 257
 247 770 l 257
 183 770 l 257
 122 950 l 257
12 950 m 257
 92 950 l 257
 152 770 l 257
 88 770 l 257
 12 950 l 257
140 380 m 257
 285 380 l 258
 375 380 440 417 440 507 c 256
 440 570 364 620 287 620 c 257
 285 620 l 257
 140 620 l 257
 140 380 l 257
50 0 m 257
 50 700 l 257
 285 700 l 258
 425 700 530 657 530 507 c 256
 530 419 465 318 322 303 c 257
 530 0 l 257
 420 0 l 257
 221 301 l 257
 140 300 l 257
 140 0 l 257
 50 0 l 257
EndSplineSet
EndChar

StartChar: uni0211
Encoding: 630 529 470
GlifName: uni0211
Width: 370
VWidth: 0
Flags: W
LayerCount: 2
Fore
SplineSet
144 710 m 257
 224 710 l 257
 269 530 l 257
 205 530 l 257
 144 710 l 257
34 710 m 257
 114 710 l 257
 174 530 l 257
 110 530 l 257
 34 710 l 257
44 0 m 257
 44 460 l 257
 124 460 l 257
 124 370 l 257
 147 421 211 470 271 470 c 256
 294 470 316 466 334 460 c 257
 334 359 l 257
 311 379 280 390 245 390 c 256
 189 390 139 331 124 233 c 257
 124 0 l 257
 44 0 l 257
EndSplineSet
EndChar

StartChar: uni0213
Encoding: 632 531 472
GlifName: uni0213
Width: 370
VWidth: 0
Flags: W
LayerCount: 2
Fore
SplineSet
35 529 m 257
 35 540 36 551 38 561 c 256
 54 639 128 669 190 669 c 256
 258 669 327 639 342 561 c 256
 344 551 345 540 345 529 c 257
 270 529 l 257
 270 586 233 605 190 605 c 256
 156 605 110 588 110 530 c 257
 102 530 93 530 85 530 c 256
 68 530 52 529 35 529 c 257
45 -1 m 257
 45 459 l 257
 125 459 l 257
 125 369 l 257
 148 420 212 469 272 469 c 257
 272 469 l 257
 295 469 317 465 335 459 c 257
 335 358 l 257
 312 378 278 389 246 389 c 256
 237 389 228 387 219 384 c 257
 174 367 137 311 125 232 c 257
 125 -1 l 257
 45 -1 l 257
EndSplineSet
EndChar

StartChar: uni0215
Encoding: 634 533 474
GlifName: uni0215
Width: 478
VWidth: 0
Flags: W
LayerCount: 2
Fore
SplineSet
193 710 m 257
 273 710 l 257
 318 530 l 257
 254 530 l 257
 193 710 l 257
83 710 m 257
 163 710 l 257
 223 530 l 257
 159 530 l 257
 83 710 l 257
44 160 m 258
 44 460 l 257
 124 460 l 257
 124 190 l 258
 124 107 124 55 192 55 c 256
 255 55 352 115 352 230 c 258
 352 460 l 257
 433 460 l 257
 433 0 l 257
 353 0 l 257
 353 90 l 257
 314 43 232 -10 166 -10 c 256
 49 -10 44 78 44 160 c 258
EndSplineSet
EndChar

StartChar: uni021B
Encoding: 638 539 478
GlifName: uni021B_
Width: 331
VWidth: 0
Flags: W
LayerCount: 2
Fore
SplineSet
164 -70 m 257
 244 -70 l 257
 244 -150 l 257
 198 -280 l 257
 164 -280 l 257
 186 -150 l 257
 164 -150 l 257
 164 -123 164 -97 164 -70 c 257
30 380 m 257
 30 460 l 257
 105 460 l 257
 105 580 l 257
 185 580 l 257
 185 460 l 257
 269 460 l 257
 269 380 l 257
 241 380 213 380 185 380 c 257
 185 314 184 247 184 181 c 256
 184 83 197 57 266 56 c 257
 300 56 l 257
 300 -9 l 257
 267 -9 l 257
 117 0 105 44 105 180 c 258
 105 380 l 257
 30 380 l 257
EndSplineSet
EndChar

StartChar: uni0228
Encoding: 643 552 483
GlifName: uni0228
Width: 510
VWidth: 0
Flags: W
LayerCount: 2
Fore
SplineSet
159 -157 m 257
 170 -160 189 -163 207 -163 c 257
 209 -163 211 -163 213 -163 c 257
 256 -163 272 -140 272 -111 c 256
 272 -75 221 -63 193 -60 c 257
 224 7 l 257
 285 7 l 257
 262 -39 l 257
 285 -47 329 -63 329 -116 c 256
 329 -170 284 -202 229 -202 c 256
 196 -202 167 -192 159 -186 c 257
 159 -157 l 257
49 0 m 257
 49 212 l 257
 49 700 l 257
 459 700 l 257
 459 620 l 257
 139 620 l 257
 139 397 l 257
 419 397 l 257
 419 317 l 257
 139 317 l 257
 139 80 l 257
 459 80 l 257
 459 0 l 257
 49 0 l 257
EndSplineSet
EndChar

StartChar: uni0229
Encoding: 644 553 484
GlifName: uni0229
Width: 471
VWidth: 0
Flags: W
LayerCount: 2
Fore
SplineSet
145 -167 m 257
 156 -170 175 -173 193 -173 c 257
 195 -173 197 -173 199 -173 c 257
 242 -173 258 -150 258 -121 c 256
 258 -85 207 -73 179 -70 c 257
 210 -3 l 257
 271 -3 l 257
 248 -49 l 257
 271 -57 315 -73 315 -126 c 256
 315 -180 270 -212 215 -212 c 256
 182 -212 153 -202 145 -196 c 257
 145 -167 l 257
33 240 m 256
 33 348 94 470 239 470 c 256
 378 470 434 350 434 210 c 257
 118 210 l 257
 125 141 156 70 240 70 c 256
 284 70 331 88 354 114 c 257
 415 98 l 257
 399 58 341 -10 239 -10 c 256
 83 -10 33 122 33 240 c 256
118 290 m 257
 357 290 l 257
 344 358 309 390 239 390 c 256
 180 390 128 353 118 290 c 257
EndSplineSet
EndChar

StartChar: uni022A
Encoding: 645 554 485
GlifName: uni022A_
Width: 660
VWidth: 0
Flags: W
LayerCount: 2
Fore
SplineSet
193 910 m 257
 193 990 l 257
 463 990 l 257
 463 910 l 257
 193 910 l 257
209 770 m 257
 209 850 l 257
 289 850 l 257
 289 770 l 257
 209 770 l 257
366 770 m 257
 366 850 l 257
 446 850 l 257
 446 770 l 257
 366 770 l 257
49 350 m 256
 49 560 145 710 327 710 c 256
 518 710 609 555 609 350 c 256
 609 141 520 -10 333 -10 c 256
 140 -10 49 138 49 350 c 256
139 350 m 256
 139 200 186 70 327 70 c 256
 476 70 519 236 519 350 c 256
 519 503 476 630 327 630 c 256
 188 630 139 502 139 350 c 256
EndSplineSet
EndChar

StartChar: uni022B
Encoding: 646 555 486
GlifName: uni022B_
Width: 480
VWidth: 0
Flags: W
LayerCount: 2
Fore
SplineSet
35 230 m 256
 35 368 99 470 240 470 c 256
 380 470 445 370 445 230 c 256
 445 96 374 -10 240 -10 c 256
 88 -10 35 102 35 230 c 256
115 230 m 256
 115 109 170 55 240 55 c 256
 312 55 365 105 365 230 c 256
 365 357 311 405 240 405 c 256
 169 405 115 357 115 230 c 256
121 520 m 257
 121 600 l 257
 201 600 l 257
 201 520 l 257
 121 520 l 257
278 520 m 257
 278 600 l 257
 358 600 l 257
 358 520 l 257
 278 520 l 257
105 545 m 257
 105 610 l 257
 375 610 l 257
 375 545 l 257
 105 545 l 257
EndSplineSet
EndChar

StartChar: uni022C
Encoding: 647 556 487
GlifName: uni022C_
Width: 660
VWidth: 0
Flags: W
LayerCount: 2
Fore
SplineSet
243 950 m 257
 243 1030 l 257
 513 1030 l 257
 513 950 l 257
 243 950 l 257
153 770 m 257
 175 857 214 890 253 890 c 256
 309 890 365 850 413 850 c 256
 431 850 447 858 453 890 c 257
 503 890 l 257
 501 876 498 864 495 853 c 256
 476 788 441 770 413 770 c 256
 359 770 306 810 253 810 c 256
 235 810 209 797 203 770 c 257
 153 770 l 257
50 350 m 256
 50 560 146 710 328 710 c 256
 519 710 610 555 610 350 c 256
 610 141 521 -10 334 -10 c 256
 141 -10 50 138 50 350 c 256
140 350 m 256
 140 200 187 70 328 70 c 256
 477 70 520 236 520 350 c 256
 520 503 477 630 328 630 c 256
 189 630 140 502 140 350 c 256
EndSplineSet
EndChar

StartChar: uni022D
Encoding: 648 557 488
GlifName: uni022D_
Width: 480
VWidth: 0
Flags: W
LayerCount: 2
Fore
SplineSet
155 710 m 257
 155 790 l 257
 425 790 l 257
 425 710 l 257
 155 710 l 257
65 530 m 257
 87 617 126 650 165 650 c 256
 173 650 181 649 189 648 c 257
 237 640 284 610 325 610 c 256
 343 610 359 618 365 650 c 257
 415 650 l 257
 413 636 410 624 407 613 c 256
 388 548 353 530 325 530 c 256
 271 530 218 570 165 570 c 256
 159 570 153 569 146 566 c 256
 132 560 119 548 115 530 c 257
 65 530 l 257
35 230 m 256
 35 368 99 470 240 470 c 256
 380 470 445 370 445 230 c 256
 445 96 374 -10 240 -10 c 256
 88 -10 35 102 35 230 c 256
115 230 m 256
 115 109 170 55 240 55 c 256
 312 55 365 105 365 230 c 256
 365 357 311 405 240 405 c 256
 169 405 115 357 115 230 c 256
EndSplineSet
EndChar

StartChar: uni022E
Encoding: 649 558 489
GlifName: uni022E_
Width: 660
VWidth: 0
Flags: W
LayerCount: 2
Fore
SplineSet
50 350 m 256
 50 560 146 710 328 710 c 256
 519 710 610 555 610 350 c 256
 610 141 521 -10 334 -10 c 256
 141 -10 50 138 50 350 c 256
140 350 m 256
 140 200 187 70 328 70 c 256
 477 70 520 236 520 350 c 256
 520 503 477 630 328 630 c 256
 189 630 140 502 140 350 c 256
290 760 m 257
 290 840 l 257
 370 840 l 257
 370 760 l 257
 290 760 l 257
EndSplineSet
EndChar

StartChar: uni0231
Encoding: 652 561 492
GlifName: uni0231
Width: 480
VWidth: 0
Flags: W
LayerCount: 2
Fore
SplineSet
240 -10 m 257
 117 -10 35 87 35 230 c 256
 35 374 117 470 240 470 c 257
 240 450 l 257
 130 450 55 361 55 230 c 256
 55 98 129 10 240 10 c 257
 240 -10 l 257
230 560 m 257
 230 640 l 257
 250 640 l 257
 250 560 l 257
 230 560 l 257
240 -10 m 257
 117 -10 35 87 35 230 c 256
 35 374 117 470 240 470 c 257
 240 450 l 257
 130 450 55 361 55 230 c 256
 55 98 129 10 240 10 c 257
 240 -10 l 257
EndSplineSet
Refer: 501 772 N 1 0 0 1 425 180 2
Refer: 178 729 N 1 0 0 1 150 40 2
EndChar

StartChar: uni0232
Encoding: 653 562 493
GlifName: uni0232
Width: 594
VWidth: 0
Flags: W
LayerCount: 2
Fore
SplineSet
142 770 m 257
 142 850 l 257
 412 850 l 257
 412 770 l 257
 142 770 l 257
40 700 m 257
 147 700 l 257
 297 388 l 257
 447 700 l 257
 554 700 l 257
 342 310 l 257
 342 207 342 103 342 0 c 257
 252 0 l 257
 252 310 l 257
 40 700 l 257
EndSplineSet
EndChar

StartChar: uni0233
Encoding: 654 563 494
GlifName: uni0233
Width: 470
VWidth: 0
Flags: W
LayerCount: 2
Fore
SplineSet
80 530 m 257
 80 610 l 257
 350 610 l 257
 350 530 l 257
 80 530 l 257
35 460 m 257
 115 460 l 257
 244 98 l 257
 359 460 l 257
 435 460 l 257
 263 -49 l 258
 257 -67 230 -200 155 -200 c 256
 113 -200 94 -198 63 -190 c 257
 63 -120 l 257
 83 -129 99 -135 121 -135 c 258
 127 -135 l 258
 168 -135 192 -54 203 -12 c 257
 35 460 l 257
EndSplineSet
EndChar

StartChar: uni0237
Encoding: 655 567 495
GlifName: uni0237
Width: 220
VWidth: 0
Flags: W
AnchorPoint: "aboveLC" 110 520 basechar 0
LayerCount: 2
Fore
SplineSet
-74 -90 m 257
 -54 -90 l 257
 -54 -157 -19 -182 30 -182 c 256
 80 -182 100 -148 100 -84 c 258
 100 460 l 257
 120 460 l 257
 120 -66 l 258
 120 -167 96 -200 25 -200 c 256
 -29 -200 -74 -166 -74 -90 c 257
EndSplineSet
EndChar

StartChar: uni0259
Encoding: 656 601 496
GlifName: uni0259
Width: 471
VWidth: 0
Flags: W
LayerCount: 2
Fore
SplineSet
36 250 m 257
 352 250 l 257
 348 284 339 320 320 346 c 256
 301 372 272 390 230 390 c 256
 186 390 139 372 116 346 c 257
 55 362 l 257
 72 404 130 470 231 470 c 256
 387 470 437 338 437 220 c 256
 437 112 376 -10 231 -10 c 256
 93 -10 36 112 36 250 c 257
113 170 m 257
 126 102 161 70 231 70 c 256
 290 70 342 107 352 170 c 257
 113 170 l 257
EndSplineSet
EndChar

StartChar: uni02BC
Encoding: 657 700 497
GlifName: uni02B_C_
Width: 180
VWidth: 0
Flags: W
LayerCount: 2
Fore
SplineSet
50 390 m 257
 72 520 l 257
 50 520 l 257
 50 600 l 257
 130 600 l 257
 130 520 l 257
 84 390 l 257
 50 390 l 257
EndSplineSet
EndChar

StartChar: uni02C4
Encoding: 658 708 498
GlifName: uni02C_4
Width: 514
VWidth: 0
Flags: W
LayerCount: 2
Fore
SplineSet
16 530 m 257
 216 964 l 257
 286 964 l 257
 486 530 l 257
 414 530 l 257
 250 888 l 257
 86 530 l 257
 16 530 l 257
EndSplineSet
EndChar

StartChar: uni02C5
Encoding: 659 709 499
GlifName: uni02C_5
Width: 514
VWidth: 0
Flags: W
LayerCount: 2
Fore
SplineSet
16 964 m 257
 88 964 l 257
 252 606 l 257
 416 964 l 257
 486 964 l 257
 286 530 l 257
 216 530 l 257
 16 964 l 257
EndSplineSet
EndChar

StartChar: uni0304
Encoding: 661 772 501
GlifName: uni0304
Width: 0
VWidth: 0
AnchorPoint: "top" -185 470 mark 0
LayerCount: 2
Fore
SplineSet
-320 520 m 257
 -320 590 l 257
 -50 590 l 257
 -50 520 l 257
 -320 520 l 257
EndSplineSet
EndChar

StartChar: uni0306
Encoding: 662 774 502
GlifName: uni0306
Width: 0
VWidth: 0
AnchorPoint: "top" -205 520 mark 0
LayerCount: 2
Fore
SplineSet
-360 660 m 257
 -280 660 l 257
 -280 600 -240 580 -205 580 c 256
 -170 580 -130 600 -130 660 c 257
 -50 660 l 257
 -50 560 -125 520 -205 520 c 256
 -285 520 -360 560 -360 660 c 257
EndSplineSet
EndChar

StartChar: uni0308
Encoding: 664 776 504
GlifName: uni0308
Width: 0
VWidth: 0
AnchorPoint: "top" -170 520 mark 0
LayerCount: 2
Fore
SplineSet
-230 520 m 257
 -230 600 l 257
 -210 600 l 257
 -210 520 l 257
 -230 520 l 257
-130 520 m 257
 -130 600 l 257
 -110 600 l 257
 -110 520 l 257
 -130 520 l 257
EndSplineSet
EndChar

StartChar: uni030A
Encoding: 665 778 505
GlifName: uni030A_
Width: 0
VWidth: 0
LayerCount: 2
Fore
SplineSet
-77 619 m 256
 -77 662 -42 697 1 697 c 256
 44 697 79 662 79 619 c 256
 79 576 44 541 1 541 c 256
 -42 541 -77 576 -77 619 c 256
-30 619 m 256
 -30 602 -16 588 1 588 c 256
 18 588 32 602 32 619 c 256
 32 636 18 650 1 650 c 256
 -16 650 -30 636 -30 619 c 256
EndSplineSet
EndChar

StartChar: uni030B
Encoding: 666 779 506
GlifName: uni030B_
Width: 0
VWidth: 0
LayerCount: 2
Fore
SplineSet
-20 490 m 257
 40 670 l 257
 120 670 l 257
 44 490 l 257
 -20 490 l 257
-115 490 m 257
 -70 670 l 257
 10 670 l 257
 -51 490 l 257
 -115 490 l 257
EndSplineSet
EndChar

StartChar: uni030F
Encoding: 667 783 507
GlifName: uni030F_
Width: 0
VWidth: 0
LayerCount: 2
Fore
SplineSet
-10 670 m 257
 70 670 l 257
 115 490 l 257
 51 490 l 257
 -10 670 l 257
-120 670 m 257
 -40 670 l 257
 20 490 l 257
 -44 490 l 257
 -120 670 l 257
EndSplineSet
EndChar

StartChar: uni0311
Encoding: 668 785 508
GlifName: uni0311
Width: 0
VWidth: 0
AnchorPoint: "top" -205 520 mark 0
LayerCount: 2
Fore
SplineSet
-360 520 m 257
 -360 620 -285 660 -205 660 c 256
 -125 660 -50 620 -50 520 c 257
 -130 520 l 257
 -130 580 -170 600 -205 600 c 256
 -240 600 -280 580 -280 520 c 257
 -360 520 l 257
EndSplineSet
EndChar

StartChar: uni0312
Encoding: 669 786 509
GlifName: uni0312
Width: 180
VWidth: 0
Flags: W
LayerCount: 2
Fore
SplineSet
50 490 m 257
 50 570 l 257
 96 700 l 257
 130 700 l 257
 108 570 l 257
 130 570 l 257
 130 490 l 257
 50 490 l 257
EndSplineSet
EndChar

StartChar: uni0313
Encoding: 670 787 510
GlifName: uni0313
Width: 180
VWidth: 0
Flags: W
LayerCount: 2
Fore
SplineSet
50 490 m 257
 72 620 l 257
 50 620 l 257
 50 700 l 257
 130 700 l 257
 130 620 l 257
 84 490 l 257
 50 490 l 257
EndSplineSet
EndChar

StartChar: uni0314
Encoding: 671 788 511
GlifName: uni0314
Width: 180
VWidth: 0
Flags: W
LayerCount: 2
Fore
SplineSet
50 620 m 257
 50 700 l 257
 130 700 l 257
 130 620 l 257
 108 620 l 257
 130 490 l 257
 96 490 l 257
 50 620 l 257
EndSplineSet
EndChar

StartChar: uni0315
Encoding: 672 789 512
GlifName: uni0315
Width: 180
VWidth: 0
Flags: W
LayerCount: 2
Fore
SplineSet
50 490 m 257
 72 620 l 257
 50 620 l 257
 50 700 l 257
 130 700 l 257
 130 620 l 257
 84 490 l 257
 50 490 l 257
EndSplineSet
EndChar

StartChar: uni0326
Encoding: 673 806 513
GlifName: uni0326
Width: 0
VWidth: 0
AnchorPoint: "bottom" -90 -60 mark 0
LayerCount: 2
Fore
SplineSet
-130 -60 m 257
 -50 -60 l 257
 -50 -140 l 257
 -96 -270 l 257
 -130 -270 l 257
 -108 -140 l 257
 -130 -140 l 257
 -130 -60 l 257
EndSplineSet
EndChar

StartChar: uni0329
Encoding: 674 809 514
GlifName: uni0329
Width: 0
VWidth: 0
LayerCount: 2
Fore
SplineSet
-260 -46 m 257
 -190 -46 l 257
 -190 -243 l 257
 -260 -243 l 257
 -260 -46 l 257
EndSplineSet
EndChar

StartChar: uni0403
Encoding: 163 1027 518
GlifName: uni0403
Width: 580
VWidth: 0
Flags: W
LayerCount: 2
Fore
SplineSet
223 770 m 257
 273 950 l 257
 353 950 l 257
 287 770 l 257
 223 770 l 257
50 0 m 257
 50 700 l 257
 460 700 l 257
 460 620 l 257
 140 620 l 257
 140 0 l 257
 50 0 l 257
EndSplineSet
EndChar

StartChar: uni0404
Encoding: 164 1028 519
GlifName: uni0404
Width: 590
VWidth: 0
Flags: W
LayerCount: 2
Fore
SplineSet
45 344 m 256
 45 505 108 700 305 700 c 256
 447 700 515 616 545 515 c 257
 455 515 l 257
 435 563 394 620 305 620 c 256
 182 620 135 472 135 383 c 257
 315 383 l 257
 315 303 l 257
 135 303 l 257
 135 194 174 80 305 80 c 256
 375 80 425 108 455 180 c 257
 545 180 l 257
 540 160 533 142 525 125 c 257
 483 42 401 0 305 0 c 256
 104 0 45 168 45 344 c 256
EndSplineSet
EndChar

StartChar: uni0409
Encoding: 169 1033 524
GlifName: uni0409
Width: 998
VWidth: 0
Flags: W
LayerCount: 2
Fore
SplineSet
558 80 m 257
 683 80 l 258
 832 80 858 131 858 205 c 256
 858 273 828 322 683 322 c 258
 558 322 l 257
 558 80 l 257
50 -10 m 257
 50 5 50 20 50 35 c 258
 50 80 l 257
 79 80 100 93 117 113 c 257
 166 174 168 305 168 372 c 258
 168 700 l 257
 558 700 l 257
 558 402 l 257
 683 402 l 258
 902 402 948 355 948 205 c 256
 948 61 892 0 683 0 c 258
 468 0 l 257
 468 620 l 257
 258 620 l 257
 258 372 l 258
 258 70 153 -10 50 -10 c 257
EndSplineSet
EndChar

StartChar: uni040A
Encoding: 170 1034 525
GlifName: uni040A_
Width: 950
VWidth: 0
Flags: W
LayerCount: 2
Fore
SplineSet
510 80 m 257
 635 80 l 258
 784 80 810 131 810 205 c 256
 810 273 780 322 635 322 c 258
 510 322 l 257
 510 80 l 257
50 0 m 257
 50 700 l 257
 140 700 l 257
 140 397 l 257
 420 397 l 257
 420 700 l 257
 510 700 l 257
 510 402 l 257
 635 402 l 258
 830 402 900 355 900 205 c 256
 900 37 831 0 563 0 c 258
 420 0 l 257
 420 317 l 257
 140 317 l 257
 140 0 l 257
 50 0 l 257
EndSplineSet
EndChar

StartChar: uni040E
Encoding: 174 1038 529
GlifName: uni040E_
Width: 658
VWidth: 0
Flags: W
LayerCount: 2
Fore
SplineSet
174 910 m 257
 249 910 l 257
 248 854 295 834 329 834 c 256
 371 834 409 852 409 910 c 257
 484 910 l 257
 484 808 405 770 329 770 c 256
 259 770 174 807 174 910 c 257
30 699 m 257
 137 699 l 257
 300 277 l 257
 521 699 l 257
 628 699 l 257
 251 -1 l 257
 140 -1 l 257
 245 199 l 257
 30 699 l 257
EndSplineSet
EndChar

StartChar: uni040F
Encoding: 175 1039 530
GlifName: uni040F_
Width: 590
VWidth: 0
Flags: W
LayerCount: 2
Fore
SplineSet
50 0 m 257
 50 700 l 257
 140 700 l 257
 140 80 l 257
 450 80 l 257
 450 700 l 257
 540 700 l 257
 540 0 l 257
 330 0 l 257
 330 -67 330 -133 330 -200 c 257
 260 -200 l 257
 260 0 l 257
 50 0 l 257
EndSplineSet
EndChar

StartChar: uni0411
Encoding: 177 1041 532
GlifName: uni0411
Width: 580
VWidth: 0
Flags: W
LayerCount: 2
Fore
SplineSet
50 0 m 257
 50 700 l 257
 460 700 l 257
 460 620 l 257
 353 620 247 620 140 620 c 257
 140 402 l 257
 265 402 l 258
 484 402 530 355 530 205 c 256
 530 61 474 0 265 0 c 258
 50 0 l 257
140 80 m 257
 265 80 l 258
 414 80 440 131 440 205 c 256
 440 273 410 322 265 322 c 258
 140 322 l 257
 140 80 l 257
EndSplineSet
Substitution2: "'c2sc' Capitals to Small Capitals lookup 35 subtable" uni0431.sc
EndChar

StartChar: uni0413
Encoding: 179 1043 534
GlifName: uni0413
Width: 490
VWidth: 0
Flags: W
LayerCount: 2
Fore
SplineSet
110 680 m 257
 460 680 l 257
 460 660 l 257
 110 660 l 257
 110 680 l 257
EndSplineSet
Refer: 44 73 N 1 0 0 1 0 0 2
Substitution2: "'c2sc' Capitals to Small Capitals lookup 35 subtable" uni0433.sc
EndChar

StartChar: uni0414
Encoding: 180 1044 535
GlifName: uni0414
Width: 700
VWidth: 0
Flags: W
LayerCount: 2
Fore
SplineSet
30 80 m 257
 120 80 l 257
 159 130 190 367 190 452 c 258
 190 700 l 257
 580 700 l 257
 580 80 l 257
 670 80 l 257
 670 -150 l 257
 580 -150 l 257
 580 0 l 257
 120 0 l 257
 120 -150 l 257
 30 -150 l 257
 30 80 l 257
210 80 m 257
 490 80 l 257
 490 620 l 257
 280 620 l 257
 280 452 l 258
 280 357 249 130 210 80 c 257
EndSplineSet
Substitution2: "'c2sc' Capitals to Small Capitals lookup 35 subtable" uni0434.sc
Substitution2: "'locl' Localized Forms in Cyrillic lookup 0 subtable" uni0414.loclBGR
EndChar

StartChar: uni0414.loclBGR
Encoding: 677 -1 536
GlifName: uni0414.loclB_G_R_
Width: 700
VWidth: 0
Flags: W
LayerCount: 2
Fore
SplineSet
50 80 m 257
 104 80 l 257
 289 700 l 257
 407 700 l 257
 590 80 l 257
 650 80 l 257
 650 -150 l 257
 560 -150 l 257
 560 0 l 257
 140 0 l 257
 140 -150 l 257
 50 -150 l 257
 50 80 l 257
208 80 m 257
 486 80 l 257
 347 603 l 257
 208 80 l 257
EndSplineSet
EndChar

StartChar: uni0416
Encoding: 182 1046 538
GlifName: uni0416
Width: 930
VWidth: 0
Flags: W
LayerCount: 2
Fore
SplineSet
30 0 m 257
 270 350 l 257
 70 700 l 257
 180 700 l 257
 350 397 l 257
 420 377 l 257
 420 700 l 257
 510 700 l 257
 510 377 l 257
 580 397 l 257
 750 700 l 257
 860 700 l 257
 660 350 l 257
 900 0 l 257
 790 0 l 257
 580 317 l 257
 510 297 l 257
 510 0 l 257
 420 0 l 257
 420 297 l 257
 350 317 l 257
 140 0 l 257
 30 0 l 257
EndSplineSet
Substitution2: "'c2sc' Capitals to Small Capitals lookup 35 subtable" uni0436.sc
EndChar

StartChar: uni0417
Encoding: 183 1047 539
GlifName: uni0417
Width: 580
VWidth: 0
Flags: W
LayerCount: 2
Fore
SplineSet
50 185 m 257
 140 185 l 257
 140 137 198 80 285 80 c 256
 361 80 440 114 440 205 c 256
 440 315 359 337 265 337 c 258
 210 337 l 257
 210 364 210 390 210 417 c 257
 265 417 l 258
 353 417 390 431 390 522 c 256
 390 586 328 620 260 620 c 256
 204 620 140 591 140 520 c 257
 50 520 l 257
 50 540 53 558 59 575 c 256
 87 658 176 700 260 700 c 256
 403 700 480 642 480 522 c 256
 480 464 445 412 378 384 c 257
 461 370 530 322 530 205 c 256
 530 64 422 0 285 0 c 256
 165 0 78 62 56 143 c 257
 52 156 50 171 50 185 c 257
EndSplineSet
Substitution2: "'c2sc' Capitals to Small Capitals lookup 35 subtable" uni0437.sc
EndChar

StartChar: uni0418
Encoding: 184 1048 540
GlifName: uni0418
Width: 630
VWidth: 0
Flags: W
AnchorPoint: "aboveUC" 315 740 basechar 0
LayerCount: 2
Fore
SplineSet
50 0 m 257
 50 700 l 257
 140 700 l 257
 140 210 l 258
 140 148 138 127 135 120 c 257
 460 700 l 257
 580 700 l 257
 580 0 l 257
 490 0 l 257
 490 490 l 257
 491 514 490 520 495 580 c 257
 170 0 l 257
 50 0 l 257
EndSplineSet
Substitution2: "'c2sc' Capitals to Small Capitals lookup 35 subtable" uni0438.sc
EndChar

StartChar: uni041B
Encoding: 187 1051 543
GlifName: uni041B_
Width: 608
VWidth: 0
Flags: W
LayerCount: 2
Fore
SplineSet
50 -10 m 257
 50 35 l 257
 50 35 l 257
 50 80 l 257
 166 80 168 283 168 372 c 258
 168 700 l 257
 558 700 l 257
 558 0 l 257
 468 0 l 257
 468 620 l 257
 258 620 l 257
 258 372 l 258
 258 70 153 -10 50 -10 c 257
EndSplineSet
Substitution2: "'c2sc' Capitals to Small Capitals lookup 35 subtable" uni043B.sc
Substitution2: "'locl' Localized Forms in Cyrillic lookup 0 subtable" uni041B.loclBGR
EndChar

StartChar: uni041B.loclBGR
Encoding: 678 -1 544
GlifName: uni041B_.loclB_G_R_
Width: 608
VWidth: 0
Flags: W
LayerCount: 2
Fore
SplineSet
50 0 m 257
 259 700 l 257
 377 700 l 257
 584 0 l 257
 477 0 l 257
 317 603 l 257
 157 0 l 257
 50 0 l 257
EndSplineSet
EndChar

StartChar: uni041F
Encoding: 191 1055 548
GlifName: uni041F_
Width: 590
VWidth: 0
Flags: W
LayerCount: 2
Fore
SplineSet
84 0 m 257
 84 671 l 257
 506 671 l 257
 506 0 l 257
 484 0 l 257
 484 649 l 257
 106 649 l 257
 106 0 l 257
 84 0 l 257
EndSplineSet
Substitution2: "'c2sc' Capitals to Small Capitals lookup 35 subtable" uni043F.sc
EndChar

StartChar: uni0423
Encoding: 195 1059 552
GlifName: uni0423
Width: 658
VWidth: 0
Flags: W
LayerCount: 2
Fore
SplineSet
117 699 m 257
 137 700 l 257
 377 278 l 257
 608 700 l 257
 628 700 l 257
 251 0 l 257
 231 0 l 257
 364 252 l 257
 117 699 l 257
EndSplineSet
Substitution2: "'c2sc' Capitals to Small Capitals lookup 35 subtable" uni0443.sc
EndChar

StartChar: uni0424
Encoding: 196 1060 553
GlifName: uni0424
Width: 830
VWidth: 0
Flags: W
LayerCount: 2
Fore
SplineSet
162 350 m 256
 161 201 260 120 406 119 c 257
 406 578 l 257
 260 574 163 509 162 350 c 256
140 349 m 256
 140 509 243 600 406 600 c 257
 406 699 l 257
 426 699 l 257
 426 600 l 257
 600 599 699 508 697 349 c 256
 695 201 600 98 426 97 c 257
 426 0 l 257
 406 0 l 257
 406 97 l 257
 244 97 140 202 140 349 c 256
426 119 m 257
 581 119 675 201 675 349 c 256
 675 507 581 574 426 578 c 257
 426 119 l 257
EndSplineSet
Substitution2: "'c2sc' Capitals to Small Capitals lookup 35 subtable" uni0444.sc
EndChar

StartChar: uni0426
Encoding: 198 1062 555
GlifName: uni0426
Width: 630
VWidth: 0
Flags: W
LayerCount: 2
Fore
SplineSet
118 0 m 257
 118 700 l 257
 140 700 l 257
 140 20 l 257
 508 20 l 257
 508 700 l 257
 530 700 l 257
 530 20 l 257
 552 20 l 257
 552 -140 l 257
 530 -140 l 257
 530 0 l 257
 118 0 l 257
EndSplineSet
Substitution2: "'c2sc' Capitals to Small Capitals lookup 35 subtable" uni0446.sc
EndChar

StartChar: uni0427
Encoding: 199 1063 556
GlifName: uni0427
Width: 510
VWidth: 0
Flags: W
LayerCount: 2
Fore
SplineSet
50 500 m 258
 50 700 l 257
 140 700 l 257
 140 500 l 258
 140 439 144 397 238 397 c 258
 370 397 l 257
 370 700 l 257
 460 700 l 257
 460 0 l 257
 370 0 l 257
 370 317 l 257
 208 317 l 258
 154 317 50 352 50 500 c 258
EndSplineSet
Substitution2: "'c2sc' Capitals to Small Capitals lookup 35 subtable" uni0447.sc
EndChar

StartChar: uni0428
Encoding: 200 1064 557
GlifName: uni0428
Width: 846
VWidth: 0
Flags: W
LayerCount: 2
Fore
SplineSet
50 0 m 257
 50 700 l 257
 140 700 l 257
 140 70 l 257
 378 70 l 257
 378 700 l 257
 468 700 l 257
 468 70 l 257
 706 70 l 257
 706 700 l 257
 796 700 l 257
 796 0 l 257
 50 0 l 257
EndSplineSet
Substitution2: "'c2sc' Capitals to Small Capitals lookup 35 subtable" uni0448.sc
EndChar

StartChar: uni0429
Encoding: 201 1065 558
GlifName: uni0429
Width: 916
VWidth: 0
Flags: W
LayerCount: 2
Fore
SplineSet
50 0 m 257
 50 700 l 257
 140 700 l 257
 140 70 l 257
 378 70 l 257
 378 700 l 257
 468 700 l 257
 468 70 l 257
 706 70 l 257
 706 700 l 257
 796 700 l 257
 796 70 l 257
 866 70 l 257
 866 -140 l 257
 796 -140 l 257
 796 0 l 257
 50 0 l 257
EndSplineSet
Substitution2: "'c2sc' Capitals to Small Capitals lookup 35 subtable" uni0449.sc
EndChar

StartChar: uni042A
Encoding: 202 1066 559
GlifName: uni042A_
Width: 730
VWidth: 0
Flags: W
LayerCount: 2
Fore
SplineSet
50 620 m 257
 50 700 l 257
 290 700 l 257
 290 402 l 257
 415 402 l 258
 590 402 673 332 673 206 c 256
 673 104 652 0 415 0 c 258
 200 0 l 257
 200 620 l 257
 50 620 l 257
290 80 m 257
 415 80 l 258
 564 80 590 131 590 205 c 256
 590 273 560 322 415 322 c 258
 290 322 l 257
 290 80 l 257
EndSplineSet
Substitution2: "'c2sc' Capitals to Small Capitals lookup 35 subtable" uni044A.sc
EndChar

StartChar: uni042B
Encoding: 203 1067 560
GlifName: uni042B_
Width: 748
VWidth: 0
Flags: W
LayerCount: 2
Fore
SplineSet
608 0 m 257
 608 700 l 257
 698 700 l 257
 698 0 l 257
 608 0 l 257
50 0 m 257
 50 700 l 257
 140 700 l 257
 140 402 l 257
 265 402 l 258
 484 402 530 355 530 205 c 256
 530 61 474 0 265 0 c 258
 50 0 l 257
140 80 m 257
 265 80 l 258
 414 80 440 131 440 205 c 256
 440 273 410 322 265 322 c 258
 140 322 l 257
 140 80 l 257
EndSplineSet
Substitution2: "'c2sc' Capitals to Small Capitals lookup 35 subtable" uni044B.sc
EndChar

StartChar: uni042C
Encoding: 204 1068 561
GlifName: uni042C_
Width: 580
VWidth: 0
Flags: W
LayerCount: 2
Fore
SplineSet
50 0 m 257
 50 700 l 257
 140 700 l 257
 140 601 140 501 140 402 c 257
 265 402 l 258
 484 402 530 355 530 205 c 256
 530 61 474 0 265 0 c 258
 50 0 l 257
140 80 m 257
 265 80 l 258
 414 80 440 131 440 205 c 256
 440 273 410 322 265 322 c 258
 140 322 l 257
 140 80 l 257
EndSplineSet
Substitution2: "'c2sc' Capitals to Small Capitals lookup 35 subtable" uni044C.sc
EndChar

StartChar: uni042D
Encoding: 205 1069 562
GlifName: uni042D_
Width: 590
VWidth: 0
Flags: W
LayerCount: 2
Fore
SplineSet
45 185 m 257
 135 185 l 257
 155 138 195 80 285 80 c 256
 408 80 455 228 455 317 c 257
 275 317 l 257
 275 344 275 370 275 397 c 257
 455 397 l 257
 455 506 416 620 285 620 c 256
 215 620 165 592 135 520 c 257
 45 520 l 257
 50 540 57 558 65 575 c 257
 107 658 189 700 285 700 c 256
 486 700 545 532 545 356 c 256
 545 195 482 0 285 0 c 256
 143 0 75 84 45 185 c 257
EndSplineSet
Substitution2: "'c2sc' Capitals to Small Capitals lookup 35 subtable" uni044D.sc
EndChar

StartChar: uni042E
Encoding: 206 1070 563
GlifName: uni042E_
Width: 850
VWidth: 0
Flags: W
LayerCount: 2
Fore
SplineSet
330 350 m 256
 330 200 377 70 518 70 c 256
 668 70 710 237 710 350 c 256
 710 503 667 630 518 630 c 256
 379 630 330 502 330 350 c 256
50 0 m 257
 50 700 l 257
 140 700 l 257
 140 397 l 257
 242 397 l 257
 255 582 350 710 518 710 c 256
 708 710 800 556 800 350 c 256
 800 141 711 -10 524 -10 c 256
 341 -10 250 123 241 317 c 257
 140 317 l 257
 140 0 l 257
 50 0 l 257
EndSplineSet
Substitution2: "'c2sc' Capitals to Small Capitals lookup 35 subtable" uni044E.sc
EndChar

StartChar: uni042F
Encoding: 207 1071 564
GlifName: uni042F_
Width: 580
VWidth: 0
Flags: W
LayerCount: 2
Fore
SplineSet
140 495 m 256
 140 414 205 380 295 380 c 258
 440 380 l 257
 440 620 l 257
 295 620 l 258
 218 620 140 586 140 495 c 256
50 0 m 257
 260 300 l 257
 117 314 50 412 50 495 c 256
 50 632 155 700 295 700 c 258
 530 700 l 257
 530 0 l 257
 440 0 l 257
 440 300 l 257
 360 300 l 257
 160 0 l 257
 50 0 l 257
EndSplineSet
Substitution2: "'c2sc' Capitals to Small Capitals lookup 35 subtable" uni044F.sc
EndChar

StartChar: uni0430.sc
Encoding: 679 -1 566
GlifName: uni0430.sc
Width: 451
VWidth: 0
Flags: W
LayerCount: 2
Fore
SplineSet
20 0 m 257
 175 460 l 257
 276 460 l 257
 431 0 l 257
 351 0 l 257
 296 161 l 257
 156 161 l 257
 102 0 l 257
 20 0 l 257
173 226 m 257
 279 226 l 257
 227 382 l 257
 173 226 l 257
EndSplineSet
EndChar

StartChar: uni0431
Encoding: 209 1073 567
GlifName: uni0431
Width: 554
VWidth: 0
Flags: W
LayerCount: 2
Fore
SplineSet
154 219 m 256
 154 120 195 58 280 58 c 256
 373 58 420 122 420 239 c 256
 420 319 383 402 284 402 c 256
 192 402 154 337 154 219 c 256
70 244 m 258
 70 389 l 258
 70 614 195 649 305 670 c 256
 345 678 384 688 416 700 c 257
 416 620 l 257
 396 614 356 606 322 599 c 256
 243 584 139 557 139 421 c 256
 139 410 138 394 134 371 c 257
 166 432 218 470 299 470 c 256
 429 470 504 374 504 240 c 257
 504 238 l 257
 504 108 423 -10 290 -10 c 256
 176 -10 70 56 70 244 c 258
EndSplineSet
Substitution2: "'smcp' Lowercase to Small Capitals lookup 34 subtable" uni0431.sc
EndChar

StartChar: uni0431.sc
Encoding: 680 -1 568
GlifName: uni0431.sc
Width: 422
VWidth: 0
Flags: W
LayerCount: 2
Fore
SplineSet
33 0 m 257
 33 460 l 257
 328 460 l 257
 328 395 l 257
 113 395 l 257
 113 273 l 257
 195 273 l 258
 345 273 390 238 390 138 c 256
 390 38 345 0 195 0 c 258
 33 0 l 257
113 65 m 257
 205 65 l 258
 300 65 310 98 310 138 c 256
 310 175 300 208 205 208 c 258
 113 208 l 257
 113 65 l 257
EndSplineSet
EndChar

StartChar: uni0432
Encoding: 210 1074 569
GlifName: uni0432
Width: 496
VWidth: 0
Flags: W
LayerCount: 2
Fore
SplineSet
150 270 m 257
 261 270 l 258
 307 270 346 279 346 330 c 256
 346 367 309 395 261 395 c 258
 150 395 l 257
 150 270 l 257
70 0 m 257
 70 460 l 257
 261 460 l 258
 378 460 426 405 426 334 c 256
 426 307 413 277 378 249 c 257
 426 231 446 178 446 139 c 257
 446 138 l 257
 446 68 390 0 281 0 c 258
 70 0 l 257
150 65 m 257
 281 65 l 258
 338 65 366 93 366 138 c 256
 366 171 336 205 281 205 c 258
 150 205 l 257
 150 65 l 257
EndSplineSet
Substitution2: "'smcp' Lowercase to Small Capitals lookup 34 subtable" uni0432.sc
Substitution2: "'locl' Localized Forms in Cyrillic lookup 0 subtable" uni0432.loclBGR
EndChar

StartChar: uni0432.loclBGR
Encoding: 681 -1 570
GlifName: uni0432.loclB_G_R_
Width: 506
VWidth: 0
Flags: W
LayerCount: 2
Fore
SplineSet
45 253 m 258
 45 479 l 258
 45 545 77 700 239 700 c 256
 368 700 430 636 430 554 c 256
 430 517 417 477 383 439 c 257
 445 406 471 310 471 239 c 257
 471 238 l 257
 471 113 400 -10 251 -10 c 256
 153 -10 45 58 45 253 c 258
125 233 m 256
 125 124 157 55 251 55 c 256
 350 55 391 126 391 238 c 256
 391 320 350 406 254 406 c 256
 232 406 206 398 176 379 c 257
 176 439 l 257
 212 463 245 469 279 469 c 256
 293 469 307 467 322 462 c 257
 338 487 351 521 351 550 c 256
 351 598 312 634 239 635 c 256
 145 635 125 555 125 471 c 257
 126 471 l 257
 127 440 127 414 127 390 c 256
 127 342 125 300 125 233 c 256
EndSplineSet
EndChar

StartChar: uni0432.sc
Encoding: 682 -1 571
GlifName: uni0432.sc
Width: 437
VWidth: 0
Flags: W
LayerCount: 2
Fore
SplineSet
33 0 m 257
 33 460 l 257
 197 460 l 258
 304 460 361 441 361 337 c 256
 361 301 333 268 280 251 c 257
 349 242 405 218 405 138 c 256
 405 16 313 0 197 0 c 258
 33 0 l 257
113 281 m 257
 200 281 l 258
 260 281 281 297 281 337 c 256
 281 377 260 395 200 395 c 258
 113 395 l 257
 113 281 l 257
113 65 m 257
 197 65 l 258
 260 65 325 78 325 138 c 256
 325 198 266 216 197 216 c 258
 113 216 l 257
 113 65 l 257
EndSplineSet
EndChar

StartChar: uni0433
Encoding: 211 1075 572
GlifName: uni0433
Width: 437
VWidth: 0
Flags: W
AnchorPoint: "aboveLC" 217 520 basechar 0
LayerCount: 2
Fore
SplineSet
70 0 m 257
 70 460 l 257
 387 460 l 257
 387 392 l 257
 150 392 l 257
 150 0 l 257
 70 0 l 257
EndSplineSet
Substitution2: "'smcp' Lowercase to Small Capitals lookup 34 subtable" uni0433.sc
Substitution2: "'locl' Localized Forms in Cyrillic lookup 0 subtable" uni0433.loclBGR
EndChar

StartChar: uni0433.loclBGR
Encoding: 683 -1 573
GlifName: uni0433.loclB_G_R_
Width: 445
VWidth: 0
Flags: W
LayerCount: 2
Fore
SplineSet
45 119 m 256
 45 208 124 231 195 261 c 256
 264 290 310 299 310 348 c 256
 310 378 285 405 228 405 c 256
 183 405 134 382 134 320 c 257
 55 320 l 257
 55 420 141 470 230 470 c 256
 334 470 390 418 390 352 c 256
 390 250 300 245 224 212 c 256
 165 186 125 179 125 118 c 256
 125 69 190 55 215 55 c 256
 286 55 335 86 335 150 c 257
 410 150 l 257
 410 38 320 -10 215 -10 c 256
 138 -10 45 23 45 119 c 256
EndSplineSet
EndChar

StartChar: uni0433.sc
Encoding: 684 -1 574
GlifName: uni0433.sc
Width: 360
VWidth: 0
Flags: W
LayerCount: 2
Fore
SplineSet
40 0 m 257
 40 460 l 257
 330 460 l 257
 330 395 l 257
 120 395 l 257
 120 0 l 257
 40 0 l 257
EndSplineSet
EndChar

StartChar: uni0434
Encoding: 212 1076 575
GlifName: uni0434
Width: 531
VWidth: 0
Flags: W
LayerCount: 2
Fore
SplineSet
30 68 m 257
 92 68 l 257
 117 117 120 166 120 215 c 258
 120 460 l 257
 451 460 l 257
 451 68 l 257
 511 68 l 257
 511 -140 l 257
 441 -140 l 257
 431 0 l 257
 110 0 l 257
 100 -140 l 257
 30 -140 l 257
 30 68 l 257
173 68 m 257
 371 68 l 257
 371 395 l 257
 200 395 l 257
 200 268 l 258
 200 208 198 129 173 68 c 257
EndSplineSet
Substitution2: "'smcp' Lowercase to Small Capitals lookup 34 subtable" uni0434.sc
Substitution2: "'locl' Localized Forms in Cyrillic lookup 0 subtable" uni0434.loclBGR
EndChar

StartChar: uni0434.loclBGR
Encoding: 685 -1 576
GlifName: uni0434.loclB_G_R_
Width: 501
VWidth: 0
Flags: W
LayerCount: 2
Fore
SplineSet
115 230 m 256
 115 115 154 55 245 55 c 256
 343 55 376 176 376 230 c 256
 376 359 305 405 245 405 c 256
 164 405 115 337 115 230 c 256
35 230 m 256
 35 350 99 470 235 470 c 256
 293 470 356 430 376 390 c 257
 396 460 l 257
 456 460 l 257
 456 37 l 258
 456 -141 376 -200 262 -200 c 256
 174 -200 92 -157 81 -60 c 257
 149 -60 l 257
 163 -126 215 -135 259 -135 c 256
 364 -135 376 -47 376 90 c 257
 335 15 283 -5 204 -5 c 256
 101 -5 35 120 35 230 c 256
EndSplineSet
EndChar

StartChar: uni0434.sc
Encoding: 686 -1 577
GlifName: uni0434.sc
Width: 543
VWidth: 0
Flags: W
LayerCount: 2
Fore
SplineSet
20 65 m 257
 91 65 l 257
 121 96 146 250 146 304 c 258
 146 460 l 257
 444 460 l 257
 444 65 l 257
 471 65 497 65 524 65 c 257
 524 -133 l 257
 444 -133 l 257
 444 0 l 257
 100 0 l 257
 100 -133 l 257
 20 -133 l 257
 20 65 l 257
163 65 m 257
 364 65 l 257
 364 395 l 257
 226 395 l 257
 226 290 l 258
 226 234 197 94 163 65 c 257
EndSplineSet
EndChar

StartChar: uni0435.sc
Encoding: 687 -1 579
GlifName: uni0435.sc
Width: 355
VWidth: 0
Flags: W
LayerCount: 2
Fore
SplineSet
33 0 m 257
 33 460 l 257
 323 460 l 257
 323 395 l 257
 113 395 l 257
 113 265 l 257
 297 265 l 257
 297 200 l 257
 113 200 l 257
 113 65 l 257
 323 65 l 257
 323 0 l 257
 33 0 l 257
EndSplineSet
EndChar

StartChar: uni0436
Encoding: 214 1078 580
GlifName: uni0436
Width: 700
VWidth: 0
Flags: W
AnchorPoint: "aboveLC" 360 520 basechar 0
LayerCount: 2
Fore
SplineSet
30 -10 m 257
 30 55 l 257
 44 55 l 257
 57 59 75 73 80 96 c 257
 95 157 121 235 180 257 c 257
 152 288 134 323 122 348 c 256
 110 373 92 388 70 388 c 258
 64 388 l 257
 64 460 l 257
 95 460 l 258
 129 460 167 430 193 372 c 256
 206 343 230 297 256 270 c 257
 310 270 l 257
 310 460 l 257
 390 460 l 257
 390 270 l 257
 444 270 l 257
 470 297 494 343 507 372 c 256
 533 430 571 460 605 460 c 258
 636 460 l 257
 636 388 l 257
 630 388 l 258
 608 388 590 373 578 348 c 256
 566 323 548 288 520 257 c 257
 579 235 605 157 620 96 c 257
 625 73 643 59 656 55 c 257
 670 55 l 257
 670 -10 l 257
 651 -10 l 258
 609 -10 563 11 553 58 c 256
 542 108 513 205 479 205 c 258
 390 205 l 257
 390 0 l 257
 310 0 l 257
 310 205 l 257
 221 205 l 258
 187 205 158 108 147 58 c 256
 137 11 91 -10 49 -10 c 258
 30 -10 l 257
EndSplineSet
Substitution2: "'smcp' Lowercase to Small Capitals lookup 34 subtable" uni0436.sc
Substitution2: "'locl' Localized Forms in Cyrillic lookup 0 subtable" uni0436.loclBGR
EndChar

StartChar: uni0436.loclBGR
Encoding: 688 -1 581
GlifName: uni0436.loclB_G_R_
Width: 664
VWidth: 0
Flags: W
LayerCount: 2
Fore
SplineSet
15 0 m 257
 23 14 30 28 37 43 c 256
 72 116 102 195 188 236 c 257
 16 460 l 257
 115 460 l 257
 260 270 l 257
 292 270 l 257
 292 413 292 557 292 700 c 257
 372 700 l 257
 372 270 l 257
 403 270 l 257
 548 460 l 257
 648 460 l 257
 476 236 l 257
 563 193 594 112 628 41 c 256
 635 27 641 13 649 0 c 257
 549 0 l 257
 512 69 503 146 423 190 c 257
 372 190 l 257
 372 0 l 257
 292 0 l 257
 292 190 l 257
 240 190 l 257
 168 148 147 71 115 0 c 257
 15 0 l 257
EndSplineSet
EndChar

StartChar: uni0436.sc
Encoding: 689 -1 582
GlifName: uni0436.sc
Width: 652
VWidth: 0
Flags: W
LayerCount: 2
Fore
SplineSet
20 0 m 257
 167 230 l 257
 36 460 l 257
 128 460 l 257
 240 260 l 257
 286 247 l 257
 286 460 l 257
 366 460 l 257
 366 247 l 257
 412 260 l 257
 523 460 l 257
 615 460 l 257
 484 230 l 257
 632 0 l 257
 530 0 l 257
 412 199 l 257
 366 186 l 257
 366 0 l 257
 286 0 l 257
 286 186 l 257
 240 199 l 257
 122 0 l 257
 20 0 l 257
EndSplineSet
EndChar

StartChar: uni0437
Encoding: 215 1079 583
GlifName: uni0437
Width: 501
VWidth: 0
Flags: W
AnchorPoint: "aboveLC" 260 520 basechar 0
LayerCount: 2
Fore
SplineSet
50 150 m 257
 136 150 l 257
 144 86 199 66 253 66 c 256
 303 66 370 80 370 138 c 256
 370 188 345 210 278 210 c 258
 208 210 l 257
 208 275 l 257
 277 275 l 258
 339 275 360 301 360 331 c 256
 360 371 322 394 253 394 c 256
 197 394 149 367 140 320 c 257
 50 320 l 257
 62 407 150 470 253 470 c 256
 359 470 440 416 440 338 c 256
 440 298 423 270 376 250 c 257
 429 229 451 189 451 140 c 256
 451 51 368 -10 253 -10 c 256
 160 -10 65 36 50 150 c 257
EndSplineSet
Substitution2: "'smcp' Lowercase to Small Capitals lookup 34 subtable" uni0437.sc
Substitution2: "'locl' Localized Forms in Cyrillic lookup 0 subtable" uni0437.loclBGR
EndChar

StartChar: uni0437.loclBGR
Encoding: 690 -1 584
GlifName: uni0437.loclB_G_R_
Width: 451
VWidth: 0
Flags: W
LayerCount: 2
Fore
SplineSet
45 130 m 257
 115 130 l 257
 115 73 176 55 229 55 c 256
 274 55 335 70 335 133 c 256
 335 182 303 213 213 213 c 257
 213 270 l 257
 283 278 305 298 305 344 c 256
 305 397 253 405 216 405 c 256
 176 405 115 397 115 320 c 257
 45 320 l 257
 45 407 130 470 218 470 c 256
 313 470 385 422 385 352 c 256
 385 312 367 275 328 250 c 257
 400 239 416 175 416 135 c 256
 416 49 337 -10 228 -10 c 256
 144 -10 49 30 45 130 c 257
EndSplineSet
EndChar

StartChar: uni0437.sc
Encoding: 691 -1 585
GlifName: uni0437.sc
Width: 437
VWidth: 0
Flags: W
LayerCount: 2
Fore
SplineSet
33 121 m 257
 113 121 l 257
 113 115 115 108 120 102 c 257
 134 83 169 65 215 65 c 256
 269 65 325 89 325 138 c 256
 325 198 265 212 197 212 c 258
 160 212 l 257
 160 278 l 257
 197 278 l 258
 254 278 281 287 281 337 c 256
 281 371 239 395 193 395 c 256
 155 395 113 380 113 342 c 257
 33 342 l 257
 33 354 35 364 38 374 c 256
 57 433 127 460 193 460 c 256
 302 460 361 420 361 337 c 256
 361 301 351 268 293 251 c 257
 355 242 405 212 405 138 c 256
 405 43 319 0 210 0 c 256
 117 0 51 40 36 96 c 256
 34 104 33 112 33 121 c 257
EndSplineSet
EndChar

StartChar: uni0438
Encoding: 216 1080 586
GlifName: uni0438
Width: 528
VWidth: 0
Flags: W
AnchorPoint: "aboveLC" 264 520 basechar 0
LayerCount: 2
Fore
SplineSet
70 0 m 257
 70 460 l 257
 150 460 l 257
 150 180 l 257
 145 115 l 257
 378 460 l 257
 458 460 l 257
 458 0 l 257
 378 0 l 257
 378 280 l 257
 383 345 l 257
 150 0 l 257
 70 0 l 257
EndSplineSet
Substitution2: "'smcp' Lowercase to Small Capitals lookup 34 subtable" uni0438.sc
Substitution2: "'locl' Localized Forms in Cyrillic lookup 0 subtable" uni0438.loclBGR
EndChar

StartChar: uni0438.sc
Encoding: 693 -1 588
GlifName: uni0438.sc
Width: 455
VWidth: 0
Flags: W
LayerCount: 2
Fore
SplineSet
33 0 m 257
 33 460 l 257
 113 460 l 257
 113 142 l 258
 113 102 110 88 108 84 c 257
 323 460 l 257
 423 460 l 257
 423 0 l 257
 343 0 l 257
 343 318 l 257
 344 334 342 337 347 376 c 257
 133 0 l 257
 33 0 l 257
EndSplineSet
EndChar

StartChar: uni0439
Encoding: 217 1081 589
GlifName: uni0439
Width: 528
VWidth: 0
Flags: W
LayerCount: 2
Fore
SplineSet
125 610 m 257
 200 610 l 257
 200 568 235 554 260 554 c 256
 292 554 320 567 320 610 c 257
 395 610 l 257
 395 525 328 490 260 490 c 256
 198 490 125 525 125 610 c 257
EndSplineSet
Refer: 586 1080 N 1 0 0 1 0 0 2
Substitution2: "'smcp' Lowercase to Small Capitals lookup 34 subtable" uni0439.sc
Substitution2: "'locl' Localized Forms in Cyrillic lookup 0 subtable" uni0439.loclBGR
EndChar

StartChar: uni0439.loclBGR
Encoding: 694 -1 590
GlifName: uni0439.loclB_G_R_
Width: 478
VWidth: 0
Flags: W
LayerCount: 2
Fore
SplineSet
90 640 m 257
 165 640 l 257
 164 584 211 564 245 564 c 256
 287 564 325 582 325 640 c 257
 400 640 l 257
 400 627 398 616 396 605 c 257
 380 529 312 500 245 500 c 256
 184 500 111 529 94 605 c 257
 92 616 90 627 90 640 c 257
EndSplineSet
Refer: 387 117 N 1 0 0 1 0 0 2
Refer: 387 117 N 1 0 0 1 0 0 2
EndChar

StartChar: uni0439.sc
Encoding: 695 -1 591
GlifName: uni0439.sc
Width: 455
VWidth: 0
Flags: W
LayerCount: 2
Fore
SplineSet
73 670 m 257
 148 670 l 257
 147 613 194 594 228 594 c 256
 273 594 308 614 308 670 c 257
 383 670 l 257
 383 657 381 646 379 635 c 257
 363 559 295 530 228 530 c 256
 167 530 94 559 77 635 c 257
 75 646 73 657 73 670 c 257
33 0 m 257
 33 460 l 257
 113 460 l 257
 113 142 l 258
 113 102 110 88 108 84 c 257
 323 460 l 257
 423 460 l 257
 423 0 l 257
 343 0 l 257
 343 318 l 257
 344 334 342 337 347 376 c 257
 133 0 l 257
 33 0 l 257
EndSplineSet
EndChar

StartChar: uni043A
Encoding: 218 1082 592
GlifName: uni043A_
Width: 478
VWidth: 0
Flags: W
AnchorPoint: "aboveLC" 230 520 basechar 0
LayerCount: 2
Fore
SplineSet
70 0 m 257
 70 460 l 257
 150 460 l 257
 150 270 l 257
 217 270 l 257
 274 387 l 258
 298 437 341 460 377 460 c 258
 408 460 l 257
 408 398 l 257
 385 399 359 389 345 364 c 258
 283 257 l 257
 317 245 343 225 356 205 c 256
 376 174 389 106 393 88 c 256
 400 55 413 50 430 45 c 257
 430 -10 l 257
 404 -10 l 258
 370 -10 336 7 325 59 c 256
 315 107 315 134 287 168 c 256
 268 191 236 205 217 205 c 258
 150 205 l 257
 150 0 l 257
 70 0 l 257
EndSplineSet
Substitution2: "'smcp' Lowercase to Small Capitals lookup 34 subtable" uni043A.sc
Substitution2: "'locl' Localized Forms in Cyrillic lookup 0 subtable" uni043A.loclBGR
EndChar

StartChar: uni043A.loclBGR
Encoding: 696 -1 593
GlifName: uni043A_.loclB_G_R_
Width: 420
VWidth: 0
Flags: W
LayerCount: 2
Fore
SplineSet
45 0 m 257
 45 700 l 257
 125 700 l 257
 125 270 l 257
 157 270 l 257
 300 460 l 257
 380 460 l 257
 229 256 l 257
 304 218 338 138 373 59 c 256
 382 39 390 19 400 0 c 257
 320 0 l 257
 279 78 255 166 167 210 c 257
 125 210 l 257
 125 0 l 257
 45 0 l 257
EndSplineSet
EndChar

StartChar: uni043A.sc
Encoding: 697 -1 594
GlifName: uni043A_.sc
Width: 426
VWidth: 0
Flags: W
LayerCount: 2
Fore
SplineSet
50 0 m 257
 50 460 l 257
 130 460 l 257
 130 247 l 257
 145 251 161 256 176 260 c 257
 287 460 l 257
 380 460 l 257
 248 230 l 257
 396 0 l 257
 294 0 l 257
 176 199 l 257
 130 186 l 257
 130 0 l 257
 50 0 l 257
EndSplineSet
EndChar

StartChar: uni043B
Encoding: 219 1083 595
GlifName: uni043B_
Width: 507
VWidth: 0
Flags: W
LayerCount: 2
Fore
SplineSet
20 -10 m 257
 20 55 l 257
 93 55 106 89 106 290 c 258
 106 460 l 257
 437 460 l 257
 437 0 l 257
 357 0 l 257
 357 392 l 257
 186 392 l 257
 186 310 l 258
 186 107 164 -10 48 -10 c 258
 20 -10 l 257
EndSplineSet
Substitution2: "'smcp' Lowercase to Small Capitals lookup 34 subtable" uni043B.sc
Substitution2: "'locl' Localized Forms in Cyrillic lookup 0 subtable" uni043B.loclBGR
EndChar

StartChar: uni043B.loclBGR
Encoding: 698 -1 596
GlifName: uni043B_.loclB_G_R_
Width: 437
VWidth: 0
Flags: W
LayerCount: 2
Fore
SplineSet
35 0 m 257
 171 460 l 257
 281 460 l 257
 402 0 l 257
 322 0 l 257
 222 395 l 257
 115 0 l 257
 35 0 l 257
EndSplineSet
EndChar

StartChar: uni043B.sc
Encoding: 699 -1 597
GlifName: uni043B_.sc
Width: 441
VWidth: 0
Flags: W
LayerCount: 2
Fore
SplineSet
33 -7 m 257
 33 33 l 257
 33 73 l 257
 52 73 67 81 78 94 c 256
 111 132 111 213 111 255 c 258
 111 460 l 257
 409 460 l 257
 409 0 l 257
 329 0 l 257
 329 395 l 257
 191 395 l 257
 191 233 l 258
 191 43 111 -7 33 -7 c 257
EndSplineSet
EndChar

StartChar: uni043C
Encoding: 220 1084 598
GlifName: uni043C_
Width: 627
VWidth: 0
Flags: W
LayerCount: 2
Fore
SplineSet
70 0 m 257
 70 460 l 257
 213 460 l 257
 251 335 303 209 320 80 c 257
 327 125 334 144 343 180 c 257
 441 460 l 257
 557 460 l 257
 557 0 l 257
 477 0 l 257
 477 300 l 258
 477 340 477 360 482 390 c 257
 343 0 l 257
 273 0 l 257
 145 390 l 257
 147 360 150 338 150 300 c 258
 150 0 l 257
 70 0 l 257
EndSplineSet
Substitution2: "'smcp' Lowercase to Small Capitals lookup 34 subtable" uni043C.sc
EndChar

StartChar: uni043C.sc
Encoding: 700 -1 599
GlifName: uni043C_.sc
Width: 609
VWidth: 0
Flags: W
LayerCount: 2
Fore
SplineSet
33 0 m 257
 33 460 l 257
 108 460 l 257
 167 460 l 257
 308 59 l 257
 304 59 l 257
 445 460 l 257
 498 460 l 257
 577 460 l 257
 577 0 l 257
 497 0 l 257
 497 381 l 257
 363 0 l 257
 244 0 l 257
 113 374 l 257
 113 0 l 257
 33 0 l 257
EndSplineSet
EndChar

StartChar: uni043D
Encoding: 221 1085 600
GlifName: uni043D_
Width: 518
VWidth: 0
Flags: W
LayerCount: 2
Fore
SplineSet
110 231 m 257
 110 249 l 257
 407 249 l 257
 407 231 l 257
 110 231 l 257
EndSplineSet
Refer: 179 305 N 1 0 0 1 0 0 2
Refer: 179 305 N 1 0 0 1 296 0 2
Substitution2: "'smcp' Lowercase to Small Capitals lookup 34 subtable" uni043D.sc
EndChar

StartChar: uni043D.sc
Encoding: 701 -1 601
GlifName: uni043D_.sc
Width: 409
VWidth: 0
Flags: W
LayerCount: 2
Fore
SplineSet
33 0 m 257
 33 460 l 257
 113 460 l 257
 113 265 l 257
 297 265 l 257
 297 460 l 257
 377 460 l 257
 377 0 l 257
 297 0 l 257
 297 200 l 257
 113 200 l 257
 113 0 l 257
 33 0 l 257
EndSplineSet
EndChar

StartChar: uni043E.sc
Encoding: 702 -1 603
GlifName: uni043E_.sc
Width: 475
VWidth: 0
Flags: W
LayerCount: 2
Fore
SplineSet
33 230 m 256
 33 368 103 470 236 470 c 256
 375 470 443 366 443 230 c 256
 443 92 378 -10 241 -10 c 256
 100 -10 33 90 33 230 c 256
113 230 m 256
 113 141 144 55 237 55 c 256
 336 55 363 163 363 230 c 256
 363 321 335 405 237 405 c 256
 146 405 113 320 113 230 c 256
EndSplineSet
EndChar

StartChar: uni043F
Encoding: 223 1087 604
GlifName: uni043F_
Width: 496
VWidth: 0
Flags: W
LayerCount: 2
Fore
SplineSet
110 442 m 257
 110 460 l 257
 385 460 l 257
 385 442 l 257
 110 442 l 257
EndSplineSet
Refer: 179 305 N 1 0 0 1 0 0 2
Refer: 179 305 N 1 0 0 1 274 0 2
PickledDataWithLists: "(dp0
Vcom.fontlab.metricsLeft\\u000d
p1
V=uni043D\\u000d
p2
sVcom.fontlab.metricsRight\\u000d
p3
V=uni043D\\u000d
p4
s."
Substitution2: "'smcp' Lowercase to Small Capitals lookup 34 subtable" uni043F.sc
Substitution2: "'locl' Localized Forms in Cyrillic lookup 0 subtable" uni043F.loclBGR
EndChar

StartChar: uni043F.sc
Encoding: 704 -1 606
GlifName: uni043F_.sc
Width: 429
VWidth: 0
Flags: W
LayerCount: 2
Fore
SplineSet
33 0 m 257
 33 460 l 257
 397 460 l 257
 397 0 l 257
 317 0 l 257
 317 395 l 257
 113 395 l 257
 113 0 l 257
 33 0 l 257
EndSplineSet
EndChar

StartChar: uni0440.sc
Encoding: 705 -1 608
GlifName: uni0440.sc
Width: 422
VWidth: 0
Flags: W
LayerCount: 2
Fore
SplineSet
33 0 m 257
 33 460 l 257
 218 460 l 258
 322 460 390 430 390 325 c 256
 390 259 343 180 218 180 c 258
 113 180 l 257
 113 0 l 257
 33 0 l 257
113 245 m 257
 218 245 l 258
 288 245 310 285 310 325 c 256
 310 365 289 395 218 395 c 256
 183 395 148 395 113 395 c 257
 113 245 l 257
EndSplineSet
EndChar

StartChar: uni0441.sc
Encoding: 706 -1 610
GlifName: uni0441.sc
Width: 466
VWidth: 0
Flags: W
LayerCount: 2
Fore
SplineSet
33 230 m 256
 33 368 103 470 237 470 c 256
 348 470 410 401 434 304 c 257
 355 304 l 257
 339 359 307 405 237 405 c 256
 146 405 113 320 113 230 c 256
 113 141 144 55 237 55 c 256
 290 55 324 93 342 132 c 257
 425 132 l 257
 420 115 413 100 405 85 c 256
 373 27 319 -10 241 -10 c 256
 100 -10 33 90 33 230 c 256
EndSplineSet
EndChar

StartChar: uni0442
Encoding: 226 1090 611
GlifName: uni0442
Width: 434
VWidth: 0
Flags: W
LayerCount: 2
Fore
SplineSet
207 450 m 257
 207 0 l 257
 227 0 l 257
 227 450 l 257
 207 450 l 257
30 442 m 257
 404 442 l 257
 404 460 l 257
 30 460 l 257
 30 442 l 257
EndSplineSet
Substitution2: "'smcp' Lowercase to Small Capitals lookup 34 subtable" uni0442.sc
Substitution2: "'locl' Localized Forms in Cyrillic lookup 0 subtable" uni0442.loclBGR
EndChar

StartChar: uni0442.sc
Encoding: 708 -1 613
GlifName: uni0442.sc
Width: 388
VWidth: 0
Flags: W
LayerCount: 2
Fore
SplineSet
33 395 m 257
 33 460 l 257
 356 460 l 257
 356 395 l 257
 238 395 l 257
 238 0 l 257
 158 0 l 257
 158 395 l 257
 33 395 l 257
EndSplineSet
EndChar

StartChar: uni0443.sc
Encoding: 709 -1 615
GlifName: uni0443.sc
Width: 428
VWidth: 0
Flags: W
LayerCount: 2
Fore
SplineSet
20 460 m 257
 110 460 l 257
 203 232 l 257
 317 460 l 257
 408 460 l 257
 172 0 l 257
 82 0 l 257
 157 149 l 257
 20 460 l 257
EndSplineSet
EndChar

StartChar: uni0444
Encoding: 228 1092 616
GlifName: uni0444
Width: 646
VWidth: 0
Flags: W
LayerCount: 2
Fore
SplineSet
50 230 m 256
 50 380 163 470 283 470 c 257
 283 700 l 257
 363 700 l 257
 363 470 l 257
 483 470 596 380 596 230 c 256
 596 80 483 -10 363 -10 c 257
 363 -200 l 257
 283 -200 l 257
 283 -10 l 257
 163 -10 50 80 50 230 c 256
130 230 m 256
 130 121 193 60 283 60 c 257
 283 400 l 257
 193 400 130 335 130 230 c 256
363 60 m 257
 453 60 516 121 516 230 c 256
 516 335 453 400 363 400 c 257
 363 60 l 257
EndSplineSet
Substitution2: "'smcp' Lowercase to Small Capitals lookup 34 subtable" uni0444.sc
EndChar

StartChar: uni0444.sc
Encoding: 710 -1 617
GlifName: uni0444.sc
Width: 607
VWidth: 0
Flags: W
LayerCount: 2
Fore
SplineSet
113 230 m 256
 113 183 141 113 239 113 c 256
 248 113 256 114 264 115 c 257
 264 344 l 257
 256 345 248 346 239 346 c 256
 141 346 113 294 113 230 c 256
33 230 m 256
 33 338 99 411 236 411 c 256
 245 411 255 410 264 409 c 257
 264 460 l 257
 344 460 l 257
 344 409 l 257
 353 410 362 411 371 411 c 256
 508 411 575 338 575 230 c 256
 575 121 511 48 376 48 c 256
 365 48 354 49 344 50 c 257
 344 0 l 257
 264 0 l 257
 264 50 l 257
 254 49 243 48 232 48 c 256
 97 48 33 121 33 230 c 256
344 115 m 257
 352 114 360 113 369 113 c 256
 467 113 495 183 495 230 c 256
 495 294 467 346 369 346 c 256
 360 346 352 345 344 344 c 257
 344 115 l 257
EndSplineSet
EndChar

StartChar: uni0445.alt
Encoding: 711 -1 619
GlifName: uni0445.alt
Width: 550
VWidth: 0
Flags: W
LayerCount: 2
Fore
SplineSet
50 -10 m 257
 50 55 l 257
 149 55 225 110 225 230 c 256
 225 358 150 405 50 405 c 257
 50 470 l 257
 176 470 250 407 275 313 c 257
 300 408 374 470 500 470 c 257
 500 405 l 257
 400 405 325 358 325 230 c 256
 325 105 399 55 500 55 c 257
 500 -10 l 257
 500 -10 l 257
 379 -10 303 56 276 150 c 257
 253 58 186 -10 50 -10 c 257
EndSplineSet
EndChar

